<?xml version="1.0" encoding="UTF-8" standalone="no"?><svg xmlns="http://www.w3.org/2000/svg" xmlns:xlink="http://www.w3.org/1999/xlink" clip-rule="evenodd" stroke-miterlimit="4.00" viewBox="0 0 1024 768"><desc>SVG generated by Keynote</desc><defs></defs><g transform="matrix(1.00, 0.00, -0.00, -1.00, 0.0, 768.0)"><path d="M 0.0 768.0 L 1024.0 768.0 L 1024.0 0.0 L 0.0 0.0 Z M 0.0 768.0 " fill="#000000"></path><text xml:space="preserve" font-family="Helvetica-Light" font-size="77.0" fill="#FEFFFF" transform="matrix(1.00, 0.00, -0.00, -1.00, 152.0, 657.0)">n</text><text xml:space="preserve" font-family="Helvetica-Light" font-size="77.0" fill="#FEFFFF" transform="matrix(1.00, 0.00, -0.00, -1.00, 194.8, 657.0)">o</text><text xml:space="preserve" font-family="Helvetica-Light" font-size="77.0" fill="#FEFFFF" transform="matrix(1.00, 0.00, -0.00, -1.00, 237.6, 657.0)">w</text><text xml:space="preserve" font-family="Helvetica-Light" font-size="77.0" fill="#FEFFFF" transform="matrix(1.00, 0.00, -0.00, -1.00, 293.2, 657.0)"> </text><text xml:space="preserve" font-family="Helvetica-Light" font-size="77.0" fill="#FEFFFF" transform="matrix(1.00, 0.00, -0.00, -1.00, 314.6, 657.0)">t</text><text xml:space="preserve" font-family="Helvetica-Light" font-size="77.0" fill="#FEFFFF" transform="matrix(1.00, 0.00, -0.00, -1.00, 336.0, 657.0)">o</text><text xml:space="preserve" font-family="Helvetica-Light" font-size="77.0" fill="#FEFFFF" transform="matrix(1.00, 0.00, -0.00, -1.00, 378.8, 657.0)"> </text><text xml:space="preserve" font-family="Helvetica-Light" font-size="77.0" fill="#FEFFFF" transform="matrix(1.00, 0.00, -0.00, -1.00, 400.2, 657.0)">t</text><text xml:space="preserve" font-family="Helvetica-Light" font-size="77.0" fill="#FEFFFF" transform="matrix(1.00, 0.00, -0.00, -1.00, 421.7, 657.0)">h</text><text xml:space="preserve" font-family="Helvetica-Light" font-size="77.0" fill="#FEFFFF" transform="matrix(1.00, 0.00, -0.00, -1.00, 464.5, 657.0)">e</text><text xml:space="preserve" font-family="Helvetica-Light" font-size="77.0" fill="#FEFFFF" transform="matrix(1.00, 0.00, -0.00, -1.00, 507.3, 657.0)"> </text><text xml:space="preserve" font-family="Helvetica-Light" font-size="77.0" fill="#FEFFFF" transform="matrix(1.00, 0.00, -0.00, -1.00, 528.7, 657.0)">f</text><text xml:space="preserve" font-family="Helvetica-Light" font-size="77.0" fill="#FEFFFF" transform="matrix(1.00, 0.00, -0.00, -1.00, 550.1, 657.0)">u</text><text xml:space="preserve" font-family="Helvetica-Light" font-size="77.0" fill="#FEFFFF" transform="matrix(1.00, 0.00, -0.00, -1.00, 592.9, 657.0)">n</text><text xml:space="preserve" font-family="Helvetica-Light" font-size="77.0" fill="#FEFFFF" transform="matrix(1.00, 0.00, -0.00, -1.00, 635.7, 657.0)"> </text><text xml:space="preserve" font-family="Helvetica-Light" font-size="77.0" fill="#FEFFFF" transform="matrix(1.00, 0.00, -0.00, -1.00, 657.1, 657.0)">p</text><text xml:space="preserve" font-family="Helvetica-Light" font-size="77.0" fill="#FEFFFF" transform="matrix(1.00, 0.00, -0.00, -1.00, 704.2, 657.0)">a</text><text xml:space="preserve" font-family="Helvetica-Light" font-size="77.0" fill="#FEFFFF" transform="matrix(1.00, 0.00, -0.00, -1.00, 747.0, 657.0)">r</text><text xml:space="preserve" font-family="Helvetica-Light" font-size="77.0" fill="#FEFFFF" transform="matrix(1.00, 0.00, -0.00, -1.00, 774.0, 657.0)">t</text><text xml:space="preserve" font-family="Helvetica-Light" font-size="77.0" fill="#FEFFFF" transform="matrix(1.00, 0.00, -0.00, -1.00, 795.4, 657.0)">…</text><text xml:space="preserve" font-family="Helvetica-Light" font-size="77.0" fill="#FEFFFF" transform="matrix(1.00, 0.00, -0.00, -1.00, 872.4, 657.0)"> </text><image xlink:href="../../4CD19ECD-FCD6-4872-8A61-715ED97F934C/assets/5A5804AA5EBB1ADFC7548B5E4E9075CF.png" width="359.00" height="540.00" transform="matrix(1.06, 0.00, -0.00, -1.06, 86.0, 637.0)"></image><image xlink:href="../../4CD19ECD-FCD6-4872-8A61-715ED97F934C/assets/08C1203BC20DF60A05DBF37C4B6C380D.png" width="382.00" height="540.00" transform="matrix(1.03, 0.00, -0.00, -1.02, 490.0, 615.0)"></image><text xml:space="preserve" font-family="Helvetica-Light" font-size="14.0" fill="#FEFFFF" transform="matrix(1.00, 0.00, -0.00, -1.00, 78.0, 39.0)">(</text><text xml:space="preserve" font-family="Helvetica-Light" font-size="14.0" fill="#FEFFFF" transform="matrix(1.00, 0.00, -0.00, -1.00, 82.7, 39.0)">s</text><text xml:space="preserve" font-family="Helvetica-Light" font-size="14.0" fill="#FEFFFF" transform="matrix(1.00, 0.00, -0.00, -1.00, 89.7, 39.0)">o</text><text xml:space="preserve" font-family="Helvetica-Light" font-size="14.0" fill="#FEFFFF" transform="matrix(1.00, 0.00, -0.00, -1.00, 97.4, 39.0)">u</text><text xml:space="preserve" font-family="Helvetica-Light" font-size="14.0" fill="#FEFFFF" transform="matrix(1.00, 0.00, -0.00, -1.00, 105.2, 39.0)">r</text><text xml:space="preserve" font-family="Helvetica-Light" font-size="14.0" fill="#FEFFFF" transform="matrix(1.00, 0.00, -0.00, -1.00, 109.6, 39.0)">c</text><text xml:space="preserve" font-family="Helvetica-Light" font-size="14.0" fill="#FEFFFF" transform="matrix(1.00, 0.00, -0.00, -1.00, 117.4, 39.0)">e</text><text xml:space="preserve" font-family="Helvetica-Light" font-size="14.0" fill="#FEFFFF" transform="matrix(1.00, 0.00, -0.00, -1.00, 125.2, 39.0)">:</text><text xml:space="preserve" font-family="Helvetica-Light" font-size="14.0" fill="#FEFFFF" transform="matrix(1.00, 0.00, -0.00, -1.00, 129.1, 39.0)"> </text><text xml:space="preserve" font-family="Helvetica-Light" font-size="14.0" fill="#FEFFFF" transform="matrix(1.00, 0.00, -0.00, -1.00, 133.0, 39.0)">F</text><text xml:space="preserve" font-family="Helvetica-Light" font-size="14.0" fill="#FEFFFF" transform="matrix(1.00, 0.00, -0.00, -1.00, 140.8, 39.0)">e</text><text xml:space="preserve" font-family="Helvetica-Light" font-size="14.0" fill="#FEFFFF" transform="matrix(1.00, 0.00, -0.00, -1.00, 148.6, 39.0)">i</text><text xml:space="preserve" font-family="Helvetica-Light" font-size="14.0" fill="#FEFFFF" transform="matrix(1.00, 0.00, -0.00, -1.00, 151.7, 39.0)">-</text><text xml:space="preserve" font-family="Helvetica-Light" font-size="14.0" fill="#FEFFFF" transform="matrix(1.00, 0.00, -0.00, -1.00, 156.3, 39.0)">F</text><text xml:space="preserve" font-family="Helvetica-Light" font-size="14.0" fill="#FEFFFF" transform="matrix(1.00, 0.00, -0.00, -1.00, 164.1, 39.0)">e</text><text xml:space="preserve" font-family="Helvetica-Light" font-size="14.0" fill="#FEFFFF" transform="matrix(1.00, 0.00, -0.00, -1.00, 171.9, 39.0)">i</text><text xml:space="preserve" font-family="Helvetica-Light" font-size="14.0" fill="#FEFFFF" transform="matrix(1.00, 0.00, -0.00, -1.00, 175.0, 39.0)"> </text><text xml:space="preserve" font-family="Helvetica-Light" font-size="14.0" fill="#FEFFFF" transform="matrix(1.00, 0.00, -0.00, -1.00, 178.9, 39.0)">L</text><text xml:space="preserve" font-family="Helvetica-Light" font-size="14.0" fill="#FEFFFF" transform="matrix(1.00, 0.00, -0.00, -1.00, 186.7, 39.0)">i</text><text xml:space="preserve" font-family="Helvetica-Light" font-size="14.0" fill="#FEFFFF" transform="matrix(1.00, 0.00, -0.00, -1.00, 189.8, 39.0)"> </text><text xml:space="preserve" font-family="Helvetica-Light" font-size="14.0" fill="#FEFFFF" transform="matrix(1.00, 0.00, -0.00, -1.00, 193.7, 39.0)">&amp;</text><text xml:space="preserve" font-family="Helvetica-Light" font-size="14.0" fill="#FEFFFF" transform="matrix(1.00, 0.00, -0.00, -1.00, 203.0, 39.0)"> </text><text xml:space="preserve" font-family="Helvetica-Light" font-size="14.0" fill="#FEFFFF" transform="matrix(1.00, 0.00, -0.00, -1.00, 206.9, 39.0)">A</text><text xml:space="preserve" font-family="Helvetica-Light" font-size="14.0" fill="#FEFFFF" transform="matrix(1.00, 0.00, -0.00, -1.00, 216.3, 39.0)">n</text><text xml:space="preserve" font-family="Helvetica-Light" font-size="14.0" fill="#FEFFFF" transform="matrix(1.00, 0.00, -0.00, -1.00, 224.0, 39.0)">d</text><text xml:space="preserve" font-family="Helvetica-Light" font-size="14.0" fill="#FEFFFF" transform="matrix(1.00, 0.00, -0.00, -1.00, 232.6, 39.0)">r</text><text xml:space="preserve" font-family="Helvetica-Light" font-size="14.0" fill="#FEFFFF" transform="matrix(1.00, 0.00, -0.00, -1.00, 237.0, 39.0)">e</text><text xml:space="preserve" font-family="Helvetica-Light" font-size="14.0" fill="#FEFFFF" transform="matrix(1.00, 0.00, -0.00, -1.00, 244.8, 39.0)">j</text><text xml:space="preserve" font-family="Helvetica-Light" font-size="14.0" fill="#FEFFFF" transform="matrix(1.00, 0.00, -0.00, -1.00, 247.9, 39.0)"> </text><text xml:space="preserve" font-family="Helvetica-Light" font-size="14.0" fill="#FEFFFF" transform="matrix(1.00, 0.00, -0.00, -1.00, 251.8, 39.0)">K</text><text xml:space="preserve" font-family="Helvetica-Light" font-size="14.0" fill="#FEFFFF" transform="matrix(1.00, 0.00, -0.00, -1.00, 261.1, 39.0)">a</text><text xml:space="preserve" font-family="Helvetica-Light" font-size="14.0" fill="#FEFFFF" transform="matrix(1.00, 0.00, -0.00, -1.00, 268.9, 39.0)">r</text><text xml:space="preserve" font-family="Helvetica-Light" font-size="14.0" fill="#FEFFFF" transform="matrix(1.00, 0.00, -0.00, -1.00, 273.6, 39.0)">p</text><text xml:space="preserve" font-family="Helvetica-Light" font-size="14.0" fill="#FEFFFF" transform="matrix(1.00, 0.00, -0.00, -1.00, 282.1, 39.0)">a</text><text xml:space="preserve" font-family="Helvetica-Light" font-size="14.0" fill="#FEFFFF" transform="matrix(1.00, 0.00, -0.00, -1.00, 289.9, 39.0)">t</text><text xml:space="preserve" font-family="Helvetica-Light" font-size="14.0" fill="#FEFFFF" transform="matrix(1.00, 0.00, -0.00, -1.00, 293.8, 39.0)">h</text><text xml:space="preserve" font-family="Helvetica-Light" font-size="14.0" fill="#FEFFFF" transform="matrix(1.00, 0.00, -0.00, -1.00, 301.6, 39.0)">y</text><text xml:space="preserve" font-family="Helvetica-Light" font-size="14.0" fill="#FEFFFF" transform="matrix(1.00, 0.00, -0.00, -1.00, 308.6, 39.0)"> </text><text xml:space="preserve" font-family="Helvetica-Light" font-size="14.0" fill="#FEFFFF" transform="matrix(1.00, 0.00, -0.00, -1.00, 312.5, 39.0)">&amp;</text><text xml:space="preserve" font-family="Helvetica-Light" font-size="14.0" fill="#FEFFFF" transform="matrix(1.00, 0.00, -0.00, -1.00, 321.8, 39.0)"> </text><text xml:space="preserve" font-family="Helvetica-Light" font-size="14.0" fill="#FEFFFF" transform="matrix(1.00, 0.00, -0.00, -1.00, 325.7, 39.0)">J</text><text xml:space="preserve" font-family="Helvetica-Light" font-size="14.0" fill="#FEFFFF" transform="matrix(1.00, 0.00, -0.00, -1.00, 332.7, 39.0)">u</text><text xml:space="preserve" font-family="Helvetica-Light" font-size="14.0" fill="#FEFFFF" transform="matrix(1.00, 0.00, -0.00, -1.00, 340.5, 39.0)">s</text><text xml:space="preserve" font-family="Helvetica-Light" font-size="14.0" fill="#FEFFFF" transform="matrix(1.00, 0.00, -0.00, -1.00, 347.5, 39.0)">t</text><text xml:space="preserve" font-family="Helvetica-Light" font-size="14.0" fill="#FEFFFF" transform="matrix(1.00, 0.00, -0.00, -1.00, 351.4, 39.0)">i</text><text xml:space="preserve" font-family="Helvetica-Light" font-size="14.0" fill="#FEFFFF" transform="matrix(1.00, 0.00, -0.00, -1.00, 354.5, 39.0)">n</text><text xml:space="preserve" font-family="Helvetica-Light" font-size="14.0" fill="#FEFFFF" transform="matrix(1.00, 0.00, -0.00, -1.00, 362.3, 39.0)"> </text><text xml:space="preserve" font-family="Helvetica-Light" font-size="14.0" fill="#FEFFFF" transform="matrix(1.00, 0.00, -0.00, -1.00, 366.2, 39.0)">J</text><text xml:space="preserve" font-family="Helvetica-Light" font-size="14.0" fill="#FEFFFF" transform="matrix(1.00, 0.00, -0.00, -1.00, 373.2, 39.0)">o</text><text xml:space="preserve" font-family="Helvetica-Light" font-size="14.0" fill="#FEFFFF" transform="matrix(1.00, 0.00, -0.00, -1.00, 380.9, 39.0)">h</text><text xml:space="preserve" font-family="Helvetica-Light" font-size="14.0" fill="#FEFFFF" transform="matrix(1.00, 0.00, -0.00, -1.00, 388.7, 39.0)">n</text><text xml:space="preserve" font-family="Helvetica-Light" font-size="14.0" fill="#FEFFFF" transform="matrix(1.00, 0.00, -0.00, -1.00, 396.5, 39.0)">s</text><text xml:space="preserve" font-family="Helvetica-Light" font-size="14.0" fill="#FEFFFF" transform="matrix(1.00, 0.00, -0.00, -1.00, 403.5, 39.0)">o</text><text xml:space="preserve" font-family="Helvetica-Light" font-size="14.0" fill="#FEFFFF" transform="matrix(1.00, 0.00, -0.00, -1.00, 411.3, 39.0)">n</text><text xml:space="preserve" font-family="Helvetica-Light" font-size="14.0" fill="#FEFFFF" transform="matrix(1.00, 0.00, -0.00, -1.00, 419.1, 39.0)">,</text><text xml:space="preserve" font-family="Helvetica-Light" font-size="14.0" fill="#FEFFFF" transform="matrix(1.00, 0.00, -0.00, -1.00, 423.0, 39.0)"> </text><text xml:space="preserve" font-family="Helvetica-Light" font-size="14.0" fill="#FEFFFF" transform="matrix(1.00, 0.00, -0.00, -1.00, 426.9, 39.0)">c</text><text xml:space="preserve" font-family="Helvetica-Light" font-size="14.0" fill="#FEFFFF" transform="matrix(1.00, 0.00, -0.00, -1.00, 434.6, 39.0)">s</text><text xml:space="preserve" font-family="Helvetica-Light" font-size="14.0" fill="#FEFFFF" transform="matrix(1.00, 0.00, -0.00, -1.00, 441.6, 39.0)">2</text><text xml:space="preserve" font-family="Helvetica-Light" font-size="14.0" fill="#FEFFFF" transform="matrix(1.00, 0.00, -0.00, -1.00, 449.4, 39.0)">3</text><text xml:space="preserve" font-family="Helvetica-Light" font-size="14.0" fill="#FEFFFF" transform="matrix(1.00, 0.00, -0.00, -1.00, 457.2, 39.0)">1</text><text xml:space="preserve" font-family="Helvetica-Light" font-size="14.0" fill="#FEFFFF" transform="matrix(1.00, 0.00, -0.00, -1.00, 465.0, 39.0)">n</text><text xml:space="preserve" font-family="Helvetica-Light" font-size="14.0" fill="#FEFFFF" transform="matrix(1.00, 0.00, -0.00, -1.00, 472.8, 39.0)"> </text><text xml:space="preserve" font-family="Helvetica-Light" font-size="14.0" fill="#FEFFFF" transform="matrix(1.00, 0.00, -0.00, -1.00, 476.7, 39.0)">2</text><text xml:space="preserve" font-family="Helvetica-Light" font-size="14.0" fill="#FEFFFF" transform="matrix(1.00, 0.00, -0.00, -1.00, 484.5, 39.0)">0</text><text xml:space="preserve" font-family="Helvetica-Light" font-size="14.0" fill="#FEFFFF" transform="matrix(1.00, 0.00, -0.00, -1.00, 492.2, 39.0)">1</text><text xml:space="preserve" font-family="Helvetica-Light" font-size="14.0" fill="#FEFFFF" transform="matrix(1.00, 0.00, -0.00, -1.00, 500.0, 39.0)">6</text><text xml:space="preserve" font-family="Helvetica-Light" font-size="14.0" fill="#FEFFFF" transform="matrix(1.00, 0.00, -0.00, -1.00, 507.8, 39.0)">,</text><text xml:space="preserve" font-family="Helvetica-Light" font-size="14.0" fill="#FEFFFF" transform="matrix(1.00, 0.00, -0.00, -1.00, 511.7, 39.0)"> </text><text xml:space="preserve" font-family="Helvetica-Light" font-size="14.0" fill="#FEFFFF" transform="matrix(1.00, 0.00, -0.00, -1.00, 515.6, 39.0)">L</text><text xml:space="preserve" font-family="Helvetica-Light" font-size="14.0" fill="#FEFFFF" transform="matrix(1.00, 0.00, -0.00, -1.00, 523.4, 39.0)">e</text><text xml:space="preserve" font-family="Helvetica-Light" font-size="14.0" fill="#FEFFFF" transform="matrix(1.00, 0.00, -0.00, -1.00, 531.2, 39.0)">c</text><text xml:space="preserve" font-family="Helvetica-Light" font-size="14.0" fill="#FEFFFF" transform="matrix(1.00, 0.00, -0.00, -1.00, 538.9, 39.0)">t</text><text xml:space="preserve" font-family="Helvetica-Light" font-size="14.0" fill="#FEFFFF" transform="matrix(1.00, 0.00, -0.00, -1.00, 542.8, 39.0)">u</text><text xml:space="preserve" font-family="Helvetica-Light" font-size="14.0" fill="#FEFFFF" transform="matrix(1.00, 0.00, -0.00, -1.00, 550.6, 39.0)">r</text><text xml:space="preserve" font-family="Helvetica-Light" font-size="14.0" fill="#FEFFFF" transform="matrix(1.00, 0.00, -0.00, -1.00, 555.0, 39.0)">e</text><text xml:space="preserve" font-family="Helvetica-Light" font-size="14.0" fill="#FEFFFF" transform="matrix(1.00, 0.00, -0.00, -1.00, 562.8, 39.0)"> </text><text xml:space="preserve" font-family="Helvetica-Light" font-size="14.0" fill="#FEFFFF" transform="matrix(1.00, 0.00, -0.00, -1.00, 566.7, 39.0)">1</text><text xml:space="preserve" font-family="Helvetica-Light" font-size="14.0" fill="#FEFFFF" transform="matrix(1.00, 0.00, -0.00, -1.00, 574.5, 39.0)">2</text><text xml:space="preserve" font-family="Helvetica-Light" font-size="14.0" fill="#FEFFFF" transform="matrix(1.00, 0.00, -0.00, -1.00, 582.3, 39.0)">)</text></g></svg>