<?xml version="1.0" encoding="UTF-8" standalone="no"?><svg xmlns="http://www.w3.org/2000/svg" xmlns:xlink="http://www.w3.org/1999/xlink" clip-rule="evenodd" stroke-miterlimit="4.00" viewBox="0 0 1024 768"><desc>SVG generated by Keynote</desc><defs></defs><g transform="matrix(1.00, 0.00, -0.00, -1.00, 0.0, 768.0)"><path d="M 0.0 768.0 L 1024.0 768.0 L 1024.0 0.0 L 0.0 0.0 Z M 0.0 768.0 " fill="#000000"></path><image xlink:href="../../B32C5493-4757-418C-9AA3-D576B59FF9D5/assets/8CE24E0E41C23ADF574679831E341AAA.png" width="289.00" height="184.00" transform="matrix(1.00, 0.00, -0.00, -0.99, 650.0, 459.0)"></image><path d="M -0.5 0.3 L 288.5 0.3 L 288.5 183.3 L -0.5 183.3 Z M -0.5 0.3 " fill="none" stroke="#FEFFFE" stroke-width="4.00" transform="matrix(1.00, 0.00, 0.00, -1.00, 650.5, 459.3)"></path><image xlink:href="../../B32C5493-4757-418C-9AA3-D576B59FF9D5/assets/2ABC626E760ED0EE65D56E7AF9747616.png" width="289.00" height="186.00" transform="matrix(1.00, 0.00, -0.00, -0.99, 94.0, 460.0)"></image><path d="M -0.1 0.2 L 287.9 0.2 L 287.9 185.2 L -0.1 185.2 Z M -0.1 0.2 " fill="none" stroke="#FEFFFE" stroke-width="4.00" transform="matrix(1.00, 0.00, 0.00, -1.00, 94.1, 460.2)"></path><path d="M 503.4 352.8 L 503.4 327.9 L 562.6 364.5 L 503.4 401.1 L 503.4 376.2 L 470.1 376.2 L 470.1 352.8 Z M 503.4 352.8 " fill="#A6AAA8"></path><path d="M 0.0 0.0 L 74.7 0.0 " fill="none" stroke="#FEFFFE" stroke-width="2.00" transform="matrix(0.49, 0.87, 0.87, -0.49, 144.2, 427.4)"></path><g><clipPath id="clip-1511"><path d="M 188.0 498.0 L 240.0 498.0 L 240.0 534.0 L 188.0 534.0 Z M 188.0 498.0 "></path></clipPath><g clip-path="url(#clip-1511)"><text xml:space="preserve" font-family="Helvetica" font-size="10.0" fill="#FFFFFF" transform="matrix(4.00, 0.00, -0.00, -4.00, 189.1, 511.3)">x</text><text xml:space="preserve" font-family="Helvetica" font-size="7.0" fill="#FFFFFF" transform="matrix(4.00, 0.00, -0.00, -4.00, 211.9, 505.3)">i</text><text xml:space="preserve" font-family="Helvetica" font-size="7.0" fill="#FFFFFF" transform="matrix(4.00, 0.00, -0.00, -4.00, 218.1, 505.3)">j</text></g></g><path d="M 0.0 0.0 L 80.9 0.0 " fill="none" stroke="#FEFFFE" stroke-width="2.00" transform="matrix(0.48, 0.88, 0.88, -0.48, 705.2, 424.4)"></path><text xml:space="preserve" font-family="Helvetica-Light" font-size="27.0" fill="#FEFFFF" transform="matrix(1.00, 0.00, -0.00, -1.00, 52.8, 121.6)">•</text><text xml:space="preserve" font-family="Helvetica-Light" font-size="36.0" fill="#FEFFFF" transform="matrix(1.00, 0.00, -0.00, -1.00, 86.0, 118.0)">n</text><text xml:space="preserve" font-family="Helvetica-Light" font-size="36.0" fill="#FEFFFF" transform="matrix(1.00, 0.00, -0.00, -1.00, 106.0, 118.0)">o</text><text xml:space="preserve" font-family="Helvetica-Light" font-size="36.0" fill="#FEFFFF" transform="matrix(1.00, 0.00, -0.00, -1.00, 126.0, 118.0)"> </text><text xml:space="preserve" font-family="Helvetica-Light" font-size="36.0" fill="#FEFFFF" transform="matrix(1.00, 0.00, -0.00, -1.00, 136.0, 118.0)">i</text><text xml:space="preserve" font-family="Helvetica-Light" font-size="36.0" fill="#FEFFFF" transform="matrix(1.00, 0.00, -0.00, -1.00, 144.0, 118.0)">n</text><text xml:space="preserve" font-family="Helvetica-Light" font-size="36.0" fill="#FEFFFF" transform="matrix(1.00, 0.00, -0.00, -1.00, 164.0, 118.0)">t</text><text xml:space="preserve" font-family="Helvetica-Light" font-size="36.0" fill="#FEFFFF" transform="matrix(1.00, 0.00, -0.00, -1.00, 174.1, 118.0)">e</text><text xml:space="preserve" font-family="Helvetica-Light" font-size="36.0" fill="#FEFFFF" transform="matrix(1.00, 0.00, -0.00, -1.00, 194.1, 118.0)">r</text><text xml:space="preserve" font-family="Helvetica-Light" font-size="36.0" fill="#FEFFFF" transform="matrix(1.00, 0.00, -0.00, -1.00, 204.1, 118.0)">-</text><text xml:space="preserve" font-family="Helvetica-Light" font-size="36.0" fill="#FEFFFF" transform="matrix(1.00, 0.00, -0.00, -1.00, 216.1, 118.0)">p</text><text xml:space="preserve" font-family="Helvetica-Light" font-size="36.0" fill="#FEFFFF" transform="matrix(1.00, 0.00, -0.00, -1.00, 238.1, 118.0)">i</text><text xml:space="preserve" font-family="Helvetica-Light" font-size="36.0" fill="#FEFFFF" transform="matrix(1.00, 0.00, -0.00, -1.00, 246.1, 118.0)">x</text><text xml:space="preserve" font-family="Helvetica-Light" font-size="36.0" fill="#FEFFFF" transform="matrix(1.00, 0.00, -0.00, -1.00, 264.1, 118.0)">e</text><text xml:space="preserve" font-family="Helvetica-Light" font-size="36.0" fill="#FEFFFF" transform="matrix(1.00, 0.00, -0.00, -1.00, 284.1, 118.0)">l</text><text xml:space="preserve" font-family="Helvetica-Light" font-size="36.0" fill="#FEFFFF" transform="matrix(1.00, 0.00, -0.00, -1.00, 292.1, 118.0)"> </text><text xml:space="preserve" font-family="Helvetica-Light" font-size="36.0" fill="#FEFFFF" transform="matrix(1.00, 0.00, -0.00, -1.00, 302.1, 118.0)">c</text><text xml:space="preserve" font-family="Helvetica-Light" font-size="36.0" fill="#FEFFFF" transform="matrix(1.00, 0.00, -0.00, -1.00, 322.1, 118.0)">o</text><text xml:space="preserve" font-family="Helvetica-Light" font-size="36.0" fill="#FEFFFF" transform="matrix(1.00, 0.00, -0.00, -1.00, 342.1, 118.0)">r</text><text xml:space="preserve" font-family="Helvetica-Light" font-size="36.0" fill="#FEFFFF" transform="matrix(1.00, 0.00, -0.00, -1.00, 354.1, 118.0)">r</text><text xml:space="preserve" font-family="Helvetica-Light" font-size="36.0" fill="#FEFFFF" transform="matrix(1.00, 0.00, -0.00, -1.00, 365.4, 118.0)">e</text><text xml:space="preserve" font-family="Helvetica-Light" font-size="36.0" fill="#FEFFFF" transform="matrix(1.00, 0.00, -0.00, -1.00, 385.4, 118.0)">l</text><text xml:space="preserve" font-family="Helvetica-Light" font-size="36.0" fill="#FEFFFF" transform="matrix(1.00, 0.00, -0.00, -1.00, 393.4, 118.0)">a</text><text xml:space="preserve" font-family="Helvetica-Light" font-size="36.0" fill="#FEFFFF" transform="matrix(1.00, 0.00, -0.00, -1.00, 413.5, 118.0)">t</text><text xml:space="preserve" font-family="Helvetica-Light" font-size="36.0" fill="#FEFFFF" transform="matrix(1.00, 0.00, -0.00, -1.00, 423.5, 118.0)">i</text><text xml:space="preserve" font-family="Helvetica-Light" font-size="36.0" fill="#FEFFFF" transform="matrix(1.00, 0.00, -0.00, -1.00, 431.5, 118.0)">o</text><text xml:space="preserve" font-family="Helvetica-Light" font-size="36.0" fill="#FEFFFF" transform="matrix(1.00, 0.00, -0.00, -1.00, 451.5, 118.0)">n</text><text xml:space="preserve" font-family="Helvetica-Light" font-size="36.0" fill="#FEFFFF" transform="matrix(1.00, 0.00, -0.00, -1.00, 471.5, 118.0)">s</text><text xml:space="preserve" font-family="Helvetica-Light" font-size="36.0" fill="#FEFFFF" transform="matrix(1.00, 0.00, -0.00, -1.00, 489.5, 118.0)"> </text><text xml:space="preserve" font-family="Helvetica-Light" font-size="27.0" fill="#FEFFFF" transform="matrix(1.00, 0.00, -0.00, -1.00, 52.8, 78.6)">•</text><text xml:space="preserve" font-family="Helvetica-Light" font-size="36.0" fill="#FEFFFF" transform="matrix(1.00, 0.00, -0.00, -1.00, 86.0, 75.0)">w</text><text xml:space="preserve" font-family="Helvetica-Light" font-size="36.0" fill="#FEFFFF" transform="matrix(1.00, 0.00, -0.00, -1.00, 112.0, 75.0)">e</text><text xml:space="preserve" font-family="Helvetica-Light" font-size="36.0" fill="#FEFFFF" transform="matrix(1.00, 0.00, -0.00, -1.00, 132.0, 75.0)">e</text><text xml:space="preserve" font-family="Helvetica-Light" font-size="36.0" fill="#FEFFFF" transform="matrix(1.00, 0.00, -0.00, -1.00, 152.0, 75.0)">k</text><text xml:space="preserve" font-family="Helvetica-Light" font-size="36.0" fill="#FEFFFF" transform="matrix(1.00, 0.00, -0.00, -1.00, 170.0, 75.0)"> </text><text xml:space="preserve" font-family="Helvetica-Light" font-size="36.0" fill="#FEFFFF" transform="matrix(1.00, 0.00, -0.00, -1.00, 180.0, 75.0)">i</text><text xml:space="preserve" font-family="Helvetica-Light" font-size="36.0" fill="#FEFFFF" transform="matrix(1.00, 0.00, -0.00, -1.00, 188.0, 75.0)">n</text><text xml:space="preserve" font-family="Helvetica-Light" font-size="36.0" fill="#FEFFFF" transform="matrix(1.00, 0.00, -0.00, -1.00, 208.0, 75.0)">p</text><text xml:space="preserve" font-family="Helvetica-Light" font-size="36.0" fill="#FEFFFF" transform="matrix(1.00, 0.00, -0.00, -1.00, 230.0, 75.0)">u</text><text xml:space="preserve" font-family="Helvetica-Light" font-size="36.0" fill="#FEFFFF" transform="matrix(1.00, 0.00, -0.00, -1.00, 250.1, 75.0)">t</text><text xml:space="preserve" font-family="Helvetica-Light" font-size="36.0" fill="#FEFFFF" transform="matrix(1.00, 0.00, -0.00, -1.00, 260.1, 75.0)"> </text><text xml:space="preserve" font-family="Helvetica-Light" font-size="36.0" fill="#FEFFFF" transform="matrix(1.00, 0.00, -0.00, -1.00, 270.1, 75.0)">d</text><text xml:space="preserve" font-family="Helvetica-Light" font-size="36.0" fill="#FEFFFF" transform="matrix(1.00, 0.00, -0.00, -1.00, 292.1, 75.0)">e</text><text xml:space="preserve" font-family="Helvetica-Light" font-size="36.0" fill="#FEFFFF" transform="matrix(1.00, 0.00, -0.00, -1.00, 312.1, 75.0)">p</text><text xml:space="preserve" font-family="Helvetica-Light" font-size="36.0" fill="#FEFFFF" transform="matrix(1.00, 0.00, -0.00, -1.00, 334.1, 75.0)">e</text><text xml:space="preserve" font-family="Helvetica-Light" font-size="36.0" fill="#FEFFFF" transform="matrix(1.00, 0.00, -0.00, -1.00, 354.1, 75.0)">n</text><text xml:space="preserve" font-family="Helvetica-Light" font-size="36.0" fill="#FEFFFF" transform="matrix(1.00, 0.00, -0.00, -1.00, 374.1, 75.0)">d</text><text xml:space="preserve" font-family="Helvetica-Light" font-size="36.0" fill="#FEFFFF" transform="matrix(1.00, 0.00, -0.00, -1.00, 396.1, 75.0)">e</text><text xml:space="preserve" font-family="Helvetica-Light" font-size="36.0" fill="#FEFFFF" transform="matrix(1.00, 0.00, -0.00, -1.00, 416.1, 75.0)">n</text><text xml:space="preserve" font-family="Helvetica-Light" font-size="36.0" fill="#FEFFFF" transform="matrix(1.00, 0.00, -0.00, -1.00, 436.1, 75.0)">c</text><text xml:space="preserve" font-family="Helvetica-Light" font-size="36.0" fill="#FEFFFF" transform="matrix(1.00, 0.00, -0.00, -1.00, 456.2, 75.0)">e</text><text xml:space="preserve" font-family="Helvetica-Bold" font-weight="bold" font-size="36.0" fill="#FEFFFF" transform="matrix(1.00, 0.00, -0.00, -1.00, 44.0, 173.0)">L</text><text xml:space="preserve" font-family="Helvetica-Bold" font-weight="bold" font-size="36.0" fill="#FEFFFF" transform="matrix(1.00, 0.00, -0.00, -1.00, 66.0, 173.0)">i</text><text xml:space="preserve" font-family="Helvetica-Bold" font-weight="bold" font-size="36.0" fill="#FEFFFF" transform="matrix(1.00, 0.00, -0.00, -1.00, 76.0, 173.0)">m</text><text xml:space="preserve" font-family="Helvetica-Bold" font-weight="bold" font-size="36.0" fill="#FEFFFF" transform="matrix(1.00, 0.00, -0.00, -1.00, 108.0, 173.0)">i</text><text xml:space="preserve" font-family="Helvetica-Bold" font-weight="bold" font-size="36.0" fill="#FEFFFF" transform="matrix(1.00, 0.00, -0.00, -1.00, 118.0, 173.0)">t</text><text xml:space="preserve" font-family="Helvetica-Bold" font-weight="bold" font-size="36.0" fill="#FEFFFF" transform="matrix(1.00, 0.00, -0.00, -1.00, 130.0, 173.0)">a</text><text xml:space="preserve" font-family="Helvetica-Bold" font-weight="bold" font-size="36.0" fill="#FEFFFF" transform="matrix(1.00, 0.00, -0.00, -1.00, 150.0, 173.0)">t</text><text xml:space="preserve" font-family="Helvetica-Bold" font-weight="bold" font-size="36.0" fill="#FEFFFF" transform="matrix(1.00, 0.00, -0.00, -1.00, 162.0, 173.0)">i</text><text xml:space="preserve" font-family="Helvetica-Bold" font-weight="bold" font-size="36.0" fill="#FEFFFF" transform="matrix(1.00, 0.00, -0.00, -1.00, 172.0, 173.0)">o</text><text xml:space="preserve" font-family="Helvetica-Bold" font-weight="bold" font-size="36.0" fill="#FEFFFF" transform="matrix(1.00, 0.00, -0.00, -1.00, 194.0, 173.0)">n</text><text xml:space="preserve" font-family="Helvetica-Bold" font-weight="bold" font-size="36.0" fill="#FEFFFF" transform="matrix(1.00, 0.00, -0.00, -1.00, 216.0, 173.0)">s</text><text xml:space="preserve" font-family="Helvetica-Bold" font-weight="bold" font-size="36.0" fill="#FEFFFF" transform="matrix(1.00, 0.00, -0.00, -1.00, 236.0, 173.0)">:</text><g><clipPath id="clip-1512"><path d="M 655.0 112.0 L 961.0 112.0 L 961.0 187.0 L 655.0 187.0 Z M 655.0 112.0 "></path></clipPath><g clip-path="url(#clip-1512)"><text xml:space="preserve" font-family="Helvetica" font-size="10.0" fill="#FFFFFF" transform="matrix(3.00, 0.00, -0.00, -3.00, 656.3, 162.4)">d</text><text xml:space="preserve" font-family="Helvetica" font-size="10.0" fill="#FFFFFF" transform="matrix(3.00, 0.00, -0.00, -3.00, 671.9, 162.4)">(</text><text xml:space="preserve" font-family="Helvetica" font-size="10.0" fill="#FFFFFF" transform="matrix(3.00, 0.00, -0.00, -3.00, 683.5, 162.4)">w</text><text xml:space="preserve" font-family="Helvetica" font-size="10.0" fill="#FFFFFF" transform="matrix(3.00, 0.00, -0.00, -3.00, 712.4, 162.4)">·</text><text xml:space="preserve" font-family="Helvetica" font-size="10.0" fill="#FFFFFF" transform="matrix(3.00, 0.00, -0.00, -3.00, 727.3, 162.4)">x</text><text xml:space="preserve" font-family="Helvetica" font-size="7.0" fill="#FFFFFF" transform="matrix(3.00, 0.00, -0.00, -3.00, 744.4, 157.9)">i</text><text xml:space="preserve" font-family="Helvetica" font-size="7.0" fill="#FFFFFF" transform="matrix(3.00, 0.00, -0.00, -3.00, 749.0, 157.9)">j</text><text xml:space="preserve" font-family="Helvetica" font-size="10.0" fill="#FFFFFF" transform="matrix(3.00, 0.00, -0.00, -3.00, 765.4, 162.4)">)</text><path d="M 0.0 0.0 L 40.2 0.0 " fill="none" stroke="#FFFFFF" stroke-width="0.40" stroke-miterlimit="0.00" transform="matrix(3.00, 0.00, 0.00, 3.00, 656.3, 149.7)"></path><text xml:space="preserve" font-family="Helvetica" font-size="10.0" fill="#FFFFFF" transform="matrix(3.00, 0.00, -0.00, -3.00, 689.8, 121.7)">d</text><text xml:space="preserve" font-family="Helvetica" font-size="10.0" fill="#FFFFFF" transform="matrix(3.00, 0.00, -0.00, -3.00, 706.5, 121.7)">x</text><text xml:space="preserve" font-family="Helvetica" font-size="7.0" fill="#FFFFFF" transform="matrix(3.00, 0.00, -0.00, -3.00, 722.5, 117.2)">i</text><text xml:space="preserve" font-family="Helvetica" font-size="7.0" fill="#FFFFFF" transform="matrix(3.00, 0.00, -0.00, -3.00, 727.1, 117.2)">j</text><text xml:space="preserve" font-family="Helvetica" font-size="10.0" fill="#FFFFFF" transform="matrix(3.00, 0.00, -0.00, -3.00, 788.9, 142.2)">=</text><text xml:space="preserve" font-family="Helvetica" font-size="10.0" fill="#FFFFFF" transform="matrix(3.00, 0.00, -0.00, -3.00, 820.5, 142.2)">w</text><text xml:space="preserve" font-family="Helvetica" font-size="10.0" fill="#FFFFFF" transform="matrix(3.00, 0.00, -0.00, -3.00, 851.0, 142.2)">=</text><text xml:space="preserve" font-family="Helvetica" font-size="10.0" fill="#FFFFFF" transform="matrix(3.00, 0.00, -0.00, -3.00, 882.5, 142.2)">c</text><text xml:space="preserve" font-family="Helvetica" font-size="10.0" fill="#FFFFFF" transform="matrix(3.00, 0.00, -0.00, -3.00, 897.5, 142.2)">o</text><text xml:space="preserve" font-family="Helvetica" font-size="10.0" fill="#FFFFFF" transform="matrix(3.00, 0.00, -0.00, -3.00, 914.2, 142.2)">n</text><text xml:space="preserve" font-family="Helvetica" font-size="10.0" fill="#FFFFFF" transform="matrix(3.00, 0.00, -0.00, -3.00, 930.8, 142.2)">s</text><text xml:space="preserve" font-family="Helvetica" font-size="10.0" fill="#FFFFFF" transform="matrix(3.00, 0.00, -0.00, -3.00, 945.7, 142.2)">t</text><text xml:space="preserve" font-family="Helvetica" font-size="10.0" fill="#FFFFFF" transform="matrix(3.00, 0.00, -0.00, -3.00, 954.0, 142.2)">.</text></g></g><text xml:space="preserve" font-family="Helvetica-Light" font-size="28.0" fill="#FEFFFF" transform="matrix(1.00, 0.00, -0.00, -1.00, 674.0, 73.0)">(</text><text xml:space="preserve" font-family="Helvetica-Light" font-size="28.0" fill="#FEFFFF" transform="matrix(1.00, 0.00, -0.00, -1.00, 683.3, 73.0)">f</text><text xml:space="preserve" font-family="Helvetica-Light" font-size="28.0" fill="#FEFFFF" transform="matrix(1.00, 0.00, -0.00, -1.00, 691.1, 73.0)">o</text><text xml:space="preserve" font-family="Helvetica-Light" font-size="28.0" fill="#FEFFFF" transform="matrix(1.00, 0.00, -0.00, -1.00, 706.7, 73.0)">r</text><text xml:space="preserve" font-family="Helvetica-Light" font-size="28.0" fill="#FEFFFF" transform="matrix(1.00, 0.00, -0.00, -1.00, 716.0, 73.0)"> </text><text xml:space="preserve" font-family="Helvetica-Light" font-size="28.0" fill="#FEFFFF" transform="matrix(1.00, 0.00, -0.00, -1.00, 723.8, 73.0)">a</text><text xml:space="preserve" font-family="Helvetica-Light" font-size="28.0" fill="#FEFFFF" transform="matrix(1.00, 0.00, -0.00, -1.00, 739.4, 73.0)"> </text><text xml:space="preserve" font-family="Helvetica-Light" font-size="28.0" fill="#FEFFFF" transform="matrix(1.00, 0.00, -0.00, -1.00, 747.1, 73.0)">l</text><text xml:space="preserve" font-family="Helvetica-Light" font-size="28.0" fill="#FEFFFF" transform="matrix(1.00, 0.00, -0.00, -1.00, 753.4, 73.0)">i</text><text xml:space="preserve" font-family="Helvetica-Light" font-size="28.0" fill="#FEFFFF" transform="matrix(1.00, 0.00, -0.00, -1.00, 759.6, 73.0)">n</text><text xml:space="preserve" font-family="Helvetica-Light" font-size="28.0" fill="#FEFFFF" transform="matrix(1.00, 0.00, -0.00, -1.00, 775.1, 73.0)">e</text><text xml:space="preserve" font-family="Helvetica-Light" font-size="28.0" fill="#FEFFFF" transform="matrix(1.00, 0.00, -0.00, -1.00, 790.7, 73.0)">a</text><text xml:space="preserve" font-family="Helvetica-Light" font-size="28.0" fill="#FEFFFF" transform="matrix(1.00, 0.00, -0.00, -1.00, 806.3, 73.0)">r</text><text xml:space="preserve" font-family="Helvetica-Light" font-size="28.0" fill="#FEFFFF" transform="matrix(1.00, 0.00, -0.00, -1.00, 815.6, 73.0)"> </text><text xml:space="preserve" font-family="Helvetica-Light" font-size="28.0" fill="#FEFFFF" transform="matrix(1.00, 0.00, -0.00, -1.00, 823.4, 73.0)">c</text><text xml:space="preserve" font-family="Helvetica-Light" font-size="28.0" fill="#FEFFFF" transform="matrix(1.00, 0.00, -0.00, -1.00, 838.9, 73.0)">l</text><text xml:space="preserve" font-family="Helvetica-Light" font-size="28.0" fill="#FEFFFF" transform="matrix(1.00, 0.00, -0.00, -1.00, 845.2, 73.0)">a</text><text xml:space="preserve" font-family="Helvetica-Light" font-size="28.0" fill="#FEFFFF" transform="matrix(1.00, 0.00, -0.00, -1.00, 860.7, 73.0)">s</text><text xml:space="preserve" font-family="Helvetica-Light" font-size="28.0" fill="#FEFFFF" transform="matrix(1.00, 0.00, -0.00, -1.00, 874.7, 73.0)">s</text><text xml:space="preserve" font-family="Helvetica-Light" font-size="28.0" fill="#FEFFFF" transform="matrix(1.00, 0.00, -0.00, -1.00, 888.7, 73.0)">i</text><text xml:space="preserve" font-family="Helvetica-Light" font-size="28.0" fill="#FEFFFF" transform="matrix(1.00, 0.00, -0.00, -1.00, 894.9, 73.0)">ﬁ</text><text xml:space="preserve" font-family="Helvetica-Light" font-size="28.0" fill="#FEFFFF" transform="matrix(1.00, 0.00, -0.00, -1.00, 908.9, 73.0)">e</text><text xml:space="preserve" font-family="Helvetica-Light" font-size="28.0" fill="#FEFFFF" transform="matrix(1.00, 0.00, -0.00, -1.00, 924.5, 73.0)">r</text><text xml:space="preserve" font-family="Helvetica-Light" font-size="28.0" fill="#FEFFFF" transform="matrix(1.00, 0.00, -0.00, -1.00, 933.8, 73.0)">)</text><path d="M 0.0 0.0 L 368.8 0.0 L 368.8 144.4 L 0.0 144.4 Z M 0.0 0.0 " fill="none" stroke="#FEFFFE" stroke-width="1.00" stroke-dasharray="1.0, 1.0" transform="matrix(1.00, 0.00, 0.00, -1.00, 624.0, 199.4)"></path><path d="M 0.0 0.0 L 135.8 0.0 " fill="none" stroke="#FEFFFE" stroke-width="1.00" stroke-dasharray="1.0, 1.0" transform="matrix(0.95, 0.30, 0.30, -0.95, 494.5, 85.0)"></path><g><clipPath id="clip-1513"><path d="M 759.0 478.0 L 858.0 478.0 L 858.0 553.0 L 759.0 553.0 Z M 759.0 478.0 "></path></clipPath><g clip-path="url(#clip-1513)"><text xml:space="preserve" font-family="Helvetica" font-size="10.0" fill="#FFFFFF" transform="matrix(3.00, 0.00, -0.00, -3.00, 759.3, 528.4)">d</text><text xml:space="preserve" font-family="Helvetica" font-size="10.0" fill="#FFFFFF" transform="matrix(3.00, 0.00, -0.00, -3.00, 775.9, 528.4)">p</text><text xml:space="preserve" font-family="Helvetica" font-size="10.0" fill="#FFFFFF" transform="matrix(3.00, 0.00, -0.00, -3.00, 789.9, 528.4)">(</text><text xml:space="preserve" font-family="Helvetica" font-size="10.0" fill="#FFFFFF" transform="matrix(3.00, 0.00, -0.00, -3.00, 801.5, 528.4)">d</text><text xml:space="preserve" font-family="Helvetica" font-size="10.0" fill="#FFFFFF" transform="matrix(3.00, 0.00, -0.00, -3.00, 818.1, 528.4)">o</text><text xml:space="preserve" font-family="Helvetica" font-size="10.0" fill="#FFFFFF" transform="matrix(3.00, 0.00, -0.00, -3.00, 834.8, 528.4)">g</text><text xml:space="preserve" font-family="Helvetica" font-size="10.0" fill="#FFFFFF" transform="matrix(3.00, 0.00, -0.00, -3.00, 846.9, 528.4)">)</text><path d="M 0.0 0.0 L 33.1 0.0 " fill="none" stroke="#FFFFFF" stroke-width="0.40" stroke-miterlimit="0.00" transform="matrix(3.00, 0.00, 0.00, 3.00, 759.3, 515.7)"></path><text xml:space="preserve" font-family="Helvetica" font-size="10.0" fill="#FFFFFF" transform="matrix(3.00, 0.00, -0.00, -3.00, 782.0, 487.7)">d</text><text xml:space="preserve" font-family="Helvetica" font-size="10.0" fill="#FFFFFF" transform="matrix(3.00, 0.00, -0.00, -3.00, 798.7, 487.7)">x</text><text xml:space="preserve" font-family="Helvetica" font-size="7.0" fill="#FFFFFF" transform="matrix(3.00, 0.00, -0.00, -3.00, 814.7, 483.2)">i</text><text xml:space="preserve" font-family="Helvetica" font-size="7.0" fill="#FFFFFF" transform="matrix(3.00, 0.00, -0.00, -3.00, 819.3, 483.2)">j</text></g></g><text xml:space="preserve" font-family="Helvetica-Light" font-size="62.4" fill="#FEFFFF" transform="matrix(1.00, 0.00, -0.00, -1.00, 84.0, 657.0)">F</text><text xml:space="preserve" font-family="Helvetica-Light" font-size="62.4" fill="#FEFFFF" transform="matrix(1.00, 0.00, -0.00, -1.00, 118.7, 657.0)">i</text><text xml:space="preserve" font-family="Helvetica-Light" font-size="62.4" fill="#FEFFFF" transform="matrix(1.00, 0.00, -0.00, -1.00, 132.5, 657.0)">r</text><text xml:space="preserve" font-family="Helvetica-Light" font-size="62.4" fill="#FEFFFF" transform="matrix(1.00, 0.00, -0.00, -1.00, 153.3, 657.0)">s</text><text xml:space="preserve" font-family="Helvetica-Light" font-size="62.4" fill="#FEFFFF" transform="matrix(1.00, 0.00, -0.00, -1.00, 184.5, 657.0)">t</text><text xml:space="preserve" font-family="Helvetica-Light" font-size="62.4" fill="#FEFFFF" transform="matrix(1.00, 0.00, -0.00, -1.00, 201.9, 657.0)"> </text><text xml:space="preserve" font-family="Helvetica-Light" font-size="62.4" fill="#FEFFFF" transform="matrix(1.00, 0.00, -0.00, -1.00, 219.2, 657.0)">A</text><text xml:space="preserve" font-family="Helvetica-Light" font-size="62.4" fill="#FEFFFF" transform="matrix(1.00, 0.00, -0.00, -1.00, 260.8, 657.0)">p</text><text xml:space="preserve" font-family="Helvetica-Light" font-size="62.4" fill="#FEFFFF" transform="matrix(1.00, 0.00, -0.00, -1.00, 299.0, 657.0)">p</text><text xml:space="preserve" font-family="Helvetica-Light" font-size="62.4" fill="#FEFFFF" transform="matrix(1.00, 0.00, -0.00, -1.00, 337.1, 657.0)">r</text><text xml:space="preserve" font-family="Helvetica-Light" font-size="62.4" fill="#FEFFFF" transform="matrix(1.00, 0.00, -0.00, -1.00, 356.8, 657.0)">o</text><text xml:space="preserve" font-family="Helvetica-Light" font-size="62.4" fill="#FEFFFF" transform="matrix(1.00, 0.00, -0.00, -1.00, 391.4, 657.0)">a</text><text xml:space="preserve" font-family="Helvetica-Light" font-size="62.4" fill="#FEFFFF" transform="matrix(1.00, 0.00, -0.00, -1.00, 426.1, 657.0)">c</text><text xml:space="preserve" font-family="Helvetica-Light" font-size="62.4" fill="#FEFFFF" transform="matrix(1.00, 0.00, -0.00, -1.00, 460.8, 657.0)">h</text><text xml:space="preserve" font-family="Helvetica-Light" font-size="62.4" fill="#FEFFFF" transform="matrix(1.00, 0.00, -0.00, -1.00, 495.5, 657.0)">:</text><text xml:space="preserve" font-family="Helvetica-Light" font-size="62.4" fill="#FEFFFF" transform="matrix(1.00, 0.00, -0.00, -1.00, 512.9, 657.0)"> </text><text xml:space="preserve" font-family="Helvetica-Light" font-size="62.4" fill="#FEFFFF" transform="matrix(1.00, 0.00, -0.00, -1.00, 530.2, 657.0)">S</text><text xml:space="preserve" font-family="Helvetica-Light" font-size="62.4" fill="#FEFFFF" transform="matrix(1.00, 0.00, -0.00, -1.00, 568.3, 657.0)">a</text><text xml:space="preserve" font-family="Helvetica-Light" font-size="62.4" fill="#FEFFFF" transform="matrix(1.00, 0.00, -0.00, -1.00, 603.0, 657.0)">l</text><text xml:space="preserve" font-family="Helvetica-Light" font-size="62.4" fill="#FEFFFF" transform="matrix(1.00, 0.00, -0.00, -1.00, 616.9, 657.0)">i</text><text xml:space="preserve" font-family="Helvetica-Light" font-size="62.4" fill="#FEFFFF" transform="matrix(1.00, 0.00, -0.00, -1.00, 630.7, 657.0)">e</text><text xml:space="preserve" font-family="Helvetica-Light" font-size="62.4" fill="#FEFFFF" transform="matrix(1.00, 0.00, -0.00, -1.00, 665.4, 657.0)">n</text><text xml:space="preserve" font-family="Helvetica-Light" font-size="62.4" fill="#FEFFFF" transform="matrix(1.00, 0.00, -0.00, -1.00, 700.1, 657.0)">c</text><text xml:space="preserve" font-family="Helvetica-Light" font-size="62.4" fill="#FEFFFF" transform="matrix(1.00, 0.00, -0.00, -1.00, 734.8, 657.0)">y</text><text xml:space="preserve" font-family="Helvetica-Light" font-size="62.4" fill="#FEFFFF" transform="matrix(1.00, 0.00, -0.00, -1.00, 766.0, 657.0)"> </text><text xml:space="preserve" font-family="Helvetica-Light" font-size="62.4" fill="#FEFFFF" transform="matrix(1.00, 0.00, -0.00, -1.00, 783.4, 657.0)">M</text><text xml:space="preserve" font-family="Helvetica-Light" font-size="62.4" fill="#FEFFFF" transform="matrix(1.00, 0.00, -0.00, -1.00, 835.4, 657.0)">a</text><text xml:space="preserve" font-family="Helvetica-Light" font-size="62.4" fill="#FEFFFF" transform="matrix(1.00, 0.00, -0.00, -1.00, 870.1, 657.0)">p</text><text xml:space="preserve" font-family="Helvetica-Light" font-size="62.4" fill="#FEFFFF" transform="matrix(1.00, 0.00, -0.00, -1.00, 908.2, 657.0)">s</text><text xml:space="preserve" font-family="Helvetica-Light" font-size="62.4" fill="#FEFFFF" transform="matrix(1.00, 0.00, -0.00, -1.00, 939.4, 657.0)"> </text></g></svg>