<?xml version="1.0" encoding="UTF-8" standalone="no"?><svg xmlns="http://www.w3.org/2000/svg" xmlns:xlink="http://www.w3.org/1999/xlink" clip-rule="evenodd" stroke-miterlimit="4.00" viewBox="0 0 1024 768"><desc>SVG generated by Keynote</desc><defs></defs><g transform="matrix(1.00, 0.00, -0.00, -1.00, 0.0, 768.0)"><path d="M 0.0 768.0 L 1024.0 768.0 L 1024.0 0.0 L 0.0 0.0 Z M 0.0 768.0 " fill="#000000"></path><text xml:space="preserve" font-family="Helvetica-Light" font-size="69.0" fill="#FEFFFF" transform="matrix(1.00, 0.00, -0.00, -1.00, 193.0, 670.0)">N</text><text xml:space="preserve" font-family="Helvetica-Light" font-size="69.0" fill="#FEFFFF" transform="matrix(1.00, 0.00, -0.00, -1.00, 242.8, 670.0)">e</text><text xml:space="preserve" font-family="Helvetica-Light" font-size="69.0" fill="#FEFFFF" transform="matrix(1.00, 0.00, -0.00, -1.00, 281.2, 670.0)">u</text><text xml:space="preserve" font-family="Helvetica-Light" font-size="69.0" fill="#FEFFFF" transform="matrix(1.00, 0.00, -0.00, -1.00, 319.5, 670.0)">r</text><text xml:space="preserve" font-family="Helvetica-Light" font-size="69.0" fill="#FEFFFF" transform="matrix(1.00, 0.00, -0.00, -1.00, 342.5, 670.0)">a</text><text xml:space="preserve" font-family="Helvetica-Light" font-size="69.0" fill="#FEFFFF" transform="matrix(1.00, 0.00, -0.00, -1.00, 380.9, 670.0)">l</text><text xml:space="preserve" font-family="Helvetica-Light" font-size="69.0" fill="#FEFFFF" transform="matrix(1.00, 0.00, -0.00, -1.00, 396.2, 670.0)"> </text><text xml:space="preserve" font-family="Helvetica-Light" font-size="69.0" fill="#FEFFFF" transform="matrix(1.00, 0.00, -0.00, -1.00, 415.4, 670.0)">S</text><text xml:space="preserve" font-family="Helvetica-Light" font-size="69.0" fill="#FEFFFF" transform="matrix(1.00, 0.00, -0.00, -1.00, 457.5, 670.0)">t</text><text xml:space="preserve" font-family="Helvetica-Light" font-size="69.0" fill="#FEFFFF" transform="matrix(1.00, 0.00, -0.00, -1.00, 476.7, 670.0)">y</text><text xml:space="preserve" font-family="Helvetica-Light" font-size="69.0" fill="#FEFFFF" transform="matrix(1.00, 0.00, -0.00, -1.00, 511.2, 670.0)">l</text><text xml:space="preserve" font-family="Helvetica-Light" font-size="69.0" fill="#FEFFFF" transform="matrix(1.00, 0.00, -0.00, -1.00, 526.5, 670.0)">e</text><text xml:space="preserve" font-family="Helvetica-Light" font-size="69.0" fill="#FEFFFF" transform="matrix(1.00, 0.00, -0.00, -1.00, 564.9, 670.0)"> </text><text xml:space="preserve" font-family="Helvetica-Light" font-size="69.0" fill="#FEFFFF" transform="matrix(1.00, 0.00, -0.00, -1.00, 584.1, 670.0)">T</text><text xml:space="preserve" font-family="Helvetica-Light" font-size="69.0" fill="#FEFFFF" transform="matrix(1.00, 0.00, -0.00, -1.00, 616.1, 670.0)">r</text><text xml:space="preserve" font-family="Helvetica-Light" font-size="69.0" fill="#FEFFFF" transform="matrix(1.00, 0.00, -0.00, -1.00, 639.1, 670.0)">a</text><text xml:space="preserve" font-family="Helvetica-Light" font-size="69.0" fill="#FEFFFF" transform="matrix(1.00, 0.00, -0.00, -1.00, 677.4, 670.0)">n</text><text xml:space="preserve" font-family="Helvetica-Light" font-size="69.0" fill="#FEFFFF" transform="matrix(1.00, 0.00, -0.00, -1.00, 715.8, 670.0)">s</text><text xml:space="preserve" font-family="Helvetica-Light" font-size="69.0" fill="#FEFFFF" transform="matrix(1.00, 0.00, -0.00, -1.00, 750.3, 670.0)">f</text><text xml:space="preserve" font-family="Helvetica-Light" font-size="69.0" fill="#FEFFFF" transform="matrix(1.00, 0.00, -0.00, -1.00, 769.5, 670.0)">e</text><text xml:space="preserve" font-family="Helvetica-Light" font-size="69.0" fill="#FEFFFF" transform="matrix(1.00, 0.00, -0.00, -1.00, 807.9, 670.0)">r</text><path d="M 0.0 0.0 L 446.1 0.0 L 446.1 52.0 L 0.0 52.0 Z M 0.0 0.0 " fill="none" stroke="#FEFFFE" stroke-width="1.00" stroke-dasharray="1.0, 1.0" transform="matrix(1.00, 0.00, 0.00, -1.00, 66.0, 575.5)"></path><g><clipPath id="clip-1584"><path d="M 61.5 519.0 L 516.6 519.0 L 516.6 580.0 L 61.5 580.0 Z M 61.5 519.0 "></path></clipPath><g clip-path="url(#clip-1584)"><text xml:space="preserve" font-family="Helvetica-Light" font-size="36.0" fill="#FEFFFF" transform="matrix(1.00, 0.00, -0.00, -1.00, 70.0, 536.0)">1</text><text xml:space="preserve" font-family="Helvetica-Light" font-size="36.0" fill="#FEFFFF" transform="matrix(1.00, 0.00, -0.00, -1.00, 90.0, 536.0)">.</text><text xml:space="preserve" font-family="Helvetica-Light" font-size="36.0" fill="#FEFFFF" transform="matrix(1.00, 0.00, -0.00, -1.00, 100.0, 536.0)"> </text><text xml:space="preserve" font-family="Helvetica-Light" font-size="36.0" fill="#FEFFFF" transform="matrix(1.00, 0.00, -0.00, -1.00, 110.0, 536.0)">s</text><text xml:space="preserve" font-family="Helvetica-Light" font-size="36.0" fill="#FEFFFF" transform="matrix(1.00, 0.00, -0.00, -1.00, 128.0, 536.0)">a</text><text xml:space="preserve" font-family="Helvetica-Light" font-size="36.0" fill="#FEFFFF" transform="matrix(1.00, 0.00, -0.00, -1.00, 148.0, 536.0)">v</text><text xml:space="preserve" font-family="Helvetica-Light" font-size="36.0" fill="#FEFFFF" transform="matrix(1.00, 0.00, -0.00, -1.00, 166.0, 536.0)">e</text><text xml:space="preserve" font-family="Helvetica-Light" font-size="36.0" fill="#FEFFFF" transform="matrix(1.00, 0.00, -0.00, -1.00, 186.1, 536.0)"> </text><text xml:space="preserve" font-family="Helvetica-Bold" font-weight="bold" font-size="36.0" fill="#FEFFFF" transform="matrix(1.00, 0.00, -0.00, -1.00, 196.1, 536.0)">c</text><text xml:space="preserve" font-family="Helvetica-Bold" font-weight="bold" font-size="36.0" fill="#FEFFFF" transform="matrix(1.00, 0.00, -0.00, -1.00, 216.1, 536.0)">o</text><text xml:space="preserve" font-family="Helvetica-Bold" font-weight="bold" font-size="36.0" fill="#FEFFFF" transform="matrix(1.00, 0.00, -0.00, -1.00, 238.1, 536.0)">n</text><text xml:space="preserve" font-family="Helvetica-Bold" font-weight="bold" font-size="36.0" fill="#FEFFFF" transform="matrix(1.00, 0.00, -0.00, -1.00, 260.1, 536.0)">t</text><text xml:space="preserve" font-family="Helvetica-Bold" font-weight="bold" font-size="36.0" fill="#FEFFFF" transform="matrix(1.00, 0.00, -0.00, -1.00, 272.1, 536.0)">e</text><text xml:space="preserve" font-family="Helvetica-Bold" font-weight="bold" font-size="36.0" fill="#FEFFFF" transform="matrix(1.00, 0.00, -0.00, -1.00, 292.1, 536.0)">n</text><text xml:space="preserve" font-family="Helvetica-Bold" font-weight="bold" font-size="36.0" fill="#FEFFFF" transform="matrix(1.00, 0.00, -0.00, -1.00, 314.1, 536.0)">t</text><text xml:space="preserve" font-family="Helvetica-Light" font-size="36.0" fill="#FEFFFF" transform="matrix(1.00, 0.00, -0.00, -1.00, 326.1, 536.0)"> </text><text xml:space="preserve" font-family="Helvetica-Light" font-size="36.0" fill="#FEFFFF" transform="matrix(1.00, 0.00, -0.00, -1.00, 336.1, 536.0)">o</text><text xml:space="preserve" font-family="Helvetica-Light" font-size="36.0" fill="#FEFFFF" transform="matrix(1.00, 0.00, -0.00, -1.00, 356.1, 536.0)">f</text><text xml:space="preserve" font-family="Helvetica-Light" font-size="36.0" fill="#FEFFFF" transform="matrix(1.00, 0.00, -0.00, -1.00, 366.1, 536.0)"> </text><text xml:space="preserve" font-family="Helvetica-Light" font-size="36.0" fill="#FEFFFF" transform="matrix(1.00, 0.00, -0.00, -1.00, 376.1, 536.0)">i</text><text xml:space="preserve" font-family="Helvetica-Light" font-size="36.0" fill="#FEFFFF" transform="matrix(1.00, 0.00, -0.00, -1.00, 384.1, 536.0)">m</text><text xml:space="preserve" font-family="Helvetica-Light" font-size="36.0" fill="#FEFFFF" transform="matrix(1.00, 0.00, -0.00, -1.00, 414.1, 536.0)">a</text><text xml:space="preserve" font-family="Helvetica-Light" font-size="36.0" fill="#FEFFFF" transform="matrix(1.00, 0.00, -0.00, -1.00, 434.1, 536.0)">g</text><text xml:space="preserve" font-family="Helvetica-Light" font-size="36.0" fill="#FEFFFF" transform="matrix(1.00, 0.00, -0.00, -1.00, 456.1, 536.0)">e</text><text xml:space="preserve" font-family="Helvetica-Light" font-size="36.0" fill="#FEFFFF" transform="matrix(1.00, 0.00, -0.00, -1.00, 476.1, 536.0)"> </text><text xml:space="preserve" font-family="Helvetica-Light" font-size="36.0" fill="#FEFFFF" transform="matrix(1.00, 0.00, -0.00, -1.00, 486.1, 536.0)">1</text></g></g><text xml:space="preserve" font-family="Helvetica-Light" font-size="36.0" fill="#FEFFFF" transform="matrix(1.00, 0.00, -0.00, -1.00, 68.0, 449.0)">c</text><text xml:space="preserve" font-family="Helvetica-Light" font-size="36.0" fill="#FEFFFF" transform="matrix(1.00, 0.00, -0.00, -1.00, 88.0, 449.0)">o</text><text xml:space="preserve" font-family="Helvetica-Light" font-size="36.0" fill="#FEFFFF" transform="matrix(1.00, 0.00, -0.00, -1.00, 108.0, 449.0)">n</text><text xml:space="preserve" font-family="Helvetica-Light" font-size="36.0" fill="#FEFFFF" transform="matrix(1.00, 0.00, -0.00, -1.00, 128.0, 449.0)">t</text><text xml:space="preserve" font-family="Helvetica-Light" font-size="36.0" fill="#FEFFFF" transform="matrix(1.00, 0.00, -0.00, -1.00, 138.1, 449.0)">e</text><text xml:space="preserve" font-family="Helvetica-Light" font-size="36.0" fill="#FEFFFF" transform="matrix(1.00, 0.00, -0.00, -1.00, 158.1, 449.0)">n</text><text xml:space="preserve" font-family="Helvetica-Light" font-size="36.0" fill="#FEFFFF" transform="matrix(1.00, 0.00, -0.00, -1.00, 178.1, 449.0)">t</text><text xml:space="preserve" font-family="Helvetica-Light" font-size="36.0" fill="#FEFFFF" transform="matrix(1.00, 0.00, -0.00, -1.00, 188.1, 449.0)"> </text><text xml:space="preserve" font-family="Helvetica-Light" font-size="36.0" fill="#FEFFFF" transform="matrix(1.00, 0.00, -0.00, -1.00, 198.1, 449.0)">=</text><text xml:space="preserve" font-family="Helvetica-Light" font-size="36.0" fill="#FEFFFF" transform="matrix(1.00, 0.00, -0.00, -1.00, 221.9, 449.0)"> </text><text xml:space="preserve" font-family="Helvetica-Light" font-size="36.0" fill="#FEFFFF" transform="matrix(1.00, 0.00, -0.00, -1.00, 231.9, 449.0)">f</text><text xml:space="preserve" font-family="Helvetica-Light" font-size="36.0" fill="#FEFFFF" transform="matrix(1.00, 0.00, -0.00, -1.00, 241.9, 449.0)">e</text><text xml:space="preserve" font-family="Helvetica-Light" font-size="36.0" fill="#FEFFFF" transform="matrix(1.00, 0.00, -0.00, -1.00, 261.9, 449.0)">a</text><text xml:space="preserve" font-family="Helvetica-Light" font-size="36.0" fill="#FEFFFF" transform="matrix(1.00, 0.00, -0.00, -1.00, 281.9, 449.0)">t</text><text xml:space="preserve" font-family="Helvetica-Light" font-size="36.0" fill="#FEFFFF" transform="matrix(1.00, 0.00, -0.00, -1.00, 291.9, 449.0)">u</text><text xml:space="preserve" font-family="Helvetica-Light" font-size="36.0" fill="#FEFFFF" transform="matrix(1.00, 0.00, -0.00, -1.00, 311.9, 449.0)">r</text><text xml:space="preserve" font-family="Helvetica-Light" font-size="36.0" fill="#FEFFFF" transform="matrix(1.00, 0.00, -0.00, -1.00, 323.3, 449.0)">e</text><text xml:space="preserve" font-family="Helvetica-Light" font-size="36.0" fill="#FEFFFF" transform="matrix(1.00, 0.00, -0.00, -1.00, 343.3, 449.0)"> </text><text xml:space="preserve" font-family="Helvetica-Light" font-size="36.0" fill="#FEFFFF" transform="matrix(1.00, 0.00, -0.00, -1.00, 353.3, 449.0)">m</text><text xml:space="preserve" font-family="Helvetica-Light" font-size="36.0" fill="#FEFFFF" transform="matrix(1.00, 0.00, -0.00, -1.00, 383.3, 449.0)">a</text><text xml:space="preserve" font-family="Helvetica-Light" font-size="36.0" fill="#FEFFFF" transform="matrix(1.00, 0.00, -0.00, -1.00, 403.3, 449.0)">p</text><text xml:space="preserve" font-family="Helvetica-Light" font-size="36.0" fill="#FEFFFF" transform="matrix(1.00, 0.00, -0.00, -1.00, 425.3, 449.0)"> </text><text xml:space="preserve" font-family="Helvetica-Light" font-size="36.0" fill="#FEFFFF" transform="matrix(1.00, 0.00, -0.00, -1.00, 435.3, 449.0)">a</text><text xml:space="preserve" font-family="Helvetica-Light" font-size="36.0" fill="#FEFFFF" transform="matrix(1.00, 0.00, -0.00, -1.00, 455.3, 449.0)">c</text><text xml:space="preserve" font-family="Helvetica-Light" font-size="36.0" fill="#FEFFFF" transform="matrix(1.00, 0.00, -0.00, -1.00, 475.3, 449.0)">t</text><text xml:space="preserve" font-family="Helvetica-Light" font-size="36.0" fill="#FEFFFF" transform="matrix(1.00, 0.00, -0.00, -1.00, 485.3, 449.0)">i</text><text xml:space="preserve" font-family="Helvetica-Light" font-size="36.0" fill="#FEFFFF" transform="matrix(1.00, 0.00, -0.00, -1.00, 493.3, 449.0)">v</text><text xml:space="preserve" font-family="Helvetica-Light" font-size="36.0" fill="#FEFFFF" transform="matrix(1.00, 0.00, -0.00, -1.00, 511.3, 449.0)">a</text><text xml:space="preserve" font-family="Helvetica-Light" font-size="36.0" fill="#FEFFFF" transform="matrix(1.00, 0.00, -0.00, -1.00, 531.4, 449.0)">t</text><text xml:space="preserve" font-family="Helvetica-Light" font-size="36.0" fill="#FEFFFF" transform="matrix(1.00, 0.00, -0.00, -1.00, 541.4, 449.0)">i</text><text xml:space="preserve" font-family="Helvetica-Light" font-size="36.0" fill="#FEFFFF" transform="matrix(1.00, 0.00, -0.00, -1.00, 549.4, 449.0)">o</text><text xml:space="preserve" font-family="Helvetica-Light" font-size="36.0" fill="#FEFFFF" transform="matrix(1.00, 0.00, -0.00, -1.00, 569.4, 449.0)">n</text><text xml:space="preserve" font-family="Helvetica-Light" font-size="36.0" fill="#FEFFFF" transform="matrix(1.00, 0.00, -0.00, -1.00, 589.4, 449.0)">s</text><text xml:space="preserve" font-family="Helvetica-Light" font-size="36.0" fill="#FEFFFF" transform="matrix(1.00, 0.00, -0.00, -1.00, 607.4, 449.0)">:</text><g><clipPath id="clip-1585"><path d="M 91.0 403.0 L 325.0 403.0 L 325.0 115.0 L 91.0 115.0 Z M 91.4 403.0 "></path></clipPath><g clip-path="url(#clip-1585)"><image xlink:href="CB273E535AA2839E30D757F13BDD4CFF.png" width="547.00" height="288.00" transform="matrix(1.00, 0.00, -0.00, -1.00, 91.0, 403.0)"></image></g></g><g><clipPath id="clip-1586"><path d="M 536.0 77.0 L 676.0 77.0 L 676.0 113.0 L 536.0 113.0 Z M 536.0 77.0 "></path></clipPath><g clip-path="url(#clip-1586)"><text xml:space="preserve" font-family="Helvetica" font-size="10.0" fill="#FFFFFF" transform="matrix(4.00, 0.00, -0.00, -4.00, 537.2, 90.3)">a</text><text xml:space="preserve" font-family="Helvetica" font-size="7.0" fill="#FFFFFF" transform="matrix(4.00, 0.00, -0.00, -4.00, 558.3, 84.3)">k</text><text xml:space="preserve" font-family="Helvetica" font-size="7.0" fill="#FFFFFF" transform="matrix(4.00, 0.00, -0.00, -4.00, 575.9, 84.3)">=</text><text xml:space="preserve" font-family="Helvetica" font-size="7.0" fill="#FFFFFF" transform="matrix(4.00, 0.00, -0.00, -4.00, 592.2, 84.3)">0</text><text xml:space="preserve" font-family="Helvetica" font-size="7.0" fill="#FFFFFF" transform="matrix(4.00, 0.00, -0.00, -4.00, 616.2, 84.3)">,</text><text xml:space="preserve" font-family="Helvetica" font-size="7.0" fill="#FFFFFF" transform="matrix(4.00, 0.00, -0.00, -4.00, 624.0, 84.3)">.</text><text xml:space="preserve" font-family="Helvetica" font-size="7.0" fill="#FFFFFF" transform="matrix(4.00, 0.00, -0.00, -4.00, 631.8, 84.3)">.</text><text xml:space="preserve" font-family="Helvetica" font-size="7.0" fill="#FFFFFF" transform="matrix(4.00, 0.00, -0.00, -4.00, 639.5, 84.3)">,</text><text xml:space="preserve" font-family="Helvetica" font-size="7.0" fill="#FFFFFF" transform="matrix(4.00, 0.00, -0.00, -4.00, 647.3, 84.3)">n</text></g></g><g opacity="0.68"><g><clipPath id="clip-1587"><path d="M 526.0 73.0 L 686.0 73.0 L 686.0 117.0 L 526.0 117.0 Z M 526.0 73.0 "></path></clipPath><g clip-path="url(#clip-1587)"><path d="M 527.0 115.9 L 684.3 115.9 L 684.3 74.5 L 527.0 74.5 Z M 527.0 115.9 " fill="#0065C0"></path></g></g></g><g><clipPath id="clip-1588"><path d="M 322.0 370.0 L 510.0 370.0 L 510.0 146.0 L 322.0 146.0 Z M 321.8 370.3 "></path></clipPath><g clip-path="url(#clip-1588)"><image xlink:href="../../343E8F0E-6A82-41E2-9311-43B277926D4A/assets/E1F3EF948823D1644F459EF898CD5BDF.png" width="514.00" height="234.00" transform="matrix(0.96, 0.00, -0.00, -0.96, 211.0, 370.0)"></image></g></g><g><clipPath id="clip-1589"><path d="M 507.0 370.0 L 569.0 370.0 L 569.0 146.0 L 507.0 146.0 Z M 507.0 370.2 "></path></clipPath><g clip-path="url(#clip-1589)"><image xlink:href="../../343E8F0E-6A82-41E2-9311-43B277926D4A/assets/E1F3EF948823D1644F459EF898CD5BDF.png" width="514.00" height="234.00" transform="matrix(0.96, 0.00, -0.00, -0.96, 270.0, 370.0)"></image></g></g><path d="M 0.0 0.0 L 52.2 0.0 L 52.2 222.9 L 0.0 222.9 Z M 0.0 0.0 " fill="none" stroke="#1497FC" stroke-width="3.00" transform="matrix(1.00, 0.00, 0.00, -1.00, 525.6, 368.5)"></path><path d="M 563.0 323.6 L 570.9 323.6 L 570.9 310.0 L 563.0 310.0 Z M 563.0 323.6 " fill="#000000"></path><path d="M 566.0 281.3 L 573.9 281.3 L 573.9 267.6 L 566.0 267.6 Z M 566.0 281.3 " fill="#000000"></path><path d="M 567.0 232.9 L 574.9 232.9 L 574.9 219.3 L 567.0 219.3 Z M 567.0 232.9 " fill="#000000"></path><path d="M 566.0 195.6 L 573.9 195.6 L 573.9 182.0 L 566.0 182.0 Z M 566.0 195.6 " fill="#000000"></path></g></svg>