<?xml version="1.0" encoding="UTF-8" standalone="no"?><svg xmlns="http://www.w3.org/2000/svg" xmlns:xlink="http://www.w3.org/1999/xlink" clip-rule="evenodd" stroke-miterlimit="4.00" viewBox="0 0 1024 768"><desc>SVG generated by Keynote</desc><defs></defs><g transform="matrix(1.00, 0.00, -0.00, -1.00, 0.0, 768.0)"><path d="M 0.0 768.0 L 1024.0 768.0 L 1024.0 0.0 L 0.0 0.0 Z M 0.0 768.0 " fill="#000000"></path><text xml:space="preserve" font-family="Helvetica-Light" font-size="77.6" fill="#FEFFFF" transform="matrix(1.00, 0.00, -0.00, -1.00, 82.0, 650.0)">S</text><text xml:space="preserve" font-family="Helvetica-Light" font-size="77.6" fill="#FEFFFF" transform="matrix(1.00, 0.00, -0.00, -1.00, 129.4, 650.0)">a</text><text xml:space="preserve" font-family="Helvetica-Light" font-size="77.6" fill="#FEFFFF" transform="matrix(1.00, 0.00, -0.00, -1.00, 172.6, 650.0)">l</text><text xml:space="preserve" font-family="Helvetica-Light" font-size="77.6" fill="#FEFFFF" transform="matrix(1.00, 0.00, -0.00, -1.00, 189.8, 650.0)">i</text><text xml:space="preserve" font-family="Helvetica-Light" font-size="77.6" fill="#FEFFFF" transform="matrix(1.00, 0.00, -0.00, -1.00, 207.0, 650.0)">e</text><text xml:space="preserve" font-family="Helvetica-Light" font-size="77.6" fill="#FEFFFF" transform="matrix(1.00, 0.00, -0.00, -1.00, 250.2, 650.0)">n</text><text xml:space="preserve" font-family="Helvetica-Light" font-size="77.6" fill="#FEFFFF" transform="matrix(1.00, 0.00, -0.00, -1.00, 293.3, 650.0)">c</text><text xml:space="preserve" font-family="Helvetica-Light" font-size="77.6" fill="#FEFFFF" transform="matrix(1.00, 0.00, -0.00, -1.00, 336.5, 650.0)">y</text><text xml:space="preserve" font-family="Helvetica-Light" font-size="77.6" fill="#FEFFFF" transform="matrix(1.00, 0.00, -0.00, -1.00, 375.3, 650.0)"> </text><text xml:space="preserve" font-family="Helvetica-Light" font-size="77.6" fill="#FEFFFF" transform="matrix(1.00, 0.00, -0.00, -1.00, 396.8, 650.0)">v</text><text xml:space="preserve" font-family="Helvetica-Light" font-size="77.6" fill="#FEFFFF" transform="matrix(1.00, 0.00, -0.00, -1.00, 435.6, 650.0)">i</text><text xml:space="preserve" font-family="Helvetica-Light" font-size="77.6" fill="#FEFFFF" transform="matrix(1.00, 0.00, -0.00, -1.00, 452.9, 650.0)">a</text><text xml:space="preserve" font-family="Helvetica-Light" font-size="77.6" fill="#FEFFFF" transform="matrix(1.00, 0.00, -0.00, -1.00, 496.0, 650.0)"> </text><text xml:space="preserve" font-family="Helvetica-Light" font-size="77.6" fill="#FEFFFF" transform="matrix(1.00, 0.00, -0.00, -1.00, 517.6, 650.0)">P</text><text xml:space="preserve" font-family="Helvetica-Light" font-size="77.6" fill="#FEFFFF" transform="matrix(1.00, 0.00, -0.00, -1.00, 565.0, 650.0)">e</text><text xml:space="preserve" font-family="Helvetica-Light" font-size="77.6" fill="#FEFFFF" transform="matrix(1.00, 0.00, -0.00, -1.00, 608.1, 650.0)">r</text><text xml:space="preserve" font-family="Helvetica-Light" font-size="77.6" fill="#FEFFFF" transform="matrix(1.00, 0.00, -0.00, -1.00, 635.4, 650.0)">t</text><text xml:space="preserve" font-family="Helvetica-Light" font-size="77.6" fill="#FEFFFF" transform="matrix(1.00, 0.00, -0.00, -1.00, 656.9, 650.0)">u</text><text xml:space="preserve" font-family="Helvetica-Light" font-size="77.6" fill="#FEFFFF" transform="matrix(1.00, 0.00, -0.00, -1.00, 700.1, 650.0)">r</text><text xml:space="preserve" font-family="Helvetica-Light" font-size="77.6" fill="#FEFFFF" transform="matrix(1.00, 0.00, -0.00, -1.00, 725.9, 650.0)">b</text><text xml:space="preserve" font-family="Helvetica-Light" font-size="77.6" fill="#FEFFFF" transform="matrix(1.00, 0.00, -0.00, -1.00, 773.3, 650.0)">a</text><text xml:space="preserve" font-family="Helvetica-Light" font-size="77.6" fill="#FEFFFF" transform="matrix(1.00, 0.00, -0.00, -1.00, 816.5, 650.0)">t</text><text xml:space="preserve" font-family="Helvetica-Light" font-size="77.6" fill="#FEFFFF" transform="matrix(1.00, 0.00, -0.00, -1.00, 838.1, 650.0)">i</text><text xml:space="preserve" font-family="Helvetica-Light" font-size="77.6" fill="#FEFFFF" transform="matrix(1.00, 0.00, -0.00, -1.00, 855.3, 650.0)">o</text><text xml:space="preserve" font-family="Helvetica-Light" font-size="77.6" fill="#FEFFFF" transform="matrix(1.00, 0.00, -0.00, -1.00, 898.4, 650.0)">n</text><image xlink:href="../../0CEF44D6-4DFC-4F1E-803A-7D63F750E36B/assets/DE647C0B55348FC976170CFCF54FA3C4.png" width="729.00" height="375.00" transform="matrix(1.00, 0.00, -0.00, -1.00, 148.0, 423.0)"></image><path d="M 0.0 0.0 L 789.6 0.0 L 789.6 52.0 L 0.0 52.0 Z M 0.0 0.0 " fill="none" stroke="#E7A432" stroke-width="1.00" stroke-dasharray="1.0, 1.0" transform="matrix(1.00, 0.00, 0.00, -1.00, 91.2, 559.0)"></path><g><clipPath id="clip-1550"><path d="M 86.7 502.5 L 885.3 502.5 L 885.3 563.5 L 86.7 563.5 Z M 86.7 502.5 "></path></clipPath><g clip-path="url(#clip-1550)"><text xml:space="preserve" font-family="Helvetica-Light" font-size="36.0" fill="#FEFFFF" transform="matrix(1.00, 0.00, -0.00, -1.00, 96.0, 520.0)">r</text><text xml:space="preserve" font-family="Helvetica-Light" font-size="36.0" fill="#FEFFFF" transform="matrix(1.00, 0.00, -0.00, -1.00, 107.3, 520.0)">e</text><text xml:space="preserve" font-family="Helvetica-Light" font-size="36.0" fill="#FEFFFF" transform="matrix(1.00, 0.00, -0.00, -1.00, 127.4, 520.0)">s</text><text xml:space="preserve" font-family="Helvetica-Light" font-size="36.0" fill="#FEFFFF" transform="matrix(1.00, 0.00, -0.00, -1.00, 145.4, 520.0)">u</text><text xml:space="preserve" font-family="Helvetica-Light" font-size="36.0" fill="#FEFFFF" transform="matrix(1.00, 0.00, -0.00, -1.00, 165.4, 520.0)">l</text><text xml:space="preserve" font-family="Helvetica-Light" font-size="36.0" fill="#FEFFFF" transform="matrix(1.00, 0.00, -0.00, -1.00, 173.4, 520.0)">t</text><text xml:space="preserve" font-family="Helvetica-Light" font-size="36.0" fill="#FEFFFF" transform="matrix(1.00, 0.00, -0.00, -1.00, 183.4, 520.0)">:</text><text xml:space="preserve" font-family="Helvetica-Light" font-size="36.0" fill="#FEFFFF" transform="matrix(1.00, 0.00, -0.00, -1.00, 193.4, 520.0)"> </text><text xml:space="preserve" font-family="Helvetica-Light" font-size="36.0" fill="#FEFFFF" transform="matrix(1.00, 0.00, -0.00, -1.00, 203.4, 520.0)">a</text><text xml:space="preserve" font-family="Helvetica-Light" font-size="36.0" fill="#FEFFFF" transform="matrix(1.00, 0.00, -0.00, -1.00, 223.4, 520.0)">b</text><text xml:space="preserve" font-family="Helvetica-Light" font-size="36.0" fill="#FEFFFF" transform="matrix(1.00, 0.00, -0.00, -1.00, 245.4, 520.0)">i</text><text xml:space="preserve" font-family="Helvetica-Light" font-size="36.0" fill="#FEFFFF" transform="matrix(1.00, 0.00, -0.00, -1.00, 253.4, 520.0)">l</text><text xml:space="preserve" font-family="Helvetica-Light" font-size="36.0" fill="#FEFFFF" transform="matrix(1.00, 0.00, -0.00, -1.00, 261.4, 520.0)">i</text><text xml:space="preserve" font-family="Helvetica-Light" font-size="36.0" fill="#FEFFFF" transform="matrix(1.00, 0.00, -0.00, -1.00, 269.4, 520.0)">t</text><text xml:space="preserve" font-family="Helvetica-Light" font-size="36.0" fill="#FEFFFF" transform="matrix(1.00, 0.00, -0.00, -1.00, 279.4, 520.0)">y</text><text xml:space="preserve" font-family="Helvetica-Light" font-size="36.0" fill="#FEFFFF" transform="matrix(1.00, 0.00, -0.00, -1.00, 297.4, 520.0)"> </text><text xml:space="preserve" font-family="Helvetica-Light" font-size="36.0" fill="#FEFFFF" transform="matrix(1.00, 0.00, -0.00, -1.00, 307.4, 520.0)">t</text><text xml:space="preserve" font-family="Helvetica-Light" font-size="36.0" fill="#FEFFFF" transform="matrix(1.00, 0.00, -0.00, -1.00, 317.4, 520.0)">o</text><text xml:space="preserve" font-family="Helvetica-Light" font-size="36.0" fill="#FEFFFF" transform="matrix(1.00, 0.00, -0.00, -1.00, 337.4, 520.0)"> </text><text xml:space="preserve" font-family="Helvetica-Light" font-size="36.0" fill="#FEFFFF" transform="matrix(1.00, 0.00, -0.00, -1.00, 347.4, 520.0)">v</text><text xml:space="preserve" font-family="Helvetica-Light" font-size="36.0" fill="#FEFFFF" transform="matrix(1.00, 0.00, -0.00, -1.00, 365.4, 520.0)">e</text><text xml:space="preserve" font-family="Helvetica-Light" font-size="36.0" fill="#FEFFFF" transform="matrix(1.00, 0.00, -0.00, -1.00, 385.4, 520.0)">r</text><text xml:space="preserve" font-family="Helvetica-Light" font-size="36.0" fill="#FEFFFF" transform="matrix(1.00, 0.00, -0.00, -1.00, 397.4, 520.0)">i</text><text xml:space="preserve" font-family="Helvetica-Light" font-size="36.0" fill="#FEFFFF" transform="matrix(1.00, 0.00, -0.00, -1.00, 405.4, 520.0)">f</text><text xml:space="preserve" font-family="Helvetica-Light" font-size="36.0" fill="#FEFFFF" transform="matrix(1.00, 0.00, -0.00, -1.00, 415.4, 520.0)">y</text><text xml:space="preserve" font-family="Helvetica-Light" font-size="36.0" fill="#FEFFFF" transform="matrix(1.00, 0.00, -0.00, -1.00, 433.4, 520.0)"> </text><text xml:space="preserve" font-family="Helvetica-Light" font-size="36.0" fill="#FEFFFF" transform="matrix(1.00, 0.00, -0.00, -1.00, 443.4, 520.0)">t</text><text xml:space="preserve" font-family="Helvetica-Light" font-size="36.0" fill="#FEFFFF" transform="matrix(1.00, 0.00, -0.00, -1.00, 453.4, 520.0)">h</text><text xml:space="preserve" font-family="Helvetica-Light" font-size="36.0" fill="#FEFFFF" transform="matrix(1.00, 0.00, -0.00, -1.00, 473.5, 520.0)">e</text><text xml:space="preserve" font-family="Helvetica-Light" font-size="36.0" fill="#FEFFFF" transform="matrix(1.00, 0.00, -0.00, -1.00, 493.5, 520.0)"> </text><text xml:space="preserve" font-family="Helvetica-Light" font-size="36.0" fill="#FEFFFF" transform="matrix(1.00, 0.00, -0.00, -1.00, 503.5, 520.0)">u</text><text xml:space="preserve" font-family="Helvetica-Light" font-size="36.0" fill="#FEFFFF" transform="matrix(1.00, 0.00, -0.00, -1.00, 523.5, 520.0)">n</text><text xml:space="preserve" font-family="Helvetica-Light" font-size="36.0" fill="#FEFFFF" transform="matrix(1.00, 0.00, -0.00, -1.00, 543.5, 520.0)">d</text><text xml:space="preserve" font-family="Helvetica-Light" font-size="36.0" fill="#FEFFFF" transform="matrix(1.00, 0.00, -0.00, -1.00, 565.5, 520.0)">e</text><text xml:space="preserve" font-family="Helvetica-Light" font-size="36.0" fill="#FEFFFF" transform="matrix(1.00, 0.00, -0.00, -1.00, 585.5, 520.0)">r</text><text xml:space="preserve" font-family="Helvetica-Light" font-size="36.0" fill="#FEFFFF" transform="matrix(1.00, 0.00, -0.00, -1.00, 597.5, 520.0)">l</text><text xml:space="preserve" font-family="Helvetica-Light" font-size="36.0" fill="#FEFFFF" transform="matrix(1.00, 0.00, -0.00, -1.00, 605.5, 520.0)">y</text><text xml:space="preserve" font-family="Helvetica-Light" font-size="36.0" fill="#FEFFFF" transform="matrix(1.00, 0.00, -0.00, -1.00, 623.5, 520.0)">i</text><text xml:space="preserve" font-family="Helvetica-Light" font-size="36.0" fill="#FEFFFF" transform="matrix(1.00, 0.00, -0.00, -1.00, 631.5, 520.0)">n</text><text xml:space="preserve" font-family="Helvetica-Light" font-size="36.0" fill="#FEFFFF" transform="matrix(1.00, 0.00, -0.00, -1.00, 651.5, 520.0)">g</text><text xml:space="preserve" font-family="Helvetica-Light" font-size="36.0" fill="#FEFFFF" transform="matrix(1.00, 0.00, -0.00, -1.00, 673.5, 520.0)"> </text><text xml:space="preserve" font-family="Helvetica-Light" font-size="36.0" fill="#FEFFFF" transform="matrix(1.00, 0.00, -0.00, -1.00, 683.5, 520.0)">f</text><text xml:space="preserve" font-family="Helvetica-Light" font-size="36.0" fill="#FEFFFF" transform="matrix(1.00, 0.00, -0.00, -1.00, 693.5, 520.0)">u</text><text xml:space="preserve" font-family="Helvetica-Light" font-size="36.0" fill="#FEFFFF" transform="matrix(1.00, 0.00, -0.00, -1.00, 713.5, 520.0)">n</text><text xml:space="preserve" font-family="Helvetica-Light" font-size="36.0" fill="#FEFFFF" transform="matrix(1.00, 0.00, -0.00, -1.00, 733.6, 520.0)">c</text><text xml:space="preserve" font-family="Helvetica-Light" font-size="36.0" fill="#FEFFFF" transform="matrix(1.00, 0.00, -0.00, -1.00, 753.6, 520.0)">t</text><text xml:space="preserve" font-family="Helvetica-Light" font-size="36.0" fill="#FEFFFF" transform="matrix(1.00, 0.00, -0.00, -1.00, 763.6, 520.0)">i</text><text xml:space="preserve" font-family="Helvetica-Light" font-size="36.0" fill="#FEFFFF" transform="matrix(1.00, 0.00, -0.00, -1.00, 771.6, 520.0)">o</text><text xml:space="preserve" font-family="Helvetica-Light" font-size="36.0" fill="#FEFFFF" transform="matrix(1.00, 0.00, -0.00, -1.00, 791.6, 520.0)">n</text><text xml:space="preserve" font-family="Helvetica-Light" font-size="36.0" fill="#FEFFFF" transform="matrix(1.00, 0.00, -0.00, -1.00, 811.6, 520.0)">a</text><text xml:space="preserve" font-family="Helvetica-Light" font-size="36.0" fill="#FEFFFF" transform="matrix(1.00, 0.00, -0.00, -1.00, 831.6, 520.0)">l</text><text xml:space="preserve" font-family="Helvetica-Light" font-size="36.0" fill="#FEFFFF" transform="matrix(1.00, 0.00, -0.00, -1.00, 839.6, 520.0)">i</text><text xml:space="preserve" font-family="Helvetica-Light" font-size="36.0" fill="#FEFFFF" transform="matrix(1.00, 0.00, -0.00, -1.00, 847.6, 520.0)">t</text><text xml:space="preserve" font-family="Helvetica-Light" font-size="36.0" fill="#FEFFFF" transform="matrix(1.00, 0.00, -0.00, -1.00, 857.6, 520.0)">y</text></g></g><path d="M 0.0 0.0 L 198.6 0.0 " fill="none" stroke="#E7A432" stroke-width="3.00" transform="matrix(-0.24, 0.97, 0.97, 0.24, 447.8, 314.2)"></path><g opacity="0.57"><g><clipPath id="clip-1551"><path d="M 151.0 220.0 L 183.0 220.0 L 183.0 410.0 L 151.0 410.0 Z M 151.0 220.0 "></path></clipPath><g clip-path="url(#clip-1551)"><path d="M 154.1 407.0 L 179.7 407.0 L 179.7 222.9 L 154.1 222.9 Z M 154.1 407.0 " fill="#E7A432"></path><path d="M 0.0 0.0 L 25.6 0.0 L 25.6 184.1 L 0.0 184.1 Z M 0.0 0.0 " fill="none" stroke="#E7A432" stroke-width="3.00" transform="matrix(1.00, 0.00, 0.00, -1.00, 154.1, 407.0)"></path></g></g></g><path d="M 0.0 0.0 L 107.1 0.0 " fill="none" stroke="#E7A432" stroke-width="3.00" transform="matrix(0.36, 0.93, 0.93, -0.36, 166.2, 407.1)"></path></g></svg>