<?xml version="1.0" encoding="UTF-8" standalone="no"?><svg xmlns="http://www.w3.org/2000/svg" xmlns:xlink="http://www.w3.org/1999/xlink" clip-rule="evenodd" stroke-miterlimit="4.00" viewBox="0 0 1024 768"><desc>SVG generated by Keynote</desc><defs></defs><g transform="matrix(1.00, 0.00, -0.00, -1.00, 0.0, 768.0)"><path d="M 0.0 768.0 L 1024.0 768.0 L 1024.0 0.0 L 0.0 0.0 Z M 0.0 768.0 " fill="#000000"></path><text xml:space="preserve" font-family="Helvetica-Light" font-size="59.0" fill="#FEFFFF" transform="matrix(1.00, 0.00, -0.00, -1.00, 108.0, 670.0)">F</text><text xml:space="preserve" font-family="Helvetica-Light" font-size="59.0" fill="#FEFFFF" transform="matrix(1.00, 0.00, -0.00, -1.00, 140.8, 670.0)">i</text><text xml:space="preserve" font-family="Helvetica-Light" font-size="59.0" fill="#FEFFFF" transform="matrix(1.00, 0.00, -0.00, -1.00, 153.9, 670.0)">r</text><text xml:space="preserve" font-family="Helvetica-Light" font-size="59.0" fill="#FEFFFF" transform="matrix(1.00, 0.00, -0.00, -1.00, 173.5, 670.0)">s</text><text xml:space="preserve" font-family="Helvetica-Light" font-size="59.0" fill="#FEFFFF" transform="matrix(1.00, 0.00, -0.00, -1.00, 203.0, 670.0)">t</text><text xml:space="preserve" font-family="Helvetica-Light" font-size="59.0" fill="#FEFFFF" transform="matrix(1.00, 0.00, -0.00, -1.00, 219.5, 670.0)"> </text><text xml:space="preserve" font-family="Helvetica-Light" font-size="59.0" fill="#FEFFFF" transform="matrix(1.00, 0.00, -0.00, -1.00, 235.9, 670.0)">A</text><text xml:space="preserve" font-family="Helvetica-Light" font-size="59.0" fill="#FEFFFF" transform="matrix(1.00, 0.00, -0.00, -1.00, 275.2, 670.0)">p</text><text xml:space="preserve" font-family="Helvetica-Light" font-size="59.0" fill="#FEFFFF" transform="matrix(1.00, 0.00, -0.00, -1.00, 311.3, 670.0)">p</text><text xml:space="preserve" font-family="Helvetica-Light" font-size="59.0" fill="#FEFFFF" transform="matrix(1.00, 0.00, -0.00, -1.00, 347.3, 670.0)">r</text><text xml:space="preserve" font-family="Helvetica-Light" font-size="59.0" fill="#FEFFFF" transform="matrix(1.00, 0.00, -0.00, -1.00, 365.9, 670.0)">o</text><text xml:space="preserve" font-family="Helvetica-Light" font-size="59.0" fill="#FEFFFF" transform="matrix(1.00, 0.00, -0.00, -1.00, 398.7, 670.0)">a</text><text xml:space="preserve" font-family="Helvetica-Light" font-size="59.0" fill="#FEFFFF" transform="matrix(1.00, 0.00, -0.00, -1.00, 431.5, 670.0)">c</text><text xml:space="preserve" font-family="Helvetica-Light" font-size="59.0" fill="#FEFFFF" transform="matrix(1.00, 0.00, -0.00, -1.00, 464.3, 670.0)">h</text><text xml:space="preserve" font-family="Helvetica-Light" font-size="59.0" fill="#FEFFFF" transform="matrix(1.00, 0.00, -0.00, -1.00, 497.1, 670.0)">:</text><text xml:space="preserve" font-family="Helvetica-Light" font-size="59.0" fill="#FEFFFF" transform="matrix(1.00, 0.00, -0.00, -1.00, 513.5, 670.0)"> </text><text xml:space="preserve" font-family="Helvetica-Light" font-size="59.0" fill="#FEFFFF" transform="matrix(1.00, 0.00, -0.00, -1.00, 529.9, 670.0)">S</text><text xml:space="preserve" font-family="Helvetica-Light" font-size="59.0" fill="#FEFFFF" transform="matrix(1.00, 0.00, -0.00, -1.00, 566.0, 670.0)">a</text><text xml:space="preserve" font-family="Helvetica-Light" font-size="59.0" fill="#FEFFFF" transform="matrix(1.00, 0.00, -0.00, -1.00, 598.8, 670.0)">l</text><text xml:space="preserve" font-family="Helvetica-Light" font-size="59.0" fill="#FEFFFF" transform="matrix(1.00, 0.00, -0.00, -1.00, 611.9, 670.0)">i</text><text xml:space="preserve" font-family="Helvetica-Light" font-size="59.0" fill="#FEFFFF" transform="matrix(1.00, 0.00, -0.00, -1.00, 625.0, 670.0)">e</text><text xml:space="preserve" font-family="Helvetica-Light" font-size="59.0" fill="#FEFFFF" transform="matrix(1.00, 0.00, -0.00, -1.00, 657.8, 670.0)">n</text><text xml:space="preserve" font-family="Helvetica-Light" font-size="59.0" fill="#FEFFFF" transform="matrix(1.00, 0.00, -0.00, -1.00, 690.6, 670.0)">c</text><text xml:space="preserve" font-family="Helvetica-Light" font-size="59.0" fill="#FEFFFF" transform="matrix(1.00, 0.00, -0.00, -1.00, 723.4, 670.0)">y</text><text xml:space="preserve" font-family="Helvetica-Light" font-size="59.0" fill="#FEFFFF" transform="matrix(1.00, 0.00, -0.00, -1.00, 752.9, 670.0)"> </text><text xml:space="preserve" font-family="Helvetica-Light" font-size="59.0" fill="#FEFFFF" transform="matrix(1.00, 0.00, -0.00, -1.00, 769.3, 670.0)">M</text><text xml:space="preserve" font-family="Helvetica-Light" font-size="59.0" fill="#FEFFFF" transform="matrix(1.00, 0.00, -0.00, -1.00, 818.4, 670.0)">a</text><text xml:space="preserve" font-family="Helvetica-Light" font-size="59.0" fill="#FEFFFF" transform="matrix(1.00, 0.00, -0.00, -1.00, 851.2, 670.0)">p</text><text xml:space="preserve" font-family="Helvetica-Light" font-size="59.0" fill="#FEFFFF" transform="matrix(1.00, 0.00, -0.00, -1.00, 887.3, 670.0)">s</text><text xml:space="preserve" font-family="Helvetica-Light" font-size="59.0" fill="#FEFFFF" transform="matrix(1.00, 0.00, -0.00, -1.00, 916.8, 670.0)"> </text><text xml:space="preserve" font-family="Helvetica-Bold" font-weight="bold" font-size="30.0" fill="#E7A432" transform="matrix(1.00, 0.00, -0.00, -1.00, 835.0, 374.0)">p</text><text xml:space="preserve" font-family="Helvetica-Bold" font-weight="bold" font-size="30.0" fill="#E7A432" transform="matrix(1.00, 0.00, -0.00, -1.00, 853.3, 374.0)">(</text><text xml:space="preserve" font-family="Helvetica-Bold" font-weight="bold" font-size="30.0" fill="#E7A432" transform="matrix(1.00, 0.00, -0.00, -1.00, 863.3, 374.0)">d</text><text xml:space="preserve" font-family="Helvetica-Bold" font-weight="bold" font-size="30.0" fill="#E7A432" transform="matrix(1.00, 0.00, -0.00, -1.00, 881.6, 374.0)">o</text><text xml:space="preserve" font-family="Helvetica-Bold" font-weight="bold" font-size="30.0" fill="#E7A432" transform="matrix(1.00, 0.00, -0.00, -1.00, 899.9, 374.0)">g</text><text xml:space="preserve" font-family="Helvetica-Bold" font-weight="bold" font-size="30.0" fill="#E7A432" transform="matrix(1.00, 0.00, -0.00, -1.00, 918.3, 374.0)">)</text><text xml:space="preserve" font-family="Helvetica-Light" font-size="30.0" fill="#FEFFFF" transform="matrix(1.00, 0.00, -0.00, -1.00, 838.0, 306.0)">p</text><text xml:space="preserve" font-family="Helvetica-Light" font-size="30.0" fill="#FEFFFF" transform="matrix(1.00, 0.00, -0.00, -1.00, 856.3, 306.0)">(</text><text xml:space="preserve" font-family="Helvetica-Light" font-size="30.0" fill="#FEFFFF" transform="matrix(1.00, 0.00, -0.00, -1.00, 866.3, 306.0)">c</text><text xml:space="preserve" font-family="Helvetica-Light" font-size="30.0" fill="#FEFFFF" transform="matrix(1.00, 0.00, -0.00, -1.00, 883.0, 306.0)">a</text><text xml:space="preserve" font-family="Helvetica-Light" font-size="30.0" fill="#FEFFFF" transform="matrix(1.00, 0.00, -0.00, -1.00, 899.7, 306.0)">t</text><text xml:space="preserve" font-family="Helvetica-Light" font-size="30.0" fill="#FEFFFF" transform="matrix(1.00, 0.00, -0.00, -1.00, 908.0, 306.0)">)</text><text xml:space="preserve" font-family="Helvetica-Light" font-size="36.0" fill="#FEFFFF" transform="matrix(1.00, 0.00, -0.00, -1.00, 30.0, 75.0)"> </text><text xml:space="preserve" font-family="Helvetica-Light" font-size="36.0" fill="#FEFFFF" transform="matrix(1.00, 0.00, -0.00, -1.00, 40.0, 75.0)">„</text><text xml:space="preserve" font-family="Helvetica-Bold" font-weight="bold" font-size="36.0" fill="#FEFFFF" transform="matrix(1.00, 0.00, -0.00, -1.00, 54.0, 75.0)">b</text><text xml:space="preserve" font-family="Helvetica-Bold" font-weight="bold" font-size="36.0" fill="#FEFFFF" transform="matrix(1.00, 0.00, -0.00, -1.00, 76.0, 75.0)">a</text><text xml:space="preserve" font-family="Helvetica-Bold" font-weight="bold" font-size="36.0" fill="#FEFFFF" transform="matrix(1.00, 0.00, -0.00, -1.00, 96.0, 75.0)">c</text><text xml:space="preserve" font-family="Helvetica-Bold" font-weight="bold" font-size="36.0" fill="#FEFFFF" transform="matrix(1.00, 0.00, -0.00, -1.00, 116.1, 75.0)">k</text><text xml:space="preserve" font-family="Helvetica-Bold" font-weight="bold" font-size="36.0" fill="#FEFFFF" transform="matrix(1.00, 0.00, -0.00, -1.00, 136.1, 75.0)">p</text><text xml:space="preserve" font-family="Helvetica-Bold" font-weight="bold" font-size="36.0" fill="#FEFFFF" transform="matrix(1.00, 0.00, -0.00, -1.00, 158.1, 75.0)">r</text><text xml:space="preserve" font-family="Helvetica-Bold" font-weight="bold" font-size="36.0" fill="#FEFFFF" transform="matrix(1.00, 0.00, -0.00, -1.00, 172.1, 75.0)">o</text><text xml:space="preserve" font-family="Helvetica-Bold" font-weight="bold" font-size="36.0" fill="#FEFFFF" transform="matrix(1.00, 0.00, -0.00, -1.00, 194.1, 75.0)">p</text><text xml:space="preserve" font-family="Helvetica-Bold" font-weight="bold" font-size="36.0" fill="#FEFFFF" transform="matrix(1.00, 0.00, -0.00, -1.00, 216.0, 75.0)"> </text><text xml:space="preserve" font-family="Helvetica-Bold" font-weight="bold" font-size="36.0" fill="#FEFFFF" transform="matrix(1.00, 0.00, -0.00, -1.00, 226.0, 75.0)">i</text><text xml:space="preserve" font-family="Helvetica-Bold" font-weight="bold" font-size="36.0" fill="#FEFFFF" transform="matrix(1.00, 0.00, -0.00, -1.00, 236.0, 75.0)">n</text><text xml:space="preserve" font-family="Helvetica-Bold" font-weight="bold" font-size="36.0" fill="#FEFFFF" transform="matrix(1.00, 0.00, -0.00, -1.00, 258.0, 75.0)">t</text><text xml:space="preserve" font-family="Helvetica-Bold" font-weight="bold" font-size="36.0" fill="#FEFFFF" transform="matrix(1.00, 0.00, -0.00, -1.00, 270.0, 75.0)">o</text><text xml:space="preserve" font-family="Helvetica-Bold" font-weight="bold" font-size="36.0" fill="#FEFFFF" transform="matrix(1.00, 0.00, -0.00, -1.00, 292.0, 75.0)"> </text><text xml:space="preserve" font-family="Helvetica-Bold" font-weight="bold" font-size="36.0" fill="#FEFFFF" transform="matrix(1.00, 0.00, -0.00, -1.00, 302.0, 75.0)">i</text><text xml:space="preserve" font-family="Helvetica-Bold" font-weight="bold" font-size="36.0" fill="#FEFFFF" transform="matrix(1.00, 0.00, -0.00, -1.00, 312.0, 75.0)">m</text><text xml:space="preserve" font-family="Helvetica-Bold" font-weight="bold" font-size="36.0" fill="#FEFFFF" transform="matrix(1.00, 0.00, -0.00, -1.00, 344.0, 75.0)">a</text><text xml:space="preserve" font-family="Helvetica-Bold" font-weight="bold" font-size="36.0" fill="#FEFFFF" transform="matrix(1.00, 0.00, -0.00, -1.00, 364.0, 75.0)">g</text><text xml:space="preserve" font-family="Helvetica-Bold" font-weight="bold" font-size="36.0" fill="#FEFFFF" transform="matrix(1.00, 0.00, -0.00, -1.00, 386.0, 75.0)">e</text><text xml:space="preserve" font-family="Helvetica-Bold" font-weight="bold" font-size="36.0" fill="#FEFFFF" transform="matrix(1.00, 0.00, -0.00, -1.00, 406.0, 75.0)">“</text><text xml:space="preserve" font-family="Helvetica-Bold" font-weight="bold" font-size="36.0" fill="#FEFFFF" transform="matrix(1.00, 0.00, -0.00, -1.00, 424.0, 75.0)">:</text><text xml:space="preserve" font-family="Helvetica-LightOblique" font-style="italic" font-size="36.0" fill="#FEFFFF" transform="matrix(1.00, 0.00, -0.00, -1.00, 99.0, 580.0)">„</text><text xml:space="preserve" font-family="Helvetica-LightOblique" font-style="italic" font-size="36.0" fill="#FEFFFF" transform="matrix(1.00, 0.00, -0.00, -1.00, 113.0, 580.0)">W</text><text xml:space="preserve" font-family="Helvetica-LightOblique" font-style="italic" font-size="36.0" fill="#FEFFFF" transform="matrix(1.00, 0.00, -0.00, -1.00, 145.0, 580.0)">h</text><text xml:space="preserve" font-family="Helvetica-LightOblique" font-style="italic" font-size="36.0" fill="#FEFFFF" transform="matrix(1.00, 0.00, -0.00, -1.00, 165.0, 580.0)">a</text><text xml:space="preserve" font-family="Helvetica-LightOblique" font-style="italic" font-size="36.0" fill="#FEFFFF" transform="matrix(1.00, 0.00, -0.00, -1.00, 185.0, 580.0)">t</text><text xml:space="preserve" font-family="Helvetica-LightOblique" font-style="italic" font-size="36.0" fill="#FEFFFF" transform="matrix(1.00, 0.00, -0.00, -1.00, 195.0, 580.0)"> </text><text xml:space="preserve" font-family="Helvetica-LightOblique" font-style="italic" font-size="36.0" fill="#FEFFFF" transform="matrix(1.00, 0.00, -0.00, -1.00, 205.1, 580.0)">p</text><text xml:space="preserve" font-family="Helvetica-LightOblique" font-style="italic" font-size="36.0" fill="#FEFFFF" transform="matrix(1.00, 0.00, -0.00, -1.00, 227.1, 580.0)">a</text><text xml:space="preserve" font-family="Helvetica-LightOblique" font-style="italic" font-size="36.0" fill="#FEFFFF" transform="matrix(1.00, 0.00, -0.00, -1.00, 247.1, 580.0)">r</text><text xml:space="preserve" font-family="Helvetica-LightOblique" font-style="italic" font-size="36.0" fill="#FEFFFF" transform="matrix(1.00, 0.00, -0.00, -1.00, 259.7, 580.0)">t</text><text xml:space="preserve" font-family="Helvetica-LightOblique" font-style="italic" font-size="36.0" fill="#FEFFFF" transform="matrix(1.00, 0.00, -0.00, -1.00, 269.7, 580.0)">s</text><text xml:space="preserve" font-family="Helvetica-LightOblique" font-style="italic" font-size="36.0" fill="#FEFFFF" transform="matrix(1.00, 0.00, -0.00, -1.00, 287.7, 580.0)"> </text><text xml:space="preserve" font-family="Helvetica-LightOblique" font-style="italic" font-size="36.0" fill="#FEFFFF" transform="matrix(1.00, 0.00, -0.00, -1.00, 297.7, 580.0)">o</text><text xml:space="preserve" font-family="Helvetica-LightOblique" font-style="italic" font-size="36.0" fill="#FEFFFF" transform="matrix(1.00, 0.00, -0.00, -1.00, 317.7, 580.0)">f</text><text xml:space="preserve" font-family="Helvetica-LightOblique" font-style="italic" font-size="36.0" fill="#FEFFFF" transform="matrix(1.00, 0.00, -0.00, -1.00, 327.7, 580.0)"> </text><text xml:space="preserve" font-family="Helvetica-LightOblique" font-style="italic" font-size="36.0" fill="#FEFFFF" transform="matrix(1.00, 0.00, -0.00, -1.00, 337.8, 580.0)">t</text><text xml:space="preserve" font-family="Helvetica-LightOblique" font-style="italic" font-size="36.0" fill="#FEFFFF" transform="matrix(1.00, 0.00, -0.00, -1.00, 347.8, 580.0)">h</text><text xml:space="preserve" font-family="Helvetica-LightOblique" font-style="italic" font-size="36.0" fill="#FEFFFF" transform="matrix(1.00, 0.00, -0.00, -1.00, 367.8, 580.0)">e</text><text xml:space="preserve" font-family="Helvetica-LightOblique" font-style="italic" font-size="36.0" fill="#FEFFFF" transform="matrix(1.00, 0.00, -0.00, -1.00, 387.8, 580.0)"> </text><text xml:space="preserve" font-family="Helvetica-LightOblique" font-style="italic" font-size="36.0" fill="#FEFFFF" transform="matrix(1.00, 0.00, -0.00, -1.00, 397.8, 580.0)">i</text><text xml:space="preserve" font-family="Helvetica-LightOblique" font-style="italic" font-size="36.0" fill="#FEFFFF" transform="matrix(1.00, 0.00, -0.00, -1.00, 405.8, 580.0)">n</text><text xml:space="preserve" font-family="Helvetica-LightOblique" font-style="italic" font-size="36.0" fill="#FEFFFF" transform="matrix(1.00, 0.00, -0.00, -1.00, 425.8, 580.0)">p</text><text xml:space="preserve" font-family="Helvetica-LightOblique" font-style="italic" font-size="36.0" fill="#FEFFFF" transform="matrix(1.00, 0.00, -0.00, -1.00, 447.8, 580.0)">u</text><text xml:space="preserve" font-family="Helvetica-LightOblique" font-style="italic" font-size="36.0" fill="#FEFFFF" transform="matrix(1.00, 0.00, -0.00, -1.00, 467.8, 580.0)">t</text><text xml:space="preserve" font-family="Helvetica-LightOblique" font-style="italic" font-size="36.0" fill="#FEFFFF" transform="matrix(1.00, 0.00, -0.00, -1.00, 477.8, 580.0)"> </text><text xml:space="preserve" font-family="Helvetica-LightOblique" font-style="italic" font-size="36.0" fill="#FEFFFF" transform="matrix(1.00, 0.00, -0.00, -1.00, 487.8, 580.0)">i</text><text xml:space="preserve" font-family="Helvetica-LightOblique" font-style="italic" font-size="36.0" fill="#FEFFFF" transform="matrix(1.00, 0.00, -0.00, -1.00, 495.8, 580.0)">m</text><text xml:space="preserve" font-family="Helvetica-LightOblique" font-style="italic" font-size="36.0" fill="#FEFFFF" transform="matrix(1.00, 0.00, -0.00, -1.00, 525.8, 580.0)">a</text><text xml:space="preserve" font-family="Helvetica-LightOblique" font-style="italic" font-size="36.0" fill="#FEFFFF" transform="matrix(1.00, 0.00, -0.00, -1.00, 545.8, 580.0)">g</text><text xml:space="preserve" font-family="Helvetica-LightOblique" font-style="italic" font-size="36.0" fill="#FEFFFF" transform="matrix(1.00, 0.00, -0.00, -1.00, 567.8, 580.0)">e</text><text xml:space="preserve" font-family="Helvetica-LightOblique" font-style="italic" font-size="36.0" fill="#FEFFFF" transform="matrix(1.00, 0.00, -0.00, -1.00, 587.8, 580.0)"> </text><text xml:space="preserve" font-family="Helvetica-LightOblique" font-style="italic" font-size="36.0" fill="#FEFFFF" transform="matrix(1.00, 0.00, -0.00, -1.00, 597.9, 580.0)">a</text><text xml:space="preserve" font-family="Helvetica-LightOblique" font-style="italic" font-size="36.0" fill="#FEFFFF" transform="matrix(1.00, 0.00, -0.00, -1.00, 617.9, 580.0)">f</text><text xml:space="preserve" font-family="Helvetica-LightOblique" font-style="italic" font-size="36.0" fill="#FEFFFF" transform="matrix(1.00, 0.00, -0.00, -1.00, 627.2, 580.0)">f</text><text xml:space="preserve" font-family="Helvetica-LightOblique" font-style="italic" font-size="36.0" fill="#FEFFFF" transform="matrix(1.00, 0.00, -0.00, -1.00, 637.2, 580.0)">e</text><text xml:space="preserve" font-family="Helvetica-LightOblique" font-style="italic" font-size="36.0" fill="#FEFFFF" transform="matrix(1.00, 0.00, -0.00, -1.00, 657.3, 580.0)">c</text><text xml:space="preserve" font-family="Helvetica-LightOblique" font-style="italic" font-size="36.0" fill="#FEFFFF" transform="matrix(1.00, 0.00, -0.00, -1.00, 677.3, 580.0)">t</text><text xml:space="preserve" font-family="Helvetica-LightOblique" font-style="italic" font-size="36.0" fill="#FEFFFF" transform="matrix(1.00, 0.00, -0.00, -1.00, 687.3, 580.0)"> </text><text xml:space="preserve" font-family="Helvetica-LightOblique" font-style="italic" font-size="36.0" fill="#FEFFFF" transform="matrix(1.00, 0.00, -0.00, -1.00, 697.3, 580.0)">t</text><text xml:space="preserve" font-family="Helvetica-LightOblique" font-style="italic" font-size="36.0" fill="#FEFFFF" transform="matrix(1.00, 0.00, -0.00, -1.00, 707.3, 580.0)">h</text><text xml:space="preserve" font-family="Helvetica-LightOblique" font-style="italic" font-size="36.0" fill="#FEFFFF" transform="matrix(1.00, 0.00, -0.00, -1.00, 727.3, 580.0)">e</text><text xml:space="preserve" font-family="Helvetica-LightOblique" font-style="italic" font-size="36.0" fill="#FEFFFF" transform="matrix(1.00, 0.00, -0.00, -1.00, 747.3, 580.0)"> </text><text xml:space="preserve" font-family="Helvetica-LightOblique" font-style="italic" font-size="36.0" fill="#FEFFFF" transform="matrix(1.00, 0.00, -0.00, -1.00, 757.3, 580.0)">d</text><text xml:space="preserve" font-family="Helvetica-LightOblique" font-style="italic" font-size="36.0" fill="#FEFFFF" transform="matrix(1.00, 0.00, -0.00, -1.00, 779.3, 580.0)">e</text><text xml:space="preserve" font-family="Helvetica-LightOblique" font-style="italic" font-size="36.0" fill="#FEFFFF" transform="matrix(1.00, 0.00, -0.00, -1.00, 799.3, 580.0)">c</text><text xml:space="preserve" font-family="Helvetica-LightOblique" font-style="italic" font-size="36.0" fill="#FEFFFF" transform="matrix(1.00, 0.00, -0.00, -1.00, 819.4, 580.0)">i</text><text xml:space="preserve" font-family="Helvetica-LightOblique" font-style="italic" font-size="36.0" fill="#FEFFFF" transform="matrix(1.00, 0.00, -0.00, -1.00, 827.4, 580.0)">s</text><text xml:space="preserve" font-family="Helvetica-LightOblique" font-style="italic" font-size="36.0" fill="#FEFFFF" transform="matrix(1.00, 0.00, -0.00, -1.00, 845.4, 580.0)">i</text><text xml:space="preserve" font-family="Helvetica-LightOblique" font-style="italic" font-size="36.0" fill="#FEFFFF" transform="matrix(1.00, 0.00, -0.00, -1.00, 853.3, 580.0)">o</text><text xml:space="preserve" font-family="Helvetica-LightOblique" font-style="italic" font-size="36.0" fill="#FEFFFF" transform="matrix(1.00, 0.00, -0.00, -1.00, 873.4, 580.0)">n</text><text xml:space="preserve" font-family="Helvetica-LightOblique" font-style="italic" font-size="36.0" fill="#FEFFFF" transform="matrix(1.00, 0.00, -0.00, -1.00, 893.4, 580.0)">?</text><text xml:space="preserve" font-family="Helvetica-LightOblique" font-style="italic" font-size="36.0" fill="#FEFFFF" transform="matrix(1.00, 0.00, -0.00, -1.00, 911.4, 580.0)">“</text><g><clipPath id="clip-1466"><path d="M 495.0 38.0 L 628.0 38.0 L 628.0 130.0 L 495.0 130.0 Z M 495.0 38.0 "></path></clipPath><g clip-path="url(#clip-1466)"><text xml:space="preserve" font-family="Helvetica" font-size="10.0" fill="#FF9933" transform="matrix(4.00, 0.00, -0.00, -4.00, 495.3, 99.2)">d</text><text xml:space="preserve" font-family="Helvetica" font-size="10.0" fill="#FF9933" transform="matrix(4.00, 0.00, -0.00, -4.00, 517.5, 99.2)">p</text><text xml:space="preserve" font-family="Helvetica" font-size="10.0" fill="#FF9933" transform="matrix(4.00, 0.00, -0.00, -4.00, 536.1, 99.2)">(</text><text xml:space="preserve" font-family="Helvetica" font-size="10.0" fill="#FF9933" transform="matrix(4.00, 0.00, -0.00, -4.00, 551.6, 99.2)">d</text><text xml:space="preserve" font-family="Helvetica" font-size="10.0" fill="#FF9933" transform="matrix(4.00, 0.00, -0.00, -4.00, 573.8, 99.2)">o</text><text xml:space="preserve" font-family="Helvetica" font-size="10.0" fill="#FF9933" transform="matrix(4.00, 0.00, -0.00, -4.00, 596.0, 99.2)">g</text><text xml:space="preserve" font-family="Helvetica" font-size="10.0" fill="#FF9933" transform="matrix(4.00, 0.00, -0.00, -4.00, 612.1, 99.2)">)</text><path d="M 0.0 0.0 L 33.1 0.0 " fill="none" stroke="#FF9933" stroke-width="0.40" stroke-miterlimit="0.00" transform="matrix(4.00, 0.00, 0.00, 4.00, 495.3, 82.2)"></path><text xml:space="preserve" font-family="Helvetica" font-size="10.0" fill="#FF9933" transform="matrix(4.00, 0.00, -0.00, -4.00, 533.1, 44.9)">d</text><text xml:space="preserve" font-family="Helvetica" font-size="10.0" fill="#FF9933" transform="matrix(4.00, 0.00, -0.00, -4.00, 555.2, 44.9)">x</text><text xml:space="preserve" font-family="Helvetica" font-size="7.0" fill="#FF9933" transform="matrix(4.00, 0.00, -0.00, -4.00, 576.6, 39.0)">i</text></g></g><g><clipPath id="clip-1467"><path d="M 132.0 486.0 L 178.0 486.0 L 178.0 516.0 L 132.0 516.0 Z M 132.0 486.0 "></path></clipPath><g clip-path="url(#clip-1467)"><text xml:space="preserve" font-family="Helvetica" font-size="10.0" fill="#FF9933" transform="matrix(4.00, 0.00, -0.00, -4.00, 131.0, 498.3)">x</text><text xml:space="preserve" font-family="Helvetica" font-size="7.0" fill="#FF9933" transform="matrix(4.00, 0.00, -0.00, -4.00, 153.8, 492.3)">i</text><text xml:space="preserve" font-family="Helvetica" font-size="7.0" fill="#FF9933" transform="matrix(4.00, 0.00, -0.00, -4.00, 160.0, 492.3)">j</text></g></g><path d="M 819.0 399.5 C 829.3 390.0 829.3 374.5 819.0 365.0 C 808.6 355.5 791.8 355.5 781.4 365.0 C 771.0 374.5 771.0 390.0 781.4 399.5 C 791.8 409.0 808.6 409.0 819.0 399.5 Z M 819.0 399.5 " fill="#FEFFFE"></path><path d="M 45.4 7.1 C 55.7 16.7 55.7 32.1 45.4 41.6 C 35.0 51.2 18.2 51.2 7.8 41.6 C -2.6 32.1 -2.6 16.7 7.8 7.1 C 18.2 -2.4 35.0 -2.4 45.4 7.1 Z M 45.4 7.1 " fill="none" stroke="#52575F" stroke-width="2.00" transform="matrix(1.00, 0.00, 0.00, -1.00, 773.6, 406.6)"></path><text xml:space="preserve" font-family="Helvetica-Bold" font-weight="bold" font-size="23.0" fill="#000000" transform="matrix(1.00, 0.00, -0.00, -1.00, 778.0, 374.0)">0</text><text xml:space="preserve" font-family="Helvetica-Bold" font-weight="bold" font-size="23.0" fill="#000000" transform="matrix(1.00, 0.00, -0.00, -1.00, 790.8, 374.0)">.</text><text xml:space="preserve" font-family="Helvetica-Bold" font-weight="bold" font-size="23.0" fill="#000000" transform="matrix(1.00, 0.00, -0.00, -1.00, 797.2, 374.0)">9</text><text xml:space="preserve" font-family="Helvetica-Bold" font-weight="bold" font-size="23.0" fill="#000000" transform="matrix(1.00, 0.00, -0.00, -1.00, 810.0, 374.0)">8</text><path d="M 819.6 327.1 C 830.0 317.6 830.0 302.1 819.6 292.6 C 809.3 283.1 792.4 283.1 782.1 292.6 C 771.7 302.1 771.7 317.6 782.1 327.1 C 792.4 336.6 809.3 336.6 819.6 327.1 Z M 819.6 327.1 " fill="#FEFFFE"></path><path d="M 45.4 7.1 C 55.7 16.7 55.7 32.1 45.4 41.6 C 35.0 51.2 18.2 51.2 7.8 41.6 C -2.6 32.1 -2.6 16.7 7.8 7.1 C 18.2 -2.4 35.0 -2.4 45.4 7.1 Z M 45.4 7.1 " fill="none" stroke="#52575F" stroke-width="2.00" transform="matrix(1.00, 0.00, 0.00, -1.00, 774.3, 334.3)"></path><text xml:space="preserve" font-family="Helvetica-Bold" font-weight="bold" font-size="23.0" fill="#000000" transform="matrix(1.00, 0.00, -0.00, -1.00, 778.0, 301.0)">0</text><text xml:space="preserve" font-family="Helvetica-Bold" font-weight="bold" font-size="23.0" fill="#000000" transform="matrix(1.00, 0.00, -0.00, -1.00, 790.8, 301.0)">.</text><text xml:space="preserve" font-family="Helvetica-Bold" font-weight="bold" font-size="23.0" fill="#000000" transform="matrix(1.00, 0.00, -0.00, -1.00, 797.2, 301.0)">0</text><text xml:space="preserve" font-family="Helvetica-Bold" font-weight="bold" font-size="23.0" fill="#000000" transform="matrix(1.00, 0.00, -0.00, -1.00, 810.0, 301.0)">2</text><g><clipPath id="clip-1468"><path d="M 353.0 400.5 C 363.4 391.0 363.4 375.5 353.0 366.0 C 342.6 356.5 325.8 356.5 315.4 366.0 C 305.1 375.5 305.1 391.0 315.4 400.5 C 325.8 410.0 342.6 410.0 353.0 400.5 Z M 353.0 400.5 "></path></clipPath><g clip-path="url(#clip-1468)"><image xlink:href="../../1167DFAA-7FEA-4FC6-A7D5-3527E89D7DD9/assets/885B268D503208AC466A41561D6790AE.png" width="104.00" height="104.00" transform="matrix(0.47, 0.00, -0.00, -0.47, 310.0, 408.0)"></image></g></g><path d="M 26.6 0.0 C 19.8 0.0 13.0 2.4 7.8 7.2 C 5.3 9.4 3.5 12.1 2.2 14.8 L 2.2 33.9 C 3.5 36.7 5.3 39.4 7.8 41.7 C 13.0 46.4 19.8 48.8 26.6 48.8 C 33.4 48.8 40.2 46.4 45.3 41.7 C 47.8 39.4 49.7 36.7 51.0 33.9 L 51.0 14.8 C 49.7 12.1 47.8 9.4 45.3 7.2 C 40.2 2.4 33.4 0.0 26.6 0.0 Z M 26.6 0.0 " fill="none" stroke="#52575F" stroke-width="2.00" transform="matrix(1.00, 0.00, 0.00, -1.00, 307.7, 407.6)"></path><g><clipPath id="clip-1469"><path d="M 353.0 322.1 C 363.4 312.6 363.4 297.1 353.0 287.6 C 342.6 278.1 325.8 278.1 315.4 287.6 C 305.1 297.1 305.1 312.6 315.4 322.1 C 325.8 331.6 342.6 331.6 353.0 322.1 Z M 353.0 322.1 "></path></clipPath><g clip-path="url(#clip-1469)"><image xlink:href="../../1167DFAA-7FEA-4FC6-A7D5-3527E89D7DD9/assets/DBEFCA4D55EBA39F590C2330594055B9.png" width="100.00" height="106.00" transform="matrix(0.46, 0.00, -0.00, -0.46, 311.0, 329.0)"></image></g></g><path d="M 26.6 0.0 C 19.8 0.0 13.0 2.4 7.8 7.2 C 6.1 8.7 4.7 10.5 3.6 12.4 L 3.6 36.4 C 4.7 38.3 6.1 40.1 7.8 41.7 C 13.0 46.4 19.8 48.8 26.6 48.8 C 33.4 48.8 40.2 46.4 45.3 41.7 C 47.1 40.1 48.4 38.2 49.6 36.3 L 49.6 12.4 C 48.4 10.6 47.1 8.8 45.3 7.2 C 40.2 2.4 33.4 0.0 26.6 0.0 Z M 26.6 0.0 " fill="none" stroke="#52575F" stroke-width="2.00" transform="matrix(1.00, 0.00, 0.00, -1.00, 307.7, 329.3)"></path><g><clipPath id="clip-1470"><path d="M 353.0 251.5 C 363.4 242.0 363.4 226.5 353.0 217.0 C 342.6 207.5 325.8 207.5 315.4 217.0 C 305.1 226.5 305.1 242.0 315.4 251.5 C 325.8 261.0 342.6 261.0 353.0 251.5 Z M 353.0 251.5 "></path></clipPath><g clip-path="url(#clip-1470)"><image xlink:href="../../1167DFAA-7FEA-4FC6-A7D5-3527E89D7DD9/assets/F71810CF0C1F224436CF946B5976B6C2.png" width="51.00" height="49.00" transform="matrix(1.00, 0.00, -0.00, -1.00, 309.0, 259.0)"></image></g></g><path d="M 26.6 0.0 C 19.8 0.0 13.0 2.4 7.8 7.2 C 4.5 10.2 2.3 13.9 1.1 17.8 L 1.1 31.0 C 2.3 34.9 4.5 38.6 7.8 41.7 C 13.0 46.4 19.8 48.8 26.6 48.8 C 33.4 48.8 40.2 46.4 45.3 41.7 C 48.7 38.6 50.8 34.9 52.0 31.1 L 52.0 17.7 C 50.8 13.9 48.7 10.2 45.3 7.2 C 40.2 2.4 33.4 0.0 26.6 0.0 Z M 26.6 0.0 " fill="none" stroke="#52575F" stroke-width="2.00" transform="matrix(1.00, 0.00, 0.00, -1.00, 307.7, 258.6)"></path><g><clipPath id="clip-1471"><path d="M 472.0 442.5 C 482.4 433.0 482.4 417.5 472.0 408.0 C 461.6 398.5 444.8 398.5 434.4 408.0 C 424.1 417.5 424.1 433.0 434.4 442.5 C 444.8 452.0 461.6 452.0 472.0 442.5 Z M 472.0 442.5 "></path></clipPath><g clip-path="url(#clip-1471)"><image xlink:href="../../1167DFAA-7FEA-4FC6-A7D5-3527E89D7DD9/assets/CB292E144AA99E7AED46D5D738FF8C00.png" width="53.00" height="49.00" transform="matrix(1.00, 0.00, -0.00, -1.00, 427.0, 450.0)"></image></g></g><path d="M 26.6 0.0 C 19.8 0.0 13.0 2.4 7.8 7.2 C 3.3 11.2 0.9 16.4 0.3 21.8 L 0.3 27.0 C 0.9 32.4 3.3 37.6 7.8 41.7 C 13.0 46.4 19.8 48.8 26.6 48.8 C 33.4 48.8 40.2 46.4 45.3 41.7 C 49.8 37.6 52.2 32.5 52.8 27.2 L 52.8 21.6 C 52.2 16.3 49.8 11.2 45.3 7.2 C 40.2 2.4 33.4 0.0 26.6 0.0 Z M 26.6 0.0 " fill="none" stroke="#52575F" stroke-width="2.00" transform="matrix(1.00, 0.00, 0.00, -1.00, 426.7, 449.6)"></path><g><clipPath id="clip-1472"><path d="M 472.0 364.1 C 482.4 354.6 482.4 339.1 472.0 329.6 C 461.6 320.1 444.8 320.1 434.4 329.6 C 424.1 339.1 424.1 354.6 434.4 364.1 C 444.8 373.6 461.6 373.6 472.0 364.1 Z M 472.0 364.1 "></path></clipPath><g clip-path="url(#clip-1472)"><image xlink:href="../../1167DFAA-7FEA-4FC6-A7D5-3527E89D7DD9/assets/2A747602568F77CD53EF8BC84F6108E2.png" width="91.00" height="84.00" transform="matrix(0.58, 0.00, -0.00, -0.58, 427.0, 371.0)"></image></g></g><path d="M 26.6 0.0 C 19.8 0.0 13.0 2.4 7.8 7.2 C 2.9 11.6 0.4 17.4 0.1 23.2 L 0.1 25.6 C 0.4 31.4 2.9 37.2 7.8 41.7 C 13.0 46.4 19.8 48.8 26.6 48.8 C 33.4 48.8 40.2 46.4 45.3 41.7 C 50.2 37.2 52.7 31.5 53.0 25.7 L 53.0 23.2 C 52.7 17.3 50.2 11.6 45.3 7.2 C 40.2 2.4 33.4 0.0 26.6 0.0 Z M 26.6 0.0 " fill="none" stroke="#52575F" stroke-width="2.00" transform="matrix(1.00, 0.00, 0.00, -1.00, 426.7, 371.3)"></path><g><clipPath id="clip-1473"><path d="M 472.0 288.5 C 482.4 279.0 482.4 263.5 472.0 254.0 C 461.6 244.5 444.8 244.5 434.4 254.0 C 424.1 263.5 424.1 279.0 434.4 288.5 C 444.8 298.0 461.6 298.0 472.0 288.5 Z M 472.0 288.5 "></path></clipPath><g clip-path="url(#clip-1473)"><image xlink:href="../../1167DFAA-7FEA-4FC6-A7D5-3527E89D7DD9/assets/ADA761558E67E0A85B503AF3F1F0B34C.png" width="118.00" height="102.00" transform="matrix(1.00, 0.00, -0.00, -1.00, 392.0, 342.0)"></image></g></g><path d="M 26.6 0.0 C 19.8 0.0 13.0 2.4 7.8 7.2 C -2.6 16.7 -2.6 32.1 7.8 41.7 C 18.2 51.2 35.0 51.2 45.3 41.7 C 55.7 32.1 55.7 16.7 45.3 7.2 C 40.2 2.4 33.4 0.0 26.6 0.0 Z M 26.6 0.0 " fill="none" stroke="#52575F" stroke-width="2.00" transform="matrix(1.00, 0.00, 0.00, -1.00, 426.7, 295.6)"></path><g><clipPath id="clip-1474"><path d="M 472.0 210.5 C 482.4 201.0 482.4 185.5 472.0 176.0 C 461.6 166.5 444.8 166.5 434.4 176.0 C 424.1 185.5 424.1 201.0 434.4 210.5 C 444.8 220.0 461.6 220.0 472.0 210.5 Z M 472.0 210.5 "></path></clipPath><g clip-path="url(#clip-1474)"><image xlink:href="../../1167DFAA-7FEA-4FC6-A7D5-3527E89D7DD9/assets/2A747602568F77CD53EF8BC84F6108E2.png" width="91.00" height="84.00" transform="matrix(0.99, 0.00, -0.00, -1.00, 422.0, 239.0)"></image></g></g><path d="M 26.6 0.0 C 19.8 0.0 13.0 2.4 7.8 7.2 C -2.6 16.7 -2.6 32.1 7.8 41.7 C 18.2 51.2 35.0 51.2 45.3 41.7 C 55.7 32.1 55.7 16.7 45.3 7.2 C 40.2 2.4 33.4 0.0 26.6 0.0 Z M 26.6 0.0 " fill="none" stroke="#52575F" stroke-width="2.00" transform="matrix(1.00, 0.00, 0.00, -1.00, 426.7, 217.6)"></path><path d="M 581.5 442.6 C 591.8 433.1 591.8 417.6 581.5 408.1 C 571.1 398.6 554.3 398.6 543.9 408.1 C 533.5 417.6 533.5 433.1 543.9 442.6 C 554.3 452.1 571.1 452.1 581.5 442.6 Z M 581.5 442.6 " fill="#A6AAA8"></path><path d="M 45.4 7.1 C 55.7 16.7 55.7 32.1 45.4 41.6 C 35.0 51.2 18.2 51.2 7.8 41.6 C -2.6 32.1 -2.6 16.7 7.8 7.1 C 18.2 -2.4 35.0 -2.4 45.4 7.1 Z M 45.4 7.1 " fill="none" stroke="#52575F" stroke-width="2.00" transform="matrix(1.00, 0.00, 0.00, -1.00, 536.1, 449.8)"></path><path d="M 581.5 364.2 C 591.8 354.7 591.8 339.2 581.5 329.7 C 571.1 320.2 554.3 320.2 543.9 329.7 C 533.5 339.2 533.5 354.7 543.9 364.2 C 554.3 373.7 571.1 373.7 581.5 364.2 Z M 581.5 364.2 " fill="#A6AAA8"></path><path d="M 45.4 7.1 C 55.7 16.7 55.7 32.1 45.4 41.6 C 35.0 51.2 18.2 51.2 7.8 41.6 C -2.6 32.1 -2.6 16.7 7.8 7.1 C 18.2 -2.4 35.0 -2.4 45.4 7.1 Z M 45.4 7.1 " fill="none" stroke="#52575F" stroke-width="2.00" transform="matrix(1.00, 0.00, 0.00, -1.00, 536.1, 371.4)"></path><path d="M 581.5 288.6 C 591.8 279.1 591.8 263.6 581.5 254.1 C 571.1 244.6 554.3 244.6 543.9 254.1 C 533.5 263.6 533.5 279.1 543.9 288.6 C 554.3 298.1 571.1 298.1 581.5 288.6 Z M 581.5 288.6 " fill="#A6AAA8"></path><path d="M 45.4 7.1 C 55.7 16.7 55.7 32.1 45.4 41.6 C 35.0 51.2 18.2 51.2 7.8 41.6 C -2.6 32.1 -2.6 16.7 7.8 7.1 C 18.2 -2.4 35.0 -2.4 45.4 7.1 Z M 45.4 7.1 " fill="none" stroke="#52575F" stroke-width="2.00" transform="matrix(1.00, 0.00, 0.00, -1.00, 536.1, 295.8)"></path><path d="M 581.5 210.6 C 591.8 201.1 591.8 185.6 581.5 176.1 C 571.1 166.6 554.3 166.6 543.9 176.1 C 533.5 185.6 533.5 201.1 543.9 210.6 C 554.3 220.1 571.1 220.1 581.5 210.6 Z M 581.5 210.6 " fill="#A6AAA8"></path><path d="M 45.4 7.1 C 55.7 16.7 55.7 32.1 45.4 41.6 C 35.0 51.2 18.2 51.2 7.8 41.6 C -2.6 32.1 -2.6 16.7 7.8 7.1 C 18.2 -2.4 35.0 -2.4 45.4 7.1 Z M 45.4 7.1 " fill="none" stroke="#52575F" stroke-width="2.00" transform="matrix(1.00, 0.00, 0.00, -1.00, 536.1, 217.8)"></path><g><clipPath id="clip-1475"><path d="M 697.2 441.6 C 707.6 432.1 707.6 416.6 697.2 407.1 C 686.8 397.6 670.0 397.6 659.6 407.1 C 649.3 416.6 649.3 432.1 659.6 441.6 C 670.0 451.1 686.8 451.1 697.2 441.6 Z M 697.2 441.6 "></path></clipPath><g clip-path="url(#clip-1475)"><image xlink:href="../../1167DFAA-7FEA-4FC6-A7D5-3527E89D7DD9/assets/ECD3B6E4CD2D415803242870FA18C951.png" width="66.00" height="62.00" transform="matrix(1.00, 0.00, -0.00, -1.00, 654.0, 446.0)"></image></g></g><path d="M 13.7 3.2 C 11.6 4.3 9.6 5.5 7.8 7.2 C 5.5 9.3 3.8 11.7 2.5 14.2 L 2.5 34.5 C 3.8 37.1 5.5 39.5 7.8 41.7 C 18.2 51.2 35.0 51.2 45.3 41.7 C 55.7 32.1 55.7 16.7 45.3 7.2 C 43.6 5.5 41.6 4.3 39.5 3.2 L 13.7 3.2 Z M 13.7 3.2 " fill="none" stroke="#52575F" stroke-width="2.00" transform="matrix(1.00, 0.00, 0.00, -1.00, 651.8, 448.8)"></path><g><clipPath id="clip-1476"><path d="M 697.2 209.6 C 707.6 200.1 707.6 184.6 697.2 175.1 C 686.8 165.6 670.0 165.6 659.6 175.1 C 649.3 184.6 649.3 200.1 659.6 209.6 C 670.0 219.1 686.8 219.1 697.2 209.6 Z M 697.2 209.6 "></path></clipPath><g clip-path="url(#clip-1476)"><image xlink:href="../../61F4DF51-8496-4B2F-8777-A25E44D1A6E4/assets/0AFAF70561CD7ADA5B1F42F256BC6318.png" width="73.00" height="68.00" transform="matrix(0.71, 0.00, -0.00, -0.72, 652.0, 217.0)"></image></g></g><path d="M 26.6 0.0 C 19.8 0.0 13.0 2.4 7.8 7.2 C 3.9 10.7 1.5 15.1 0.5 19.8 L 0.5 29.1 C 1.5 33.7 3.9 38.1 7.8 41.7 C 13.0 46.4 19.8 48.8 26.6 48.8 C 33.4 48.8 40.2 46.4 45.3 41.7 C 49.2 38.1 51.6 33.7 52.6 29.2 L 52.6 19.7 C 51.6 15.1 49.2 10.7 45.3 7.2 C 40.2 2.4 33.4 0.0 26.6 0.0 Z M 26.6 0.0 " fill="none" stroke="#52575F" stroke-width="2.00" transform="matrix(1.00, 0.00, 0.00, -1.00, 651.8, 216.8)"></path><path d="M 0.0 0.0 L 68.1 0.0 " fill="none" stroke="#52575F" stroke-width="2.00" transform="matrix(0.94, 0.35, 0.35, -0.94, 359.7, 475.9)"></path><path d="M 0.0 0.0 L 68.1 0.0 " fill="none" stroke="#52575F" stroke-width="2.00" transform="matrix(0.94, 0.35, 0.35, -0.94, 359.7, 393.2)"></path><path d="M 0.0 0.0 L 73.3 0.0 " fill="none" stroke="#52575F" stroke-width="2.00" transform="matrix(0.87, 0.49, 0.49, -0.87, 359.8, 310.0)"></path><path d="M 0.0 0.0 L 68.1 0.0 " fill="none" stroke="#52575F" stroke-width="2.00" transform="matrix(0.94, 0.35, 0.35, -0.94, 359.7, 242.4)"></path><path d="M 0.0 0.0 L 127.1 0.0 " fill="none" stroke="#52575F" stroke-width="2.00" transform="matrix(0.71, 0.71, 0.71, -0.71, 350.0, 399.1)"></path><path d="M 0.0 0.0 L 127.1 0.0 " fill="none" stroke="#52575F" stroke-width="2.00" transform="matrix(0.71, 0.71, 0.71, -0.71, 360.0, 309.1)"></path><path d="M 0.0 0.0 L 113.9 0.0 " fill="none" stroke="#52575F" stroke-width="2.00" transform="matrix(0.61, 0.79, 0.79, -0.61, 360.0, 244.8)"></path><path d="M 0.0 0.0 L 68.3 0.0 " fill="none" stroke="#52575F" stroke-width="2.00" transform="matrix(0.93, -0.36, -0.36, -0.93, 359.7, 227.1)"></path><path d="M 0.0 0.0 L 68.3 0.0 " fill="none" stroke="#52575F" stroke-width="2.00" transform="matrix(0.93, -0.36, -0.36, -0.93, 363.0, 296.2)"></path><path d="M 0.0 0.0 L 68.3 0.0 " fill="none" stroke="#52575F" stroke-width="2.00" transform="matrix(0.93, -0.36, -0.36, -0.93, 359.7, 376.8)"></path><path d="M 0.0 0.0 L 68.3 0.0 " fill="none" stroke="#52575F" stroke-width="2.00" transform="matrix(0.93, -0.36, -0.36, -0.93, 363.0, 459.0)"></path><path d="M 0.0 0.0 L 53.8 0.0 " fill="none" stroke="#52575F" stroke-width="2.00" transform="matrix(1.00, 0.00, 0.00, -1.00, 482.8, 425.3)"></path><path d="M 0.0 0.0 L 53.8 0.0 " fill="none" stroke="#52575F" stroke-width="2.00" transform="matrix(1.00, 0.00, 0.00, -1.00, 482.8, 346.0)"></path><path d="M 0.0 0.0 L 53.8 0.0 " fill="none" stroke="#52575F" stroke-width="2.00" transform="matrix(1.00, 0.00, 0.00, -1.00, 482.8, 268.9)"></path><path d="M 0.0 0.0 L 53.8 0.0 " fill="none" stroke="#52575F" stroke-width="2.00" transform="matrix(1.00, 0.00, 0.00, -1.00, 482.8, 193.3)"></path><path d="M 0.0 0.0 L 76.6 0.0 " fill="none" stroke="#52575F" stroke-width="2.00" transform="matrix(0.83, 0.55, 0.55, -0.83, 473.6, 285.2)"></path><path d="M 0.0 0.0 L 76.6 0.0 " fill="none" stroke="#52575F" stroke-width="2.00" transform="matrix(0.83, 0.55, 0.55, -0.83, 474.4, 365.2)"></path><path d="M 0.0 0.0 L 76.6 0.0 " fill="none" stroke="#52575F" stroke-width="2.00" transform="matrix(0.83, 0.55, 0.55, -0.83, 473.6, 449.9)"></path><path d="M 0.0 0.0 L 76.6 0.0 " fill="none" stroke="#52575F" stroke-width="2.00" transform="matrix(0.83, 0.55, 0.55, -0.83, 477.8, 211.2)"></path><path d="M 0.0 0.0 L 128.5 0.0 " fill="none" stroke="#52575F" stroke-width="2.00" transform="matrix(0.50, 0.87, 0.87, -0.50, 473.6, 213.1)"></path><path d="M 0.0 0.0 L 128.5 0.0 " fill="none" stroke="#52575F" stroke-width="2.00" transform="matrix(0.50, 0.87, 0.87, -0.50, 474.7, 290.2)"></path><path d="M 0.0 0.0 L 128.5 0.0 " fill="none" stroke="#52575F" stroke-width="2.00" transform="matrix(0.50, 0.87, 0.87, -0.50, 477.8, 372.4)"></path><path d="M 0.0 0.0 L 90.5 0.0 " fill="none" stroke="#52575F" stroke-width="2.00" transform="matrix(0.54, -0.84, -0.84, -0.54, 483.4, 270.3)"></path><path d="M 0.0 0.0 L 90.5 0.0 " fill="none" stroke="#52575F" stroke-width="2.00" transform="matrix(0.54, -0.84, -0.84, -0.54, 483.7, 351.9)"></path><path d="M 0.0 0.0 L 90.5 0.0 " fill="none" stroke="#52575F" stroke-width="2.00" transform="matrix(0.54, -0.84, -0.84, -0.54, 481.8, 426.9)"></path><path d="M 0.0 0.0 L 90.5 0.0 " fill="none" stroke="#52575F" stroke-width="2.00" transform="matrix(0.54, -0.84, -0.84, -0.54, 481.8, 509.7)"></path><path d="M 0.0 0.0 L 53.8 0.0 " fill="none" stroke="#52575F" stroke-width="2.00" transform="matrix(1.00, 0.00, 0.00, -1.00, 593.7, 428.0)"></path><path d="M 0.0 0.0 L 53.8 0.0 " fill="none" stroke="#52575F" stroke-width="2.00" transform="matrix(1.00, 0.00, 0.00, -1.00, 593.7, 348.7)"></path><path d="M 0.0 0.0 L 53.8 0.0 " fill="none" stroke="#52575F" stroke-width="2.00" transform="matrix(1.00, 0.00, 0.00, -1.00, 593.7, 271.6)"></path><path d="M 0.0 0.0 L 53.8 0.0 " fill="none" stroke="#52575F" stroke-width="2.00" transform="matrix(1.00, 0.00, 0.00, -1.00, 593.7, 196.0)"></path><path d="M 0.0 0.0 L 76.6 0.0 " fill="none" stroke="#52575F" stroke-width="2.00" transform="matrix(0.83, 0.55, 0.55, -0.83, 584.5, 287.9)"></path><path d="M 0.0 0.0 L 76.6 0.0 " fill="none" stroke="#52575F" stroke-width="2.00" transform="matrix(0.83, 0.55, 0.55, -0.83, 585.3, 367.9)"></path><path d="M 0.0 0.0 L 76.6 0.0 " fill="none" stroke="#52575F" stroke-width="2.00" transform="matrix(0.83, 0.55, 0.55, -0.83, 584.5, 452.7)"></path><path d="M 0.0 0.0 L 76.6 0.0 " fill="none" stroke="#52575F" stroke-width="2.00" transform="matrix(0.83, 0.55, 0.55, -0.83, 588.7, 213.9)"></path><path d="M 0.0 0.0 L 128.5 0.0 " fill="none" stroke="#52575F" stroke-width="2.00" transform="matrix(0.50, 0.87, 0.87, -0.50, 584.5, 215.8)"></path><path d="M 0.0 0.0 L 128.5 0.0 " fill="none" stroke="#52575F" stroke-width="2.00" transform="matrix(0.50, 0.87, 0.87, -0.50, 585.6, 293.0)"></path><path d="M 0.0 0.0 L 128.5 0.0 " fill="none" stroke="#52575F" stroke-width="2.00" transform="matrix(0.50, 0.87, 0.87, -0.50, 588.7, 375.2)"></path><path d="M 0.0 0.0 L 90.5 0.0 " fill="none" stroke="#52575F" stroke-width="2.00" transform="matrix(0.54, -0.84, -0.84, -0.54, 594.3, 273.1)"></path><path d="M 0.0 0.0 L 90.5 0.0 " fill="none" stroke="#52575F" stroke-width="2.00" transform="matrix(0.54, -0.84, -0.84, -0.54, 594.5, 354.6)"></path><path d="M 0.0 0.0 L 90.5 0.0 " fill="none" stroke="#52575F" stroke-width="2.00" transform="matrix(0.54, -0.84, -0.84, -0.54, 592.6, 429.6)"></path><path d="M 0.0 0.0 L 90.5 0.0 " fill="none" stroke="#52575F" stroke-width="2.00" transform="matrix(0.54, -0.84, -0.84, -0.54, 592.6, 512.5)"></path><path d="M 0.0 0.0 L 115.5 0.0 " fill="none" stroke="#52575F" stroke-width="2.00" transform="matrix(0.53, 0.85, 0.85, -0.53, 713.0, 196.0)"></path><path d="M 0.0 0.0 L 187.2 0.0 " fill="none" stroke="#52575F" stroke-width="2.00" transform="matrix(0.34, 0.94, 0.94, -0.34, 710.1, 196.0)"></path><path d="M 0.0 0.0 L 145.0 0.0 " fill="none" stroke="#52575F" stroke-width="2.00" transform="matrix(-0.42, 0.91, 0.91, 0.42, 770.6, 378.4)"></path><path d="M 0.0 0.0 L 66.4 0.0 " fill="none" stroke="#52575F" stroke-width="2.00" transform="matrix(0.95, 0.30, 0.30, -0.95, 707.7, 274.0)"></path><path d="M 0.0 0.0 L 108.2 0.0 " fill="none" stroke="#52575F" stroke-width="2.00" transform="matrix(0.59, 0.80, 0.80, -0.59, 705.3, 279.7)"></path><path d="M 0.0 0.0 L 68.1 0.0 " fill="none" stroke="#52575F" stroke-width="2.00" transform="matrix(0.96, 0.27, 0.27, -0.96, 706.5, 348.1)"></path><path d="M 0.0 0.0 L 75.4 0.0 " fill="none" stroke="#52575F" stroke-width="2.00" transform="matrix(0.83, -0.56, -0.56, -0.83, 708.6, 344.9)"></path><path d="M 0.0 0.0 L 78.5 0.0 " fill="none" stroke="#52575F" stroke-width="2.00" transform="matrix(0.84, -0.54, -0.54, -0.84, 704.5, 417.3)"></path><path d="M 0.0 0.0 L 133.0 0.0 " fill="none" stroke="#52575F" stroke-width="2.00" transform="matrix(0.47, -0.88, -0.88, -0.47, 708.1, 412.7)"></path><path d="M 0.0 0.0 L 210.5 0.0 " fill="none" stroke="#52575F" stroke-width="2.00" transform="matrix(-0.30, 0.96, 0.96, 0.30, 770.6, 302.6)"></path><path d="M 0.0 0.0 L 131.8 0.0 " fill="none" stroke="#52575F" stroke-width="2.00" transform="matrix(0.48, 0.88, 0.88, -0.48, 246.9, 334.8)"></path><path d="M 0.0 0.0 L 70.8 0.0 " fill="none" stroke="#52575F" stroke-width="2.00" transform="matrix(0.85, 0.52, 0.52, -0.85, 248.1, 335.0)"></path><path d="M 0.0 0.0 L 59.5 0.0 " fill="none" stroke="#52575F" stroke-width="2.00" transform="matrix(0.91, -0.41, -0.41, -0.91, 249.8, 326.9)"></path><path d="M 0.0 0.0 L 100.4 0.0 " fill="none" stroke="#52575F" stroke-width="2.00" transform="matrix(0.56, -0.83, -0.83, -0.56, 250.0, 325.5)"></path><g><clipPath id="clip-1477"><path d="M 306.0 495.0 L 363.0 495.0 L 363.0 441.0 L 306.0 441.0 Z M 305.6 495.2 "></path></clipPath><g clip-path="url(#clip-1477)"><image xlink:href="../../1167DFAA-7FEA-4FC6-A7D5-3527E89D7DD9/assets/1CFBC2B9AFDEC68768CBF24B8D583BE5.png" width="94.00" height="96.00" transform="matrix(1.00, 0.00, -0.00, -1.00, 287.0, 516.0)"></image></g></g><path d="M 0.0 0.0 L 0.0 54.3 L 56.9 54.3 L 56.9 0.0 L 0.0 0.0 Z M 0.0 0.0 " fill="none" stroke="#52575F" stroke-width="2.00" transform="matrix(1.00, 0.00, 0.00, -1.00, 305.6, 495.2)"></path><g><clipPath id="clip-1478"><path d="M 305.0 412.0 L 362.0 412.0 L 362.0 358.0 L 305.0 358.0 Z M 304.8 412.2 "></path></clipPath><g clip-path="url(#clip-1478)"><image xlink:href="../../1167DFAA-7FEA-4FC6-A7D5-3527E89D7DD9/assets/885B268D503208AC466A41561D6790AE.png" width="104.00" height="104.00" transform="matrix(1.00, 0.00, -0.00, -1.00, 291.0, 449.0)"></image></g></g><path d="M 0.0 0.0 L 0.0 54.3 L 56.9 54.3 L 56.9 0.0 L 0.0 0.0 Z M 0.0 0.0 " fill="none" stroke="#52575F" stroke-width="2.00" transform="matrix(1.00, 0.00, 0.00, -1.00, 304.8, 412.2)"></path><g><clipPath id="clip-1479"><path d="M 305.0 334.0 L 362.0 334.0 L 362.0 280.0 L 305.0 280.0 Z M 304.8 334.0 "></path></clipPath><g clip-path="url(#clip-1479)"><image xlink:href="../../1167DFAA-7FEA-4FC6-A7D5-3527E89D7DD9/assets/DBEFCA4D55EBA39F590C2330594055B9.png" width="100.00" height="106.00" transform="matrix(1.00, 0.00, -0.00, -1.00, 283.0, 359.0)"></image></g></g><path d="M 0.0 0.0 L 0.0 54.3 L 56.9 54.3 L 56.9 0.0 L 0.0 0.0 Z M 0.0 0.0 " fill="none" stroke="#52575F" stroke-width="2.00" transform="matrix(1.00, 0.00, 0.00, -1.00, 304.8, 334.0)"></path><g><clipPath id="clip-1480"><path d="M 305.0 261.0 L 362.0 261.0 L 362.0 207.0 L 305.0 207.0 Z M 304.7 261.4 "></path></clipPath><g clip-path="url(#clip-1480)"><image xlink:href="../../1167DFAA-7FEA-4FC6-A7D5-3527E89D7DD9/assets/1CFBC2B9AFDEC68768CBF24B8D583BE5.png" width="94.00" height="96.00" transform="matrix(1.00, 0.00, -0.00, -1.00, 293.0, 291.0)"></image></g></g><path d="M 0.0 0.0 L 0.0 54.3 L 56.9 54.3 L 56.9 0.0 L 0.0 0.0 Z M 0.0 0.0 " fill="none" stroke="#52575F" stroke-width="2.00" transform="matrix(1.00, 0.00, 0.00, -1.00, 304.7, 261.4)"></path><path d="M 425.2 535.1 L 482.2 535.1 L 482.2 480.8 L 425.2 480.8 Z M 425.2 535.1 " fill="#A6AAA8"></path><path d="M 0.0 0.0 L 56.9 0.0 L 56.9 54.3 L 0.0 54.3 Z M 0.0 0.0 " fill="none" stroke="#52575F" stroke-width="2.00" transform="matrix(1.00, 0.00, 0.00, -1.00, 425.2, 535.1)"></path><g><clipPath id="clip-1481"><path d="M 424.0 452.0 L 481.0 452.0 L 481.0 398.0 L 424.0 398.0 Z M 424.3 452.1 "></path></clipPath><g clip-path="url(#clip-1481)"><image xlink:href="../../1167DFAA-7FEA-4FC6-A7D5-3527E89D7DD9/assets/F8B4B968A233A9BD99FAB7ADEB7EBD3D.png" width="73.00" height="64.00" transform="matrix(0.99, 0.00, -0.00, -1.00, 417.0, 457.0)"></image></g></g><path d="M 0.0 0.0 L 0.0 54.3 L 56.9 54.3 L 56.9 0.0 L 0.0 0.0 Z M 0.0 0.0 " fill="none" stroke="#52575F" stroke-width="2.00" transform="matrix(1.00, 0.00, 0.00, -1.00, 424.3, 452.1)"></path><path d="M 424.4 373.9 L 481.3 373.9 L 481.3 319.5 L 424.4 319.5 Z M 424.4 373.9 " fill="#A6AAA8"></path><path d="M 0.0 0.0 L 56.9 0.0 L 56.9 54.3 L 0.0 54.3 Z M 0.0 0.0 " fill="none" stroke="#52575F" stroke-width="2.00" transform="matrix(1.00, 0.00, 0.00, -1.00, 424.4, 373.9)"></path><g><clipPath id="clip-1482"><path d="M 424.0 301.0 L 481.0 301.0 L 481.0 247.0 L 424.0 247.0 Z M 424.3 301.3 "></path></clipPath><g clip-path="url(#clip-1482)"><image xlink:href="../../1167DFAA-7FEA-4FC6-A7D5-3527E89D7DD9/assets/2A747602568F77CD53EF8BC84F6108E2.png" width="91.00" height="84.00" transform="matrix(0.87, 0.00, -0.00, -0.86, 413.0, 310.0)"></image></g></g><path d="M 0.0 0.0 L 0.0 54.3 L 56.9 54.3 L 56.9 0.0 L 0.0 0.0 Z M 0.0 0.0 " fill="none" stroke="#52575F" stroke-width="2.00" transform="matrix(1.00, 0.00, 0.00, -1.00, 424.3, 301.3)"></path><path d="M 533.1 535.1 L 590.0 535.1 L 590.0 480.8 L 533.1 480.8 Z M 533.1 535.1 " fill="#A6AAA8"></path><path d="M 0.0 0.0 L 56.9 0.0 L 56.9 54.3 L 0.0 54.3 Z M 0.0 0.0 " fill="none" stroke="#52575F" stroke-width="2.00" transform="matrix(1.00, 0.00, 0.00, -1.00, 533.1, 535.1)"></path><path d="M 532.2 452.1 L 589.1 452.1 L 589.1 397.8 L 532.2 397.8 Z M 532.2 452.1 " fill="#A6AAA8"></path><path d="M 0.0 0.0 L 56.9 0.0 L 56.9 54.3 L 0.0 54.3 Z M 0.0 0.0 " fill="none" stroke="#52575F" stroke-width="2.00" transform="matrix(1.00, 0.00, 0.00, -1.00, 532.2, 452.1)"></path><path d="M 532.2 373.9 L 589.2 373.9 L 589.2 319.5 L 532.2 319.5 Z M 532.2 373.9 " fill="#A6AAA8"></path><path d="M 0.0 0.0 L 56.9 0.0 L 56.9 54.3 L 0.0 54.3 Z M 0.0 0.0 " fill="none" stroke="#52575F" stroke-width="2.00" transform="matrix(1.00, 0.00, 0.00, -1.00, 532.2, 373.9)"></path><path d="M 532.1 301.3 L 589.0 301.3 L 589.0 246.9 L 532.1 246.9 Z M 532.1 301.3 " fill="#A6AAA8"></path><path d="M 0.0 0.0 L 56.9 0.0 L 56.9 54.3 L 0.0 54.3 Z M 0.0 0.0 " fill="none" stroke="#52575F" stroke-width="2.00" transform="matrix(1.00, 0.00, 0.00, -1.00, 532.1, 301.3)"></path><g><clipPath id="clip-1483"><path d="M 648.0 534.0 L 705.0 534.0 L 705.0 480.0 L 648.0 480.0 Z M 647.8 533.9 "></path></clipPath><g clip-path="url(#clip-1483)"><image xlink:href="../../1167DFAA-7FEA-4FC6-A7D5-3527E89D7DD9/assets/3E072E6EF0A52602E9FED591BD433B9A.png" width="75.00" height="66.00" transform="matrix(1.00, 0.00, -0.00, -1.02, 639.0, 540.0)"></image></g></g><path d="M 0.0 0.0 L 0.0 54.3 L 56.9 54.3 L 56.9 0.0 L 0.0 0.0 Z M 0.0 0.0 " fill="none" stroke="#52575F" stroke-width="2.00" transform="matrix(1.00, 0.00, 0.00, -1.00, 647.8, 533.9)"></path><g><clipPath id="clip-1484"><path d="M 647.0 451.0 L 704.0 451.0 L 704.0 397.0 L 647.0 397.0 Z M 647.0 450.9 "></path></clipPath><g clip-path="url(#clip-1484)"><image xlink:href="../../61F4DF51-8496-4B2F-8777-A25E44D1A6E4/assets/0AFAF70561CD7ADA5B1F42F256BC6318.png" width="73.00" height="68.00" transform="matrix(0.89, 0.00, -0.00, -0.88, 643.0, 454.0)"></image></g></g><path d="M 0.0 0.0 L 0.0 54.3 L 56.9 54.3 L 56.9 0.0 L 0.0 0.0 Z M 0.0 0.0 " fill="none" stroke="#52575F" stroke-width="2.00" transform="matrix(1.00, 0.00, 0.00, -1.00, 647.0, 450.9)"></path><path d="M 647.0 372.7 L 704.0 372.7 L 704.0 318.4 L 647.0 318.4 Z M 647.0 372.7 " fill="#A6AAA8"></path><path d="M 0.0 0.0 L 56.9 0.0 L 56.9 54.3 L 0.0 54.3 Z M 0.0 0.0 " fill="none" stroke="#52575F" stroke-width="2.00" transform="matrix(1.00, 0.00, 0.00, -1.00, 647.0, 372.7)"></path><path d="M 425.4 221.9 L 482.3 221.9 L 482.3 167.6 L 425.4 167.6 Z M 425.4 221.9 " fill="#A6AAA8"></path><path d="M 0.0 0.0 L 56.9 0.0 L 56.9 54.3 L 0.0 54.3 Z M 0.0 0.0 " fill="none" stroke="#52575F" stroke-width="2.00" transform="matrix(1.00, 0.00, 0.00, -1.00, 425.4, 221.9)"></path><path d="M 532.2 221.9 L 589.1 221.9 L 589.1 167.6 L 532.2 167.6 Z M 532.2 221.9 " fill="#A6AAA8"></path><path d="M 0.0 0.0 L 56.9 0.0 L 56.9 54.3 L 0.0 54.3 Z M 0.0 0.0 " fill="none" stroke="#52575F" stroke-width="2.00" transform="matrix(1.00, 0.00, 0.00, -1.00, 532.2, 221.9)"></path><path d="M 648.0 220.8 L 704.9 220.8 L 704.9 166.5 L 648.0 166.5 Z M 648.0 220.8 " fill="#A6AAA8"></path><path d="M 0.0 0.0 L 56.9 0.0 L 56.9 54.3 L 0.0 54.3 Z M 0.0 0.0 " fill="none" stroke="#52575F" stroke-width="2.00" transform="matrix(1.00, 0.00, 0.00, -1.00, 648.0, 220.8)"></path><g><clipPath id="clip-1485"><path d="M 647.0 300.0 L 704.0 300.0 L 704.0 246.0 L 647.0 246.0 Z M 646.9 300.1 "></path></clipPath><g clip-path="url(#clip-1485)"><image xlink:href="../../1167DFAA-7FEA-4FC6-A7D5-3527E89D7DD9/assets/C8523EF6955D4DF8CD8AFD4B182A742F.png" width="70.00" height="67.00" transform="matrix(0.99, 0.00, -0.00, -0.99, 641.0, 306.0)"></image></g></g><path d="M 0.0 0.0 L 0.0 54.3 L 56.9 54.3 L 56.9 0.0 L 0.0 0.0 Z M 0.0 0.0 " fill="none" stroke="#52575F" stroke-width="2.00" transform="matrix(1.00, 0.00, 0.00, -1.00, 646.9, 300.1)"></path><g><clipPath id="clip-1486"><path d="M 67.0 412.0 L 247.0 412.0 L 247.0 265.0 L 67.0 265.0 Z M 66.8 412.3 "></path></clipPath><g clip-path="url(#clip-1486)"><image xlink:href="../../1167DFAA-7FEA-4FC6-A7D5-3527E89D7DD9/assets/2274DE5E14DDECC7CF17ECB9A9648DDE.png" width="230.00" height="148.00" transform="matrix(1.00, 0.00, -0.00, -0.99, 18.0, 412.0)"></image></g></g><path d="M 0.0 0.0 L 0.0 147.4 L 179.9 147.4 L 179.9 0.0 L 0.0 0.0 Z M 0.0 0.0 " fill="none" stroke="#E7A432" stroke-width="10.00" transform="matrix(1.00, 0.00, 0.00, -1.00, 66.8, 412.3)"></path><path d="M 0.0 0.0 L 107.7 0.0 " fill="none" stroke="#FEFFFE" stroke-width="2.00" transform="matrix(0.50, 0.87, 0.87, -0.50, 85.2, 387.2)"></path><path d="M 89.5 392.6 C 92.0 390.2 92.0 386.3 89.5 383.9 C 87.0 381.5 83.0 381.5 80.6 383.9 C 78.1 386.3 78.1 390.2 80.6 392.6 C 83.0 395.0 87.0 395.0 89.5 392.6 Z M 89.5 392.6 " fill="#FEFFFE"></path><path d="M 0.0 0.0 L 53.8 0.0 " fill="none" stroke="#52575F" stroke-width="2.00" transform="matrix(1.00, 0.00, 0.00, -1.00, 481.6, 507.8)"></path><path d="M 0.0 0.0 L 53.8 0.0 " fill="none" stroke="#52575F" stroke-width="2.00" transform="matrix(1.00, 0.00, 0.00, -1.00, 594.5, 510.5)"></path></g></svg>