<?xml version="1.0" encoding="UTF-8" standalone="no"?><svg xmlns="http://www.w3.org/2000/svg" xmlns:xlink="http://www.w3.org/1999/xlink" clip-rule="evenodd" stroke-miterlimit="4.00" viewBox="0 0 1024 768"><desc>SVG generated by Keynote</desc><defs></defs><g transform="matrix(1.00, 0.00, -0.00, -1.00, 0.0, 768.0)"><path d="M 0.0 768.0 L 1024.0 768.0 L 1024.0 0.0 L 0.0 0.0 Z M 0.0 768.0 " fill="#000000"></path><g><clipPath id="clip-1575"><path d="M 71.0 609.0 L 208.0 609.0 L 208.0 398.0 L 71.0 398.0 Z M 71.2 609.3 "></path></clipPath><g clip-path="url(#clip-1575)"><image xlink:href="../../343E8F0E-6A82-41E2-9311-43B277926D4A/assets/E917420DF6A755C5C4059486C200C0DC.png" width="430.00" height="234.00" transform="matrix(0.90, 0.00, -0.00, -0.90, 71.0, 609.0)"></image></g></g><text xml:space="preserve" font-family="Helvetica-Light" font-size="70.0" fill="#FEFFFF" transform="matrix(1.00, 0.00, -0.00, -1.00, 188.0, 671.0)">G</text><text xml:space="preserve" font-family="Helvetica-Light" font-size="70.0" fill="#FEFFFF" transform="matrix(1.00, 0.00, -0.00, -1.00, 242.5, 671.0)">o</text><text xml:space="preserve" font-family="Helvetica-Light" font-size="70.0" fill="#FEFFFF" transform="matrix(1.00, 0.00, -0.00, -1.00, 281.4, 671.0)">o</text><text xml:space="preserve" font-family="Helvetica-Light" font-size="70.0" fill="#FEFFFF" transform="matrix(1.00, 0.00, -0.00, -1.00, 320.3, 671.0)">g</text><text xml:space="preserve" font-family="Helvetica-Light" font-size="70.0" fill="#FEFFFF" transform="matrix(1.00, 0.00, -0.00, -1.00, 363.1, 671.0)">l</text><text xml:space="preserve" font-family="Helvetica-Light" font-size="70.0" fill="#FEFFFF" transform="matrix(1.00, 0.00, -0.00, -1.00, 378.6, 671.0)">e</text><text xml:space="preserve" font-family="Helvetica-Light" font-size="70.0" fill="#FEFFFF" transform="matrix(1.00, 0.00, -0.00, -1.00, 417.5, 671.0)"> </text><text xml:space="preserve" font-family="Helvetica-Light" font-size="70.0" fill="#FEFFFF" transform="matrix(1.00, 0.00, -0.00, -1.00, 437.0, 671.0)">D</text><text xml:space="preserve" font-family="Helvetica-Light" font-size="70.0" fill="#FEFFFF" transform="matrix(1.00, 0.00, -0.00, -1.00, 487.5, 671.0)">e</text><text xml:space="preserve" font-family="Helvetica-Light" font-size="70.0" fill="#FEFFFF" transform="matrix(1.00, 0.00, -0.00, -1.00, 526.5, 671.0)">e</text><text xml:space="preserve" font-family="Helvetica-Light" font-size="70.0" fill="#FEFFFF" transform="matrix(1.00, 0.00, -0.00, -1.00, 565.4, 671.0)">p</text><text xml:space="preserve" font-family="Helvetica-Light" font-size="70.0" fill="#FEFFFF" transform="matrix(1.00, 0.00, -0.00, -1.00, 608.1, 671.0)"> </text><text xml:space="preserve" font-family="Helvetica-Light" font-size="70.0" fill="#FEFFFF" transform="matrix(1.00, 0.00, -0.00, -1.00, 627.6, 671.0)">D</text><text xml:space="preserve" font-family="Helvetica-Light" font-size="70.0" fill="#FEFFFF" transform="matrix(1.00, 0.00, -0.00, -1.00, 678.1, 671.0)">r</text><text xml:space="preserve" font-family="Helvetica-Light" font-size="70.0" fill="#FEFFFF" transform="matrix(1.00, 0.00, -0.00, -1.00, 700.2, 671.0)">e</text><text xml:space="preserve" font-family="Helvetica-Light" font-size="70.0" fill="#FEFFFF" transform="matrix(1.00, 0.00, -0.00, -1.00, 739.1, 671.0)">a</text><text xml:space="preserve" font-family="Helvetica-Light" font-size="70.0" fill="#FEFFFF" transform="matrix(1.00, 0.00, -0.00, -1.00, 778.0, 671.0)">m</text><g><clipPath id="clip-1576"><path d="M 588.0 604.0 L 942.0 604.0 L 942.0 410.0 L 588.0 410.0 Z M 588.2 603.7 "></path></clipPath><g clip-path="url(#clip-1576)"><image xlink:href="../../A83BC640-C05F-4E52-87DD-810324CFA04D/assets/6C7F4E16F9C7C95F5B4EEC73B9B838E4.png" width="354.00" height="201.00" transform="matrix(1.00, 0.00, -0.00, -1.00, 588.0, 612.0)"></image></g></g><path d="M 522.2 492.4 L 522.2 483.6 L 543.2 496.6 L 522.2 509.7 L 522.2 500.8 L 494.7 500.8 L 494.7 492.4 Z M 522.2 492.4 " fill="#A6AAA8"></path><path d="M 509.9 268.6 L 509.9 259.7 L 531.0 272.8 L 509.9 285.8 L 509.9 277.0 L 482.5 277.0 L 482.5 268.6 Z M 509.9 268.6 " fill="#A6AAA8"></path><g><clipPath id="clip-1577"><path d="M 588.0 373.0 L 942.0 373.0 L 942.0 173.0 L 588.0 173.0 Z M 588.2 372.8 "></path></clipPath><g clip-path="url(#clip-1577)"><image xlink:href="../../A83BC640-C05F-4E52-87DD-810324CFA04D/assets/11B48657553BC24EE9705A593220006E.png" width="362.00" height="200.00" transform="matrix(1.00, 0.00, -0.00, -1.00, 580.0, 373.0)"></image></g></g><text xml:space="preserve" font-family="Helvetica-Light" font-size="11.0" fill="#FEFFFF" transform="matrix(1.00, 0.00, -0.00, -1.00, 593.0, 391.0)">(</text><text xml:space="preserve" font-family="Helvetica-Light" font-size="11.0" fill="#FEFFFF" transform="matrix(1.00, 0.00, -0.00, -1.00, 596.7, 391.0)">s</text><text xml:space="preserve" font-family="Helvetica-Light" font-size="11.0" fill="#FEFFFF" transform="matrix(1.00, 0.00, -0.00, -1.00, 602.2, 391.0)">o</text><text xml:space="preserve" font-family="Helvetica-Light" font-size="11.0" fill="#FEFFFF" transform="matrix(1.00, 0.00, -0.00, -1.00, 608.3, 391.0)">u</text><text xml:space="preserve" font-family="Helvetica-Light" font-size="11.0" fill="#FEFFFF" transform="matrix(1.00, 0.00, -0.00, -1.00, 614.4, 391.0)">r</text><text xml:space="preserve" font-family="Helvetica-Light" font-size="11.0" fill="#FEFFFF" transform="matrix(1.00, 0.00, -0.00, -1.00, 617.9, 391.0)">c</text><text xml:space="preserve" font-family="Helvetica-Light" font-size="11.0" fill="#FEFFFF" transform="matrix(1.00, 0.00, -0.00, -1.00, 624.0, 391.0)">e</text><text xml:space="preserve" font-family="Helvetica-Light" font-size="11.0" fill="#FEFFFF" transform="matrix(1.00, 0.00, -0.00, -1.00, 630.1, 391.0)">:</text><text xml:space="preserve" font-family="Helvetica-Light" font-size="11.0" fill="#FEFFFF" transform="matrix(1.00, 0.00, -0.00, -1.00, 633.1, 391.0)"> </text><text xml:space="preserve" font-family="Helvetica-Light" font-size="11.0" fill="#FEFFFF" transform="matrix(1.00, 0.00, -0.00, -1.00, 636.2, 391.0)">F</text><text xml:space="preserve" font-family="Helvetica-Light" font-size="11.0" fill="#FEFFFF" transform="matrix(1.00, 0.00, -0.00, -1.00, 642.3, 391.0)">e</text><text xml:space="preserve" font-family="Helvetica-Light" font-size="11.0" fill="#FEFFFF" transform="matrix(1.00, 0.00, -0.00, -1.00, 648.4, 391.0)">i</text><text xml:space="preserve" font-family="Helvetica-Light" font-size="11.0" fill="#FEFFFF" transform="matrix(1.00, 0.00, -0.00, -1.00, 650.9, 391.0)">-</text><text xml:space="preserve" font-family="Helvetica-Light" font-size="11.0" fill="#FEFFFF" transform="matrix(1.00, 0.00, -0.00, -1.00, 654.5, 391.0)">F</text><text xml:space="preserve" font-family="Helvetica-Light" font-size="11.0" fill="#FEFFFF" transform="matrix(1.00, 0.00, -0.00, -1.00, 660.7, 391.0)">e</text><text xml:space="preserve" font-family="Helvetica-Light" font-size="11.0" fill="#FEFFFF" transform="matrix(1.00, 0.00, -0.00, -1.00, 666.8, 391.0)">i</text><text xml:space="preserve" font-family="Helvetica-Light" font-size="11.0" fill="#FEFFFF" transform="matrix(1.00, 0.00, -0.00, -1.00, 669.2, 391.0)"> </text><text xml:space="preserve" font-family="Helvetica-Light" font-size="11.0" fill="#FEFFFF" transform="matrix(1.00, 0.00, -0.00, -1.00, 672.3, 391.0)">L</text><text xml:space="preserve" font-family="Helvetica-Light" font-size="11.0" fill="#FEFFFF" transform="matrix(1.00, 0.00, -0.00, -1.00, 678.4, 391.0)">i</text><text xml:space="preserve" font-family="Helvetica-Light" font-size="11.0" fill="#FEFFFF" transform="matrix(1.00, 0.00, -0.00, -1.00, 680.8, 391.0)"> </text><text xml:space="preserve" font-family="Helvetica-Light" font-size="11.0" fill="#FEFFFF" transform="matrix(1.00, 0.00, -0.00, -1.00, 683.9, 391.0)">&amp;</text><text xml:space="preserve" font-family="Helvetica-Light" font-size="11.0" fill="#FEFFFF" transform="matrix(1.00, 0.00, -0.00, -1.00, 691.2, 391.0)"> </text><text xml:space="preserve" font-family="Helvetica-Light" font-size="11.0" fill="#FEFFFF" transform="matrix(1.00, 0.00, -0.00, -1.00, 694.3, 391.0)">A</text><text xml:space="preserve" font-family="Helvetica-Light" font-size="11.0" fill="#FEFFFF" transform="matrix(1.00, 0.00, -0.00, -1.00, 701.6, 391.0)">n</text><text xml:space="preserve" font-family="Helvetica-Light" font-size="11.0" fill="#FEFFFF" transform="matrix(1.00, 0.00, -0.00, -1.00, 707.7, 391.0)">d</text><text xml:space="preserve" font-family="Helvetica-Light" font-size="11.0" fill="#FEFFFF" transform="matrix(1.00, 0.00, -0.00, -1.00, 714.5, 391.0)">r</text><text xml:space="preserve" font-family="Helvetica-Light" font-size="11.0" fill="#FEFFFF" transform="matrix(1.00, 0.00, -0.00, -1.00, 717.9, 391.0)">e</text><text xml:space="preserve" font-family="Helvetica-Light" font-size="11.0" fill="#FEFFFF" transform="matrix(1.00, 0.00, -0.00, -1.00, 724.0, 391.0)">j</text><text xml:space="preserve" font-family="Helvetica-Light" font-size="11.0" fill="#FEFFFF" transform="matrix(1.00, 0.00, -0.00, -1.00, 726.5, 391.0)"> </text><text xml:space="preserve" font-family="Helvetica-Light" font-size="11.0" fill="#FEFFFF" transform="matrix(1.00, 0.00, -0.00, -1.00, 729.5, 391.0)">K</text><text xml:space="preserve" font-family="Helvetica-Light" font-size="11.0" fill="#FEFFFF" transform="matrix(1.00, 0.00, -0.00, -1.00, 736.9, 391.0)">a</text><text xml:space="preserve" font-family="Helvetica-Light" font-size="11.0" fill="#FEFFFF" transform="matrix(1.00, 0.00, -0.00, -1.00, 743.0, 391.0)">r</text><text xml:space="preserve" font-family="Helvetica-Light" font-size="11.0" fill="#FEFFFF" transform="matrix(1.00, 0.00, -0.00, -1.00, 746.7, 391.0)">p</text><text xml:space="preserve" font-family="Helvetica-Light" font-size="11.0" fill="#FEFFFF" transform="matrix(1.00, 0.00, -0.00, -1.00, 753.4, 391.0)">a</text><text xml:space="preserve" font-family="Helvetica-Light" font-size="11.0" fill="#FEFFFF" transform="matrix(1.00, 0.00, -0.00, -1.00, 759.5, 391.0)">t</text><text xml:space="preserve" font-family="Helvetica-Light" font-size="11.0" fill="#FEFFFF" transform="matrix(1.00, 0.00, -0.00, -1.00, 762.6, 391.0)">h</text><text xml:space="preserve" font-family="Helvetica-Light" font-size="11.0" fill="#FEFFFF" transform="matrix(1.00, 0.00, -0.00, -1.00, 768.7, 391.0)">y</text><text xml:space="preserve" font-family="Helvetica-Light" font-size="11.0" fill="#FEFFFF" transform="matrix(1.00, 0.00, -0.00, -1.00, 774.2, 391.0)"> </text><text xml:space="preserve" font-family="Helvetica-Light" font-size="11.0" fill="#FEFFFF" transform="matrix(1.00, 0.00, -0.00, -1.00, 777.2, 391.0)">&amp;</text><text xml:space="preserve" font-family="Helvetica-Light" font-size="11.0" fill="#FEFFFF" transform="matrix(1.00, 0.00, -0.00, -1.00, 784.6, 391.0)"> </text><text xml:space="preserve" font-family="Helvetica-Light" font-size="11.0" fill="#FEFFFF" transform="matrix(1.00, 0.00, -0.00, -1.00, 787.6, 391.0)">J</text><text xml:space="preserve" font-family="Helvetica-Light" font-size="11.0" fill="#FEFFFF" transform="matrix(1.00, 0.00, -0.00, -1.00, 793.1, 391.0)">u</text><text xml:space="preserve" font-family="Helvetica-Light" font-size="11.0" fill="#FEFFFF" transform="matrix(1.00, 0.00, -0.00, -1.00, 799.2, 391.0)">s</text><text xml:space="preserve" font-family="Helvetica-Light" font-size="11.0" fill="#FEFFFF" transform="matrix(1.00, 0.00, -0.00, -1.00, 804.7, 391.0)">t</text><text xml:space="preserve" font-family="Helvetica-Light" font-size="11.0" fill="#FEFFFF" transform="matrix(1.00, 0.00, -0.00, -1.00, 807.8, 391.0)">i</text><text xml:space="preserve" font-family="Helvetica-Light" font-size="11.0" fill="#FEFFFF" transform="matrix(1.00, 0.00, -0.00, -1.00, 810.2, 391.0)">n</text><text xml:space="preserve" font-family="Helvetica-Light" font-size="11.0" fill="#FEFFFF" transform="matrix(1.00, 0.00, -0.00, -1.00, 816.4, 391.0)"> </text><text xml:space="preserve" font-family="Helvetica-Light" font-size="11.0" fill="#FEFFFF" transform="matrix(1.00, 0.00, -0.00, -1.00, 819.4, 391.0)">J</text><text xml:space="preserve" font-family="Helvetica-Light" font-size="11.0" fill="#FEFFFF" transform="matrix(1.00, 0.00, -0.00, -1.00, 824.9, 391.0)">o</text><text xml:space="preserve" font-family="Helvetica-Light" font-size="11.0" fill="#FEFFFF" transform="matrix(1.00, 0.00, -0.00, -1.00, 831.0, 391.0)">h</text><text xml:space="preserve" font-family="Helvetica-Light" font-size="11.0" fill="#FEFFFF" transform="matrix(1.00, 0.00, -0.00, -1.00, 837.1, 391.0)">n</text><text xml:space="preserve" font-family="Helvetica-Light" font-size="11.0" fill="#FEFFFF" transform="matrix(1.00, 0.00, -0.00, -1.00, 843.3, 391.0)">s</text><text xml:space="preserve" font-family="Helvetica-Light" font-size="11.0" fill="#FEFFFF" transform="matrix(1.00, 0.00, -0.00, -1.00, 848.8, 391.0)">o</text><text xml:space="preserve" font-family="Helvetica-Light" font-size="11.0" fill="#FEFFFF" transform="matrix(1.00, 0.00, -0.00, -1.00, 854.9, 391.0)">n</text><text xml:space="preserve" font-family="Helvetica-Light" font-size="11.0" fill="#FEFFFF" transform="matrix(1.00, 0.00, -0.00, -1.00, 861.0, 391.0)">,</text><text xml:space="preserve" font-family="Helvetica-Light" font-size="11.0" fill="#FEFFFF" transform="matrix(1.00, 0.00, -0.00, -1.00, 864.1, 391.0)"> </text><text xml:space="preserve" font-family="Helvetica-Light" font-size="11.0" fill="#FEFFFF" transform="matrix(1.00, 0.00, -0.00, -1.00, 867.1, 391.0)">c</text><text xml:space="preserve" font-family="Helvetica-Light" font-size="11.0" fill="#FEFFFF" transform="matrix(1.00, 0.00, -0.00, -1.00, 873.2, 391.0)">s</text><text xml:space="preserve" font-family="Helvetica-Light" font-size="11.0" fill="#FEFFFF" transform="matrix(1.00, 0.00, -0.00, -1.00, 878.7, 391.0)">2</text><text xml:space="preserve" font-family="Helvetica-Light" font-size="11.0" fill="#FEFFFF" transform="matrix(1.00, 0.00, -0.00, -1.00, 884.8, 391.0)">3</text><text xml:space="preserve" font-family="Helvetica-Light" font-size="11.0" fill="#FEFFFF" transform="matrix(1.00, 0.00, -0.00, -1.00, 891.0, 391.0)">1</text><text xml:space="preserve" font-family="Helvetica-Light" font-size="11.0" fill="#FEFFFF" transform="matrix(1.00, 0.00, -0.00, -1.00, 897.1, 391.0)">n</text><text xml:space="preserve" font-family="Helvetica-Light" font-size="11.0" fill="#FEFFFF" transform="matrix(1.00, 0.00, -0.00, -1.00, 903.2, 391.0)"> </text><text xml:space="preserve" font-family="Helvetica-Light" font-size="11.0" fill="#FEFFFF" transform="matrix(1.00, 0.00, -0.00, -1.00, 906.2, 391.0)">2</text><text xml:space="preserve" font-family="Helvetica-Light" font-size="11.0" fill="#FEFFFF" transform="matrix(1.00, 0.00, -0.00, -1.00, 912.4, 391.0)">0</text><text xml:space="preserve" font-family="Helvetica-Light" font-size="11.0" fill="#FEFFFF" transform="matrix(1.00, 0.00, -0.00, -1.00, 918.5, 391.0)">1</text><text xml:space="preserve" font-family="Helvetica-Light" font-size="11.0" fill="#FEFFFF" transform="matrix(1.00, 0.00, -0.00, -1.00, 924.6, 391.0)">6</text><text xml:space="preserve" font-family="Helvetica-Light" font-size="11.0" fill="#FEFFFF" transform="matrix(1.00, 0.00, -0.00, -1.00, 930.7, 391.0)">,</text><text xml:space="preserve" font-family="Helvetica-Light" font-size="11.0" fill="#FEFFFF" transform="matrix(1.00, 0.00, -0.00, -1.00, 933.8, 391.0)"> </text><text xml:space="preserve" font-family="Helvetica-Light" font-size="11.0" fill="#FEFFFF" transform="matrix(1.00, 0.00, -0.00, -1.00, 936.8, 391.0)">L</text><text xml:space="preserve" font-family="Helvetica-Light" font-size="11.0" fill="#FEFFFF" transform="matrix(1.00, 0.00, -0.00, -1.00, 942.9, 391.0)">e</text><text xml:space="preserve" font-family="Helvetica-Light" font-size="11.0" fill="#FEFFFF" transform="matrix(1.00, 0.00, -0.00, -1.00, 949.1, 391.0)">c</text><text xml:space="preserve" font-family="Helvetica-Light" font-size="11.0" fill="#FEFFFF" transform="matrix(1.00, 0.00, -0.00, -1.00, 955.2, 391.0)">t</text><text xml:space="preserve" font-family="Helvetica-Light" font-size="11.0" fill="#FEFFFF" transform="matrix(1.00, 0.00, -0.00, -1.00, 958.2, 391.0)">u</text><text xml:space="preserve" font-family="Helvetica-Light" font-size="11.0" fill="#FEFFFF" transform="matrix(1.00, 0.00, -0.00, -1.00, 964.3, 391.0)">r</text><text xml:space="preserve" font-family="Helvetica-Light" font-size="11.0" fill="#FEFFFF" transform="matrix(1.00, 0.00, -0.00, -1.00, 967.8, 391.0)">e</text><text xml:space="preserve" font-family="Helvetica-Light" font-size="11.0" fill="#FEFFFF" transform="matrix(1.00, 0.00, -0.00, -1.00, 973.9, 391.0)"> </text><text xml:space="preserve" font-family="Helvetica-Light" font-size="11.0" fill="#FEFFFF" transform="matrix(1.00, 0.00, -0.00, -1.00, 977.0, 391.0)">1</text><text xml:space="preserve" font-family="Helvetica-Light" font-size="11.0" fill="#FEFFFF" transform="matrix(1.00, 0.00, -0.00, -1.00, 983.1, 391.0)">2</text><text xml:space="preserve" font-family="Helvetica-Light" font-size="11.0" fill="#FEFFFF" transform="matrix(1.00, 0.00, -0.00, -1.00, 989.2, 391.0)">)</text><path d="M 0.0 0.0 L 774.2 0.0 L 774.2 84.0 L 0.0 84.0 Z M 0.0 0.0 " fill="none" stroke="#52575F" stroke-width="2.00" transform="matrix(1.00, 0.00, 0.00, -1.00, 82.9, 114.0)"></path><g><clipPath id="clip-1578"><path d="M 80.1 27.2 L 1387.1 27.2 L 1387.1 116.8 L 80.1 116.8 Z M 80.1 27.2 "></path></clipPath><g clip-path="url(#clip-1578)"><text xml:space="preserve" font-family="Helvetica-Light" font-size="31.0" fill="#FEFFFF" transform="matrix(1.00, 0.00, -0.00, -1.00, 213.0, 79.0)">A</text><text xml:space="preserve" font-family="Helvetica-Light" font-size="31.0" fill="#FEFFFF" transform="matrix(1.00, 0.00, -0.00, -1.00, 233.7, 79.0)">m</text><text xml:space="preserve" font-family="Helvetica-Light" font-size="31.0" fill="#FEFFFF" transform="matrix(1.00, 0.00, -0.00, -1.00, 259.5, 79.0)">p</text><text xml:space="preserve" font-family="Helvetica-Light" font-size="31.0" fill="#FEFFFF" transform="matrix(1.00, 0.00, -0.00, -1.00, 278.4, 79.0)">l</text><text xml:space="preserve" font-family="Helvetica-Light" font-size="31.0" fill="#FEFFFF" transform="matrix(1.00, 0.00, -0.00, -1.00, 285.3, 79.0)">i</text><text xml:space="preserve" font-family="Helvetica-Light" font-size="31.0" fill="#FEFFFF" transform="matrix(1.00, 0.00, -0.00, -1.00, 292.2, 79.0)">f</text><text xml:space="preserve" font-family="Helvetica-Light" font-size="31.0" fill="#FEFFFF" transform="matrix(1.00, 0.00, -0.00, -1.00, 300.8, 79.0)">y</text><text xml:space="preserve" font-family="Helvetica-Light" font-size="31.0" fill="#FEFFFF" transform="matrix(1.00, 0.00, -0.00, -1.00, 316.3, 79.0)">i</text><text xml:space="preserve" font-family="Helvetica-Light" font-size="31.0" fill="#FEFFFF" transform="matrix(1.00, 0.00, -0.00, -1.00, 323.2, 79.0)">n</text><text xml:space="preserve" font-family="Helvetica-Light" font-size="31.0" fill="#FEFFFF" transform="matrix(1.00, 0.00, -0.00, -1.00, 340.4, 79.0)">g</text><text xml:space="preserve" font-family="Helvetica-Light" font-size="31.0" fill="#FEFFFF" transform="matrix(1.00, 0.00, -0.00, -1.00, 359.4, 79.0)"> </text><text xml:space="preserve" font-family="Helvetica-Light" font-size="31.0" fill="#FEFFFF" transform="matrix(1.00, 0.00, -0.00, -1.00, 368.0, 79.0)">f</text><text xml:space="preserve" font-family="Helvetica-Light" font-size="31.0" fill="#FEFFFF" transform="matrix(1.00, 0.00, -0.00, -1.00, 376.6, 79.0)">e</text><text xml:space="preserve" font-family="Helvetica-Light" font-size="31.0" fill="#FEFFFF" transform="matrix(1.00, 0.00, -0.00, -1.00, 393.9, 79.0)">a</text><text xml:space="preserve" font-family="Helvetica-Light" font-size="31.0" fill="#FEFFFF" transform="matrix(1.00, 0.00, -0.00, -1.00, 411.1, 79.0)">t</text><text xml:space="preserve" font-family="Helvetica-Light" font-size="31.0" fill="#FEFFFF" transform="matrix(1.00, 0.00, -0.00, -1.00, 419.7, 79.0)">u</text><text xml:space="preserve" font-family="Helvetica-Light" font-size="31.0" fill="#FEFFFF" transform="matrix(1.00, 0.00, -0.00, -1.00, 436.9, 79.0)">r</text><text xml:space="preserve" font-family="Helvetica-Light" font-size="31.0" fill="#FEFFFF" transform="matrix(1.00, 0.00, -0.00, -1.00, 446.7, 79.0)">e</text><text xml:space="preserve" font-family="Helvetica-Light" font-size="31.0" fill="#FEFFFF" transform="matrix(1.00, 0.00, -0.00, -1.00, 463.9, 79.0)">s</text><text xml:space="preserve" font-family="Helvetica-Light" font-size="31.0" fill="#FEFFFF" transform="matrix(1.00, 0.00, -0.00, -1.00, 479.4, 79.0)"> </text><text xml:space="preserve" font-family="Helvetica-Light" font-size="31.0" fill="#FEFFFF" transform="matrix(1.00, 0.00, -0.00, -1.00, 488.1, 79.0)">o</text><text xml:space="preserve" font-family="Helvetica-Light" font-size="31.0" fill="#FEFFFF" transform="matrix(1.00, 0.00, -0.00, -1.00, 505.3, 79.0)">f</text><text xml:space="preserve" font-family="Helvetica-Light" font-size="31.0" fill="#FEFFFF" transform="matrix(1.00, 0.00, -0.00, -1.00, 513.9, 79.0)"> </text><text xml:space="preserve" font-family="Helvetica-Light" font-size="31.0" fill="#FEFFFF" transform="matrix(1.00, 0.00, -0.00, -1.00, 522.5, 79.0)">d</text><text xml:space="preserve" font-family="Helvetica-Light" font-size="31.0" fill="#FEFFFF" transform="matrix(1.00, 0.00, -0.00, -1.00, 541.5, 79.0)">i</text><text xml:space="preserve" font-family="Helvetica-Light" font-size="31.0" fill="#FEFFFF" transform="matrix(1.00, 0.00, -0.00, -1.00, 548.4, 79.0)">f</text><text xml:space="preserve" font-family="Helvetica-Light" font-size="31.0" fill="#FEFFFF" transform="matrix(1.00, 0.00, -0.00, -1.00, 556.4, 79.0)">f</text><text xml:space="preserve" font-family="Helvetica-Light" font-size="31.0" fill="#FEFFFF" transform="matrix(1.00, 0.00, -0.00, -1.00, 565.0, 79.0)">e</text><text xml:space="preserve" font-family="Helvetica-Light" font-size="31.0" fill="#FEFFFF" transform="matrix(1.00, 0.00, -0.00, -1.00, 582.3, 79.0)">r</text><text xml:space="preserve" font-family="Helvetica-Light" font-size="31.0" fill="#FEFFFF" transform="matrix(1.00, 0.00, -0.00, -1.00, 592.0, 79.0)">e</text><text xml:space="preserve" font-family="Helvetica-Light" font-size="31.0" fill="#FEFFFF" transform="matrix(1.00, 0.00, -0.00, -1.00, 609.3, 79.0)">n</text><text xml:space="preserve" font-family="Helvetica-Light" font-size="31.0" fill="#FEFFFF" transform="matrix(1.00, 0.00, -0.00, -1.00, 626.5, 79.0)">t</text><text xml:space="preserve" font-family="Helvetica-Light" font-size="31.0" fill="#FEFFFF" transform="matrix(1.00, 0.00, -0.00, -1.00, 635.1, 79.0)"> </text><text xml:space="preserve" font-family="Helvetica-Light" font-size="31.0" fill="#FEFFFF" transform="matrix(1.00, 0.00, -0.00, -1.00, 643.7, 79.0)">l</text><text xml:space="preserve" font-family="Helvetica-Light" font-size="31.0" fill="#FEFFFF" transform="matrix(1.00, 0.00, -0.00, -1.00, 650.6, 79.0)">a</text><text xml:space="preserve" font-family="Helvetica-Light" font-size="31.0" fill="#FEFFFF" transform="matrix(1.00, 0.00, -0.00, -1.00, 667.9, 79.0)">y</text><text xml:space="preserve" font-family="Helvetica-Light" font-size="31.0" fill="#FEFFFF" transform="matrix(1.00, 0.00, -0.00, -1.00, 683.4, 79.0)">e</text><text xml:space="preserve" font-family="Helvetica-Light" font-size="31.0" fill="#FEFFFF" transform="matrix(1.00, 0.00, -0.00, -1.00, 700.6, 79.0)">r</text><text xml:space="preserve" font-family="Helvetica-Light" font-size="31.0" fill="#FEFFFF" transform="matrix(1.00, 0.00, -0.00, -1.00, 710.9, 79.0)">s</text><text xml:space="preserve" font-family="Helvetica-Light" font-size="31.0" fill="#FEFFFF" transform="matrix(1.00, 0.00, -0.00, -1.00, 726.4, 79.0)"> </text><text xml:space="preserve" font-family="Helvetica-Light" font-size="31.0" fill="#FEFFFF" transform="matrix(1.00, 0.00, -0.00, -1.00, 735.0, 79.0)"> </text><text xml:space="preserve" font-family="Helvetica-Light" font-size="31.0" fill="#FEFFFF" transform="matrix(1.00, 0.00, -0.00, -1.00, 88.0, 42.0)">a</text><text xml:space="preserve" font-family="Helvetica-Light" font-size="31.0" fill="#FEFFFF" transform="matrix(1.00, 0.00, -0.00, -1.00, 105.2, 42.0)">l</text><text xml:space="preserve" font-family="Helvetica-Light" font-size="31.0" fill="#FEFFFF" transform="matrix(1.00, 0.00, -0.00, -1.00, 112.1, 42.0)">l</text><text xml:space="preserve" font-family="Helvetica-Light" font-size="31.0" fill="#FEFFFF" transform="matrix(1.00, 0.00, -0.00, -1.00, 119.0, 42.0)">o</text><text xml:space="preserve" font-family="Helvetica-Light" font-size="31.0" fill="#FEFFFF" transform="matrix(1.00, 0.00, -0.00, -1.00, 136.2, 42.0)">w</text><text xml:space="preserve" font-family="Helvetica-Light" font-size="31.0" fill="#FEFFFF" transform="matrix(1.00, 0.00, -0.00, -1.00, 158.6, 42.0)">s</text><text xml:space="preserve" font-family="Helvetica-Light" font-size="31.0" fill="#FEFFFF" transform="matrix(1.00, 0.00, -0.00, -1.00, 174.1, 42.0)"> </text><text xml:space="preserve" font-family="Helvetica-Light" font-size="31.0" fill="#FEFFFF" transform="matrix(1.00, 0.00, -0.00, -1.00, 182.7, 42.0)">f</text><text xml:space="preserve" font-family="Helvetica-Light" font-size="31.0" fill="#FEFFFF" transform="matrix(1.00, 0.00, -0.00, -1.00, 191.4, 42.0)">o</text><text xml:space="preserve" font-family="Helvetica-Light" font-size="31.0" fill="#FEFFFF" transform="matrix(1.00, 0.00, -0.00, -1.00, 208.6, 42.0)">r</text><text xml:space="preserve" font-family="Helvetica-Light" font-size="31.0" fill="#FEFFFF" transform="matrix(1.00, 0.00, -0.00, -1.00, 218.9, 42.0)"> </text><text xml:space="preserve" font-family="Helvetica-Light" font-size="31.0" fill="#FEFFFF" transform="matrix(1.00, 0.00, -0.00, -1.00, 227.5, 42.0)">n</text><text xml:space="preserve" font-family="Helvetica-Light" font-size="31.0" fill="#FEFFFF" transform="matrix(1.00, 0.00, -0.00, -1.00, 244.8, 42.0)">i</text><text xml:space="preserve" font-family="Helvetica-Light" font-size="31.0" fill="#FEFFFF" transform="matrix(1.00, 0.00, -0.00, -1.00, 251.6, 42.0)">c</text><text xml:space="preserve" font-family="Helvetica-Light" font-size="31.0" fill="#FEFFFF" transform="matrix(1.00, 0.00, -0.00, -1.00, 268.9, 42.0)">e</text><text xml:space="preserve" font-family="Helvetica-Light" font-size="31.0" fill="#FEFFFF" transform="matrix(1.00, 0.00, -0.00, -1.00, 286.1, 42.0)"> </text><text xml:space="preserve" font-family="Helvetica-Light" font-size="31.0" fill="#FEFFFF" transform="matrix(1.00, 0.00, -0.00, -1.00, 294.7, 42.0)">v</text><text xml:space="preserve" font-family="Helvetica-Light" font-size="31.0" fill="#FEFFFF" transform="matrix(1.00, 0.00, -0.00, -1.00, 310.2, 42.0)">i</text><text xml:space="preserve" font-family="Helvetica-Light" font-size="31.0" fill="#FEFFFF" transform="matrix(1.00, 0.00, -0.00, -1.00, 317.1, 42.0)">s</text><text xml:space="preserve" font-family="Helvetica-Light" font-size="31.0" fill="#FEFFFF" transform="matrix(1.00, 0.00, -0.00, -1.00, 332.6, 42.0)">u</text><text xml:space="preserve" font-family="Helvetica-Light" font-size="31.0" fill="#FEFFFF" transform="matrix(1.00, 0.00, -0.00, -1.00, 349.9, 42.0)">a</text><text xml:space="preserve" font-family="Helvetica-Light" font-size="31.0" fill="#FEFFFF" transform="matrix(1.00, 0.00, -0.00, -1.00, 367.1, 42.0)">l</text><text xml:space="preserve" font-family="Helvetica-Light" font-size="31.0" fill="#FEFFFF" transform="matrix(1.00, 0.00, -0.00, -1.00, 374.0, 42.0)">i</text><text xml:space="preserve" font-family="Helvetica-Light" font-size="31.0" fill="#FEFFFF" transform="matrix(1.00, 0.00, -0.00, -1.00, 380.9, 42.0)">z</text><text xml:space="preserve" font-family="Helvetica-Light" font-size="31.0" fill="#FEFFFF" transform="matrix(1.00, 0.00, -0.00, -1.00, 396.4, 42.0)">a</text><text xml:space="preserve" font-family="Helvetica-Light" font-size="31.0" fill="#FEFFFF" transform="matrix(1.00, 0.00, -0.00, -1.00, 413.6, 42.0)">t</text><text xml:space="preserve" font-family="Helvetica-Light" font-size="31.0" fill="#FEFFFF" transform="matrix(1.00, 0.00, -0.00, -1.00, 422.2, 42.0)">i</text><text xml:space="preserve" font-family="Helvetica-Light" font-size="31.0" fill="#FEFFFF" transform="matrix(1.00, 0.00, -0.00, -1.00, 429.1, 42.0)">o</text><text xml:space="preserve" font-family="Helvetica-Light" font-size="31.0" fill="#FEFFFF" transform="matrix(1.00, 0.00, -0.00, -1.00, 446.3, 42.0)">n</text><text xml:space="preserve" font-family="Helvetica-Light" font-size="31.0" fill="#FEFFFF" transform="matrix(1.00, 0.00, -0.00, -1.00, 463.6, 42.0)"> </text><text xml:space="preserve" font-family="Helvetica-Light" font-size="31.0" fill="#FEFFFF" transform="matrix(1.00, 0.00, -0.00, -1.00, 472.2, 42.0)">o</text><text xml:space="preserve" font-family="Helvetica-Light" font-size="31.0" fill="#FEFFFF" transform="matrix(1.00, 0.00, -0.00, -1.00, 489.4, 42.0)">f</text><text xml:space="preserve" font-family="Helvetica-Light" font-size="31.0" fill="#FEFFFF" transform="matrix(1.00, 0.00, -0.00, -1.00, 498.0, 42.0)"> </text><text xml:space="preserve" font-family="Helvetica-Light" font-size="31.0" fill="#FEFFFF" transform="matrix(1.00, 0.00, -0.00, -1.00, 506.7, 42.0)">t</text><text xml:space="preserve" font-family="Helvetica-Light" font-size="31.0" fill="#FEFFFF" transform="matrix(1.00, 0.00, -0.00, -1.00, 515.3, 42.0)">h</text><text xml:space="preserve" font-family="Helvetica-Light" font-size="31.0" fill="#FEFFFF" transform="matrix(1.00, 0.00, -0.00, -1.00, 532.5, 42.0)">e</text><text xml:space="preserve" font-family="Helvetica-Light" font-size="31.0" fill="#FEFFFF" transform="matrix(1.00, 0.00, -0.00, -1.00, 549.7, 42.0)"> </text><text xml:space="preserve" font-family="Helvetica-Light" font-size="31.0" fill="#FEFFFF" transform="matrix(1.00, 0.00, -0.00, -1.00, 558.4, 42.0)">a</text><text xml:space="preserve" font-family="Helvetica-Light" font-size="31.0" fill="#FEFFFF" transform="matrix(1.00, 0.00, -0.00, -1.00, 575.6, 42.0)">b</text><text xml:space="preserve" font-family="Helvetica-Light" font-size="31.0" fill="#FEFFFF" transform="matrix(1.00, 0.00, -0.00, -1.00, 594.5, 42.0)">s</text><text xml:space="preserve" font-family="Helvetica-Light" font-size="31.0" fill="#FEFFFF" transform="matrix(1.00, 0.00, -0.00, -1.00, 610.0, 42.0)">t</text><text xml:space="preserve" font-family="Helvetica-Light" font-size="31.0" fill="#FEFFFF" transform="matrix(1.00, 0.00, -0.00, -1.00, 618.7, 42.0)">r</text><text xml:space="preserve" font-family="Helvetica-Light" font-size="31.0" fill="#FEFFFF" transform="matrix(1.00, 0.00, -0.00, -1.00, 629.0, 42.0)">a</text><text xml:space="preserve" font-family="Helvetica-Light" font-size="31.0" fill="#FEFFFF" transform="matrix(1.00, 0.00, -0.00, -1.00, 646.2, 42.0)">c</text><text xml:space="preserve" font-family="Helvetica-Light" font-size="31.0" fill="#FEFFFF" transform="matrix(1.00, 0.00, -0.00, -1.00, 663.5, 42.0)">t</text><text xml:space="preserve" font-family="Helvetica-Light" font-size="31.0" fill="#FEFFFF" transform="matrix(1.00, 0.00, -0.00, -1.00, 672.1, 42.0)">i</text><text xml:space="preserve" font-family="Helvetica-Light" font-size="31.0" fill="#FEFFFF" transform="matrix(1.00, 0.00, -0.00, -1.00, 679.0, 42.0)">o</text><text xml:space="preserve" font-family="Helvetica-Light" font-size="31.0" fill="#FEFFFF" transform="matrix(1.00, 0.00, -0.00, -1.00, 696.2, 42.0)">n</text><text xml:space="preserve" font-family="Helvetica-Light" font-size="31.0" fill="#FEFFFF" transform="matrix(1.00, 0.00, -0.00, -1.00, 713.4, 42.0)"> </text><text xml:space="preserve" font-family="Helvetica-Light" font-size="31.0" fill="#FEFFFF" transform="matrix(1.00, 0.00, -0.00, -1.00, 722.0, 42.0)">p</text><text xml:space="preserve" font-family="Helvetica-Light" font-size="31.0" fill="#FEFFFF" transform="matrix(1.00, 0.00, -0.00, -1.00, 741.0, 42.0)">r</text><text xml:space="preserve" font-family="Helvetica-Light" font-size="31.0" fill="#FEFFFF" transform="matrix(1.00, 0.00, -0.00, -1.00, 751.3, 42.0)">i</text><text xml:space="preserve" font-family="Helvetica-Light" font-size="31.0" fill="#FEFFFF" transform="matrix(1.00, 0.00, -0.00, -1.00, 758.2, 42.0)">n</text><text xml:space="preserve" font-family="Helvetica-Light" font-size="31.0" fill="#FEFFFF" transform="matrix(1.00, 0.00, -0.00, -1.00, 775.4, 42.0)">c</text><text xml:space="preserve" font-family="Helvetica-Light" font-size="31.0" fill="#FEFFFF" transform="matrix(1.00, 0.00, -0.00, -1.00, 792.7, 42.0)">i</text><text xml:space="preserve" font-family="Helvetica-Light" font-size="31.0" fill="#FEFFFF" transform="matrix(1.00, 0.00, -0.00, -1.00, 799.5, 42.0)">p</text><text xml:space="preserve" font-family="Helvetica-Light" font-size="31.0" fill="#FEFFFF" transform="matrix(1.00, 0.00, -0.00, -1.00, 818.5, 42.0)">l</text><text xml:space="preserve" font-family="Helvetica-Light" font-size="31.0" fill="#FEFFFF" transform="matrix(1.00, 0.00, -0.00, -1.00, 825.4, 42.0)">e</text><text xml:space="preserve" font-family="Helvetica-Light" font-size="31.0" fill="#FEFFFF" transform="matrix(1.00, 0.00, -0.00, -1.00, 842.6, 42.0)">.</text></g></g><g><clipPath id="clip-1579"><path d="M 185.0 617.0 L 435.0 617.0 L 435.0 392.0 L 185.0 392.0 Z M 184.7 616.7 "></path></clipPath><g clip-path="url(#clip-1579)"><image xlink:href="../../343E8F0E-6A82-41E2-9311-43B277926D4A/assets/E1F3EF948823D1644F459EF898CD5BDF.png" width="514.00" height="234.00" transform="matrix(0.96, 0.00, -0.00, -0.96, 74.0, 617.0)"></image></g></g><g><clipPath id="clip-1580"><path d="M 71.0 371.0 L 208.0 371.0 L 208.0 159.0 L 71.0 159.0 Z M 70.8 370.9 "></path></clipPath><g clip-path="url(#clip-1580)"><image xlink:href="../../343E8F0E-6A82-41E2-9311-43B277926D4A/assets/E917420DF6A755C5C4059486C200C0DC.png" width="430.00" height="234.00" transform="matrix(0.90, 0.00, -0.00, -0.91, 71.0, 371.0)"></image></g></g><g><clipPath id="clip-1581"><path d="M 184.0 378.0 L 434.0 378.0 L 434.0 154.0 L 184.0 154.0 Z M 184.4 378.3 "></path></clipPath><g clip-path="url(#clip-1581)"><image xlink:href="../../343E8F0E-6A82-41E2-9311-43B277926D4A/assets/E1F3EF948823D1644F459EF898CD5BDF.png" width="514.00" height="234.00" transform="matrix(0.96, 0.00, -0.00, -0.96, 74.0, 378.0)"></image></g></g><path d="M 0.0 0.0 L 45.5 0.0 L 45.5 211.1 L 0.0 211.1 Z M 0.0 0.0 " fill="none" stroke="#E7A432" stroke-width="3.00" transform="matrix(1.00, 0.00, 0.00, -1.00, 395.6, 607.8)"></path><path d="M 0.0 0.0 L 45.5 0.0 L 45.5 211.1 L 0.0 211.1 Z M 0.0 0.0 " fill="none" stroke="#E7A432" stroke-width="3.00" transform="matrix(1.00, 0.00, 0.00, -1.00, 272.6, 369.4)"></path></g></svg>