<?xml version="1.0" encoding="UTF-8" standalone="no"?><svg xmlns="http://www.w3.org/2000/svg" xmlns:xlink="http://www.w3.org/1999/xlink" clip-rule="evenodd" stroke-miterlimit="4.00" viewBox="0 0 1024 768"><desc>SVG generated by Keynote</desc><defs></defs><g transform="matrix(1.00, 0.00, -0.00, -1.00, 0.0, 768.0)"><path d="M 0.0 768.0 L 1024.0 768.0 L 1024.0 0.0 L 0.0 0.0 Z M 0.0 768.0 " fill="#000000"></path><text xml:space="preserve" font-family="Helvetica-Light" font-size="77.0" fill="#FEFFFF" transform="matrix(1.00, 0.00, -0.00, -1.00, 157.0, 630.0)">T</text><text xml:space="preserve" font-family="Helvetica-Light" font-size="77.0" fill="#FEFFFF" transform="matrix(1.00, 0.00, -0.00, -1.00, 191.3, 630.0)">a</text><text xml:space="preserve" font-family="Helvetica-Light" font-size="77.0" fill="#FEFFFF" transform="matrix(1.00, 0.00, -0.00, -1.00, 234.1, 630.0)">k</text><text xml:space="preserve" font-family="Helvetica-Light" font-size="77.0" fill="#FEFFFF" transform="matrix(1.00, 0.00, -0.00, -1.00, 272.6, 630.0)">e</text><text xml:space="preserve" font-family="Helvetica-Light" font-size="77.0" fill="#FEFFFF" transform="matrix(1.00, 0.00, -0.00, -1.00, 315.4, 630.0)"> </text><text xml:space="preserve" font-family="Helvetica-Light" font-size="77.0" fill="#FEFFFF" transform="matrix(1.00, 0.00, -0.00, -1.00, 336.8, 630.0)">h</text><text xml:space="preserve" font-family="Helvetica-Light" font-size="77.0" fill="#FEFFFF" transform="matrix(1.00, 0.00, -0.00, -1.00, 379.6, 630.0)">o</text><text xml:space="preserve" font-family="Helvetica-Light" font-size="77.0" fill="#FEFFFF" transform="matrix(1.00, 0.00, -0.00, -1.00, 422.4, 630.0)">m</text><text xml:space="preserve" font-family="Helvetica-Light" font-size="77.0" fill="#FEFFFF" transform="matrix(1.00, 0.00, -0.00, -1.00, 486.6, 630.0)">e</text><text xml:space="preserve" font-family="Helvetica-Light" font-size="77.0" fill="#FEFFFF" transform="matrix(1.00, 0.00, -0.00, -1.00, 529.4, 630.0)"> </text><text xml:space="preserve" font-family="Helvetica-Light" font-size="77.0" fill="#FEFFFF" transform="matrix(1.00, 0.00, -0.00, -1.00, 550.8, 630.0)">m</text><text xml:space="preserve" font-family="Helvetica-Light" font-size="77.0" fill="#FEFFFF" transform="matrix(1.00, 0.00, -0.00, -1.00, 614.9, 630.0)">e</text><text xml:space="preserve" font-family="Helvetica-Light" font-size="77.0" fill="#FEFFFF" transform="matrix(1.00, 0.00, -0.00, -1.00, 657.7, 630.0)">s</text><text xml:space="preserve" font-family="Helvetica-Light" font-size="77.0" fill="#FEFFFF" transform="matrix(1.00, 0.00, -0.00, -1.00, 696.2, 630.0)">s</text><text xml:space="preserve" font-family="Helvetica-Light" font-size="77.0" fill="#FEFFFF" transform="matrix(1.00, 0.00, -0.00, -1.00, 734.7, 630.0)">a</text><text xml:space="preserve" font-family="Helvetica-Light" font-size="77.0" fill="#FEFFFF" transform="matrix(1.00, 0.00, -0.00, -1.00, 777.5, 630.0)">g</text><text xml:space="preserve" font-family="Helvetica-Light" font-size="77.0" fill="#FEFFFF" transform="matrix(1.00, 0.00, -0.00, -1.00, 824.6, 630.0)">e</text><text xml:space="preserve" font-family="Helvetica-Light" font-size="23.2" fill="#FEFFFF" transform="matrix(1.00, 0.00, -0.00, -1.00, 83.5, 525.3)">•</text><text xml:space="preserve" font-family="Helvetica-Light" font-size="31.0" fill="#FEFFFF" transform="matrix(1.00, 0.00, -0.00, -1.00, 117.0, 523.0)">U</text><text xml:space="preserve" font-family="Helvetica-Light" font-size="31.0" fill="#FEFFFF" transform="matrix(1.00, 0.00, -0.00, -1.00, 139.4, 523.0)">n</text><text xml:space="preserve" font-family="Helvetica-Light" font-size="31.0" fill="#FEFFFF" transform="matrix(1.00, 0.00, -0.00, -1.00, 156.6, 523.0)">d</text><text xml:space="preserve" font-family="Helvetica-Light" font-size="31.0" fill="#FEFFFF" transform="matrix(1.00, 0.00, -0.00, -1.00, 175.6, 523.0)">e</text><text xml:space="preserve" font-family="Helvetica-Light" font-size="31.0" fill="#FEFFFF" transform="matrix(1.00, 0.00, -0.00, -1.00, 192.8, 523.0)">r</text><text xml:space="preserve" font-family="Helvetica-Light" font-size="31.0" fill="#FEFFFF" transform="matrix(1.00, 0.00, -0.00, -1.00, 203.1, 523.0)">s</text><text xml:space="preserve" font-family="Helvetica-Light" font-size="31.0" fill="#FEFFFF" transform="matrix(1.00, 0.00, -0.00, -1.00, 218.6, 523.0)">t</text><text xml:space="preserve" font-family="Helvetica-Light" font-size="31.0" fill="#FEFFFF" transform="matrix(1.00, 0.00, -0.00, -1.00, 227.2, 523.0)">a</text><text xml:space="preserve" font-family="Helvetica-Light" font-size="31.0" fill="#FEFFFF" transform="matrix(1.00, 0.00, -0.00, -1.00, 244.5, 523.0)">n</text><text xml:space="preserve" font-family="Helvetica-Light" font-size="31.0" fill="#FEFFFF" transform="matrix(1.00, 0.00, -0.00, -1.00, 261.7, 523.0)">d</text><text xml:space="preserve" font-family="Helvetica-Light" font-size="31.0" fill="#FEFFFF" transform="matrix(1.00, 0.00, -0.00, -1.00, 280.6, 523.0)">i</text><text xml:space="preserve" font-family="Helvetica-Light" font-size="31.0" fill="#FEFFFF" transform="matrix(1.00, 0.00, -0.00, -1.00, 287.5, 523.0)">n</text><text xml:space="preserve" font-family="Helvetica-Light" font-size="31.0" fill="#FEFFFF" transform="matrix(1.00, 0.00, -0.00, -1.00, 304.8, 523.0)">g</text><text xml:space="preserve" font-family="Helvetica-Light" font-size="31.0" fill="#FEFFFF" transform="matrix(1.00, 0.00, -0.00, -1.00, 323.7, 523.0)"> </text><text xml:space="preserve" font-family="Helvetica-Light" font-size="31.0" fill="#FEFFFF" transform="matrix(1.00, 0.00, -0.00, -1.00, 332.3, 523.0)">t</text><text xml:space="preserve" font-family="Helvetica-Light" font-size="31.0" fill="#FEFFFF" transform="matrix(1.00, 0.00, -0.00, -1.00, 340.9, 523.0)">h</text><text xml:space="preserve" font-family="Helvetica-Light" font-size="31.0" fill="#FEFFFF" transform="matrix(1.00, 0.00, -0.00, -1.00, 358.2, 523.0)">e</text><text xml:space="preserve" font-family="Helvetica-Light" font-size="31.0" fill="#FEFFFF" transform="matrix(1.00, 0.00, -0.00, -1.00, 375.4, 523.0)"> </text><text xml:space="preserve" font-family="Helvetica-Light" font-size="31.0" fill="#FEFFFF" transform="matrix(1.00, 0.00, -0.00, -1.00, 384.0, 523.0)">p</text><text xml:space="preserve" font-family="Helvetica-Light" font-size="31.0" fill="#FEFFFF" transform="matrix(1.00, 0.00, -0.00, -1.00, 403.0, 523.0)">r</text><text xml:space="preserve" font-family="Helvetica-Light" font-size="31.0" fill="#FEFFFF" transform="matrix(1.00, 0.00, -0.00, -1.00, 412.7, 523.0)">e</text><text xml:space="preserve" font-family="Helvetica-Light" font-size="31.0" fill="#FEFFFF" transform="matrix(1.00, 0.00, -0.00, -1.00, 430.0, 523.0)">d</text><text xml:space="preserve" font-family="Helvetica-Light" font-size="31.0" fill="#FEFFFF" transform="matrix(1.00, 0.00, -0.00, -1.00, 448.9, 523.0)">i</text><text xml:space="preserve" font-family="Helvetica-Light" font-size="31.0" fill="#FEFFFF" transform="matrix(1.00, 0.00, -0.00, -1.00, 455.8, 523.0)">c</text><text xml:space="preserve" font-family="Helvetica-Light" font-size="31.0" fill="#FEFFFF" transform="matrix(1.00, 0.00, -0.00, -1.00, 473.0, 523.0)">t</text><text xml:space="preserve" font-family="Helvetica-Light" font-size="31.0" fill="#FEFFFF" transform="matrix(1.00, 0.00, -0.00, -1.00, 481.7, 523.0)">i</text><text xml:space="preserve" font-family="Helvetica-Light" font-size="31.0" fill="#FEFFFF" transform="matrix(1.00, 0.00, -0.00, -1.00, 488.5, 523.0)">o</text><text xml:space="preserve" font-family="Helvetica-Light" font-size="31.0" fill="#FEFFFF" transform="matrix(1.00, 0.00, -0.00, -1.00, 505.8, 523.0)">n</text><text xml:space="preserve" font-family="Helvetica-Light" font-size="31.0" fill="#FEFFFF" transform="matrix(1.00, 0.00, -0.00, -1.00, 523.0, 523.0)">s</text><text xml:space="preserve" font-family="Helvetica-Light" font-size="31.0" fill="#FEFFFF" transform="matrix(1.00, 0.00, -0.00, -1.00, 538.5, 523.0)"> </text><text xml:space="preserve" font-family="Helvetica-Light" font-size="31.0" fill="#FEFFFF" transform="matrix(1.00, 0.00, -0.00, -1.00, 547.1, 523.0)">o</text><text xml:space="preserve" font-family="Helvetica-Light" font-size="31.0" fill="#FEFFFF" transform="matrix(1.00, 0.00, -0.00, -1.00, 564.4, 523.0)">f</text><text xml:space="preserve" font-family="Helvetica-Light" font-size="31.0" fill="#FEFFFF" transform="matrix(1.00, 0.00, -0.00, -1.00, 573.0, 523.0)"> </text><text xml:space="preserve" font-family="Helvetica-Light" font-size="31.0" fill="#FEFFFF" transform="matrix(1.00, 0.00, -0.00, -1.00, 581.6, 523.0)">C</text><text xml:space="preserve" font-family="Helvetica-Light" font-size="31.0" fill="#FEFFFF" transform="matrix(1.00, 0.00, -0.00, -1.00, 604.0, 523.0)">N</text><text xml:space="preserve" font-family="Helvetica-Light" font-size="31.0" fill="#FEFFFF" transform="matrix(1.00, 0.00, -0.00, -1.00, 626.4, 523.0)">N</text><text xml:space="preserve" font-family="Helvetica-Light" font-size="31.0" fill="#FEFFFF" transform="matrix(1.00, 0.00, -0.00, -1.00, 648.7, 523.0)"> </text><text xml:space="preserve" font-family="Helvetica-Light" font-size="31.0" fill="#FEFFFF" transform="matrix(1.00, 0.00, -0.00, -1.00, 657.4, 523.0)">i</text><text xml:space="preserve" font-family="Helvetica-Light" font-size="31.0" fill="#FEFFFF" transform="matrix(1.00, 0.00, -0.00, -1.00, 664.2, 523.0)">s</text><text xml:space="preserve" font-family="Helvetica-Light" font-size="31.0" fill="#FEFFFF" transform="matrix(1.00, 0.00, -0.00, -1.00, 679.7, 523.0)"> </text><text xml:space="preserve" font-family="Helvetica-Light" font-size="31.0" fill="#FEFFFF" transform="matrix(1.00, 0.00, -0.00, -1.00, 688.4, 523.0)">c</text><text xml:space="preserve" font-family="Helvetica-Light" font-size="31.0" fill="#FEFFFF" transform="matrix(1.00, 0.00, -0.00, -1.00, 705.6, 523.0)">r</text><text xml:space="preserve" font-family="Helvetica-Light" font-size="31.0" fill="#FEFFFF" transform="matrix(1.00, 0.00, -0.00, -1.00, 715.9, 523.0)">u</text><text xml:space="preserve" font-family="Helvetica-Light" font-size="31.0" fill="#FEFFFF" transform="matrix(1.00, 0.00, -0.00, -1.00, 733.2, 523.0)">c</text><text xml:space="preserve" font-family="Helvetica-Light" font-size="31.0" fill="#FEFFFF" transform="matrix(1.00, 0.00, -0.00, -1.00, 750.4, 523.0)">i</text><text xml:space="preserve" font-family="Helvetica-Light" font-size="31.0" fill="#FEFFFF" transform="matrix(1.00, 0.00, -0.00, -1.00, 757.3, 523.0)">a</text><text xml:space="preserve" font-family="Helvetica-Light" font-size="31.0" fill="#FEFFFF" transform="matrix(1.00, 0.00, -0.00, -1.00, 774.5, 523.0)">l</text><text xml:space="preserve" font-family="Helvetica-Light" font-size="31.0" fill="#FEFFFF" transform="matrix(1.00, 0.00, -0.00, -1.00, 781.4, 523.0)"> </text><text xml:space="preserve" font-family="Helvetica-Light" font-size="31.0" fill="#FEFFFF" transform="matrix(1.00, 0.00, -0.00, -1.00, 790.0, 523.0)">f</text><text xml:space="preserve" font-family="Helvetica-Light" font-size="31.0" fill="#FEFFFF" transform="matrix(1.00, 0.00, -0.00, -1.00, 798.6, 523.0)">o</text><text xml:space="preserve" font-family="Helvetica-Light" font-size="31.0" fill="#FEFFFF" transform="matrix(1.00, 0.00, -0.00, -1.00, 815.9, 523.0)">r</text><text xml:space="preserve" font-family="Helvetica-Light" font-size="31.0" fill="#FEFFFF" transform="matrix(1.00, 0.00, -0.00, -1.00, 826.2, 523.0)"> </text><text xml:space="preserve" font-family="Helvetica-Light" font-size="31.0" fill="#FEFFFF" transform="matrix(1.00, 0.00, -0.00, -1.00, 117.0, 486.0)">c</text><text xml:space="preserve" font-family="Helvetica-Light" font-size="31.0" fill="#FEFFFF" transform="matrix(1.00, 0.00, -0.00, -1.00, 134.2, 486.0)">o</text><text xml:space="preserve" font-family="Helvetica-Light" font-size="31.0" fill="#FEFFFF" transform="matrix(1.00, 0.00, -0.00, -1.00, 151.5, 486.0)">ﬁ</text><text xml:space="preserve" font-family="Helvetica-Light" font-size="31.0" fill="#FEFFFF" transform="matrix(1.00, 0.00, -0.00, -1.00, 167.0, 486.0)">d</text><text xml:space="preserve" font-family="Helvetica-Light" font-size="31.0" fill="#FEFFFF" transform="matrix(1.00, 0.00, -0.00, -1.00, 185.9, 486.0)">e</text><text xml:space="preserve" font-family="Helvetica-Light" font-size="31.0" fill="#FEFFFF" transform="matrix(1.00, 0.00, -0.00, -1.00, 203.1, 486.0)">n</text><text xml:space="preserve" font-family="Helvetica-Light" font-size="31.0" fill="#FEFFFF" transform="matrix(1.00, 0.00, -0.00, -1.00, 220.4, 486.0)">c</text><text xml:space="preserve" font-family="Helvetica-Light" font-size="31.0" fill="#FEFFFF" transform="matrix(1.00, 0.00, -0.00, -1.00, 237.6, 486.0)">e</text><text xml:space="preserve" font-family="Helvetica-Light" font-size="31.0" fill="#FEFFFF" transform="matrix(1.00, 0.00, -0.00, -1.00, 254.9, 486.0)">,</text><text xml:space="preserve" font-family="Helvetica-Light" font-size="31.0" fill="#FEFFFF" transform="matrix(1.00, 0.00, -0.00, -1.00, 263.5, 486.0)"> </text><text xml:space="preserve" font-family="Helvetica-Light" font-size="31.0" fill="#FEFFFF" transform="matrix(1.00, 0.00, -0.00, -1.00, 272.1, 486.0)">s</text><text xml:space="preserve" font-family="Helvetica-Light" font-size="31.0" fill="#FEFFFF" transform="matrix(1.00, 0.00, -0.00, -1.00, 287.6, 486.0)">a</text><text xml:space="preserve" font-family="Helvetica-Light" font-size="31.0" fill="#FEFFFF" transform="matrix(1.00, 0.00, -0.00, -1.00, 304.8, 486.0)">f</text><text xml:space="preserve" font-family="Helvetica-Light" font-size="31.0" fill="#FEFFFF" transform="matrix(1.00, 0.00, -0.00, -1.00, 313.4, 486.0)">e</text><text xml:space="preserve" font-family="Helvetica-Light" font-size="31.0" fill="#FEFFFF" transform="matrix(1.00, 0.00, -0.00, -1.00, 330.7, 486.0)">t</text><text xml:space="preserve" font-family="Helvetica-Light" font-size="31.0" fill="#FEFFFF" transform="matrix(1.00, 0.00, -0.00, -1.00, 339.3, 486.0)">y</text><text xml:space="preserve" font-family="Helvetica-Light" font-size="31.0" fill="#FEFFFF" transform="matrix(1.00, 0.00, -0.00, -1.00, 354.8, 486.0)"> </text><text xml:space="preserve" font-family="Helvetica-Light" font-size="31.0" fill="#FEFFFF" transform="matrix(1.00, 0.00, -0.00, -1.00, 363.4, 486.0)">a</text><text xml:space="preserve" font-family="Helvetica-Light" font-size="31.0" fill="#FEFFFF" transform="matrix(1.00, 0.00, -0.00, -1.00, 380.7, 486.0)">n</text><text xml:space="preserve" font-family="Helvetica-Light" font-size="31.0" fill="#FEFFFF" transform="matrix(1.00, 0.00, -0.00, -1.00, 397.9, 486.0)">d</text><text xml:space="preserve" font-family="Helvetica-Light" font-size="31.0" fill="#FEFFFF" transform="matrix(1.00, 0.00, -0.00, -1.00, 416.8, 486.0)"> </text><text xml:space="preserve" font-family="Helvetica-Light" font-size="31.0" fill="#FEFFFF" transform="matrix(1.00, 0.00, -0.00, -1.00, 425.4, 486.0)">v</text><text xml:space="preserve" font-family="Helvetica-Light" font-size="31.0" fill="#FEFFFF" transform="matrix(1.00, 0.00, -0.00, -1.00, 440.9, 486.0)">e</text><text xml:space="preserve" font-family="Helvetica-Light" font-size="31.0" fill="#FEFFFF" transform="matrix(1.00, 0.00, -0.00, -1.00, 458.2, 486.0)">r</text><text xml:space="preserve" font-family="Helvetica-Light" font-size="31.0" fill="#FEFFFF" transform="matrix(1.00, 0.00, -0.00, -1.00, 468.5, 486.0)">i</text><text xml:space="preserve" font-family="Helvetica-Light" font-size="31.0" fill="#FEFFFF" transform="matrix(1.00, 0.00, -0.00, -1.00, 475.4, 486.0)">ﬁ</text><text xml:space="preserve" font-family="Helvetica-Light" font-size="31.0" fill="#FEFFFF" transform="matrix(1.00, 0.00, -0.00, -1.00, 490.9, 486.0)">c</text><text xml:space="preserve" font-family="Helvetica-Light" font-size="31.0" fill="#FEFFFF" transform="matrix(1.00, 0.00, -0.00, -1.00, 508.1, 486.0)">a</text><text xml:space="preserve" font-family="Helvetica-Light" font-size="31.0" fill="#FEFFFF" transform="matrix(1.00, 0.00, -0.00, -1.00, 525.4, 486.0)">t</text><text xml:space="preserve" font-family="Helvetica-Light" font-size="31.0" fill="#FEFFFF" transform="matrix(1.00, 0.00, -0.00, -1.00, 534.0, 486.0)">i</text><text xml:space="preserve" font-family="Helvetica-Light" font-size="31.0" fill="#FEFFFF" transform="matrix(1.00, 0.00, -0.00, -1.00, 540.9, 486.0)">o</text><text xml:space="preserve" font-family="Helvetica-Light" font-size="31.0" fill="#FEFFFF" transform="matrix(1.00, 0.00, -0.00, -1.00, 558.1, 486.0)">n</text><text xml:space="preserve" font-family="Helvetica-Light" font-size="31.0" fill="#FEFFFF" transform="matrix(1.00, 0.00, -0.00, -1.00, 575.3, 486.0)"> </text><text xml:space="preserve" font-family="Helvetica-Light" font-size="31.0" fill="#FEFFFF" transform="matrix(1.00, 0.00, -0.00, -1.00, 584.0, 486.0)">i</text><text xml:space="preserve" font-family="Helvetica-Light" font-size="31.0" fill="#FEFFFF" transform="matrix(1.00, 0.00, -0.00, -1.00, 590.8, 486.0)">n</text><text xml:space="preserve" font-family="Helvetica-Light" font-size="31.0" fill="#FEFFFF" transform="matrix(1.00, 0.00, -0.00, -1.00, 608.1, 486.0)"> </text><text xml:space="preserve" font-family="Helvetica-Light" font-size="31.0" fill="#FEFFFF" transform="matrix(1.00, 0.00, -0.00, -1.00, 616.7, 486.0)">A</text><text xml:space="preserve" font-family="Helvetica-Light" font-size="31.0" fill="#FEFFFF" transform="matrix(1.00, 0.00, -0.00, -1.00, 637.4, 486.0)">I</text><text xml:space="preserve" font-family="Helvetica-Light" font-size="31.0" fill="#FEFFFF" transform="matrix(1.00, 0.00, -0.00, -1.00, 646.0, 486.0)">.</text><text xml:space="preserve" font-family="Helvetica-Light" font-size="31.0" fill="#FEFFFF" transform="matrix(1.00, 0.00, -0.00, -1.00, 654.6, 486.0)"> </text><text xml:space="preserve" font-family="Helvetica-Light" font-size="23.2" fill="#FEFFFF" transform="matrix(1.00, 0.00, -0.00, -1.00, 83.5, 414.3)">•</text><text xml:space="preserve" font-family="Helvetica-Light" font-size="31.0" fill="#FEFFFF" transform="matrix(1.00, 0.00, -0.00, -1.00, 117.0, 412.0)">T</text><text xml:space="preserve" font-family="Helvetica-Light" font-size="31.0" fill="#FEFFFF" transform="matrix(1.00, 0.00, -0.00, -1.00, 134.2, 412.0)">h</text><text xml:space="preserve" font-family="Helvetica-Light" font-size="31.0" fill="#FEFFFF" transform="matrix(1.00, 0.00, -0.00, -1.00, 151.5, 412.0)">e</text><text xml:space="preserve" font-family="Helvetica-Light" font-size="31.0" fill="#FEFFFF" transform="matrix(1.00, 0.00, -0.00, -1.00, 168.7, 412.0)">r</text><text xml:space="preserve" font-family="Helvetica-Light" font-size="31.0" fill="#FEFFFF" transform="matrix(1.00, 0.00, -0.00, -1.00, 178.5, 412.0)">e</text><text xml:space="preserve" font-family="Helvetica-Light" font-size="31.0" fill="#FEFFFF" transform="matrix(1.00, 0.00, -0.00, -1.00, 195.7, 412.0)"> </text><text xml:space="preserve" font-family="Helvetica-Light" font-size="31.0" fill="#FEFFFF" transform="matrix(1.00, 0.00, -0.00, -1.00, 204.3, 412.0)">a</text><text xml:space="preserve" font-family="Helvetica-Light" font-size="31.0" fill="#FEFFFF" transform="matrix(1.00, 0.00, -0.00, -1.00, 221.6, 412.0)">r</text><text xml:space="preserve" font-family="Helvetica-Light" font-size="31.0" fill="#FEFFFF" transform="matrix(1.00, 0.00, -0.00, -1.00, 231.3, 412.0)">e</text><text xml:space="preserve" font-family="Helvetica-Light" font-size="31.0" fill="#FEFFFF" transform="matrix(1.00, 0.00, -0.00, -1.00, 248.6, 412.0)"> </text><text xml:space="preserve" font-family="Helvetica-Light" font-size="31.0" fill="#FEFFFF" transform="matrix(1.00, 0.00, -0.00, -1.00, 257.2, 412.0)">t</text><text xml:space="preserve" font-family="Helvetica-Light" font-size="31.0" fill="#FEFFFF" transform="matrix(1.00, 0.00, -0.00, -1.00, 265.8, 412.0)">o</text><text xml:space="preserve" font-family="Helvetica-Light" font-size="31.0" fill="#FEFFFF" transform="matrix(1.00, 0.00, -0.00, -1.00, 283.0, 412.0)">o</text><text xml:space="preserve" font-family="Helvetica-Light" font-size="31.0" fill="#FEFFFF" transform="matrix(1.00, 0.00, -0.00, -1.00, 300.3, 412.0)">l</text><text xml:space="preserve" font-family="Helvetica-Light" font-size="31.0" fill="#FEFFFF" transform="matrix(1.00, 0.00, -0.00, -1.00, 307.2, 412.0)">s</text><text xml:space="preserve" font-family="Helvetica-Light" font-size="31.0" fill="#FEFFFF" transform="matrix(1.00, 0.00, -0.00, -1.00, 322.7, 412.0)"> </text><text xml:space="preserve" font-family="Helvetica-Light" font-size="31.0" fill="#FEFFFF" transform="matrix(1.00, 0.00, -0.00, -1.00, 331.3, 412.0)">t</text><text xml:space="preserve" font-family="Helvetica-Light" font-size="31.0" fill="#FEFFFF" transform="matrix(1.00, 0.00, -0.00, -1.00, 339.9, 412.0)">h</text><text xml:space="preserve" font-family="Helvetica-Light" font-size="31.0" fill="#FEFFFF" transform="matrix(1.00, 0.00, -0.00, -1.00, 357.1, 412.0)">a</text><text xml:space="preserve" font-family="Helvetica-Light" font-size="31.0" fill="#FEFFFF" transform="matrix(1.00, 0.00, -0.00, -1.00, 374.4, 412.0)">t</text><text xml:space="preserve" font-family="Helvetica-Light" font-size="31.0" fill="#FEFFFF" transform="matrix(1.00, 0.00, -0.00, -1.00, 383.0, 412.0)"> </text><text xml:space="preserve" font-family="Helvetica-Light" font-size="31.0" fill="#FEFFFF" transform="matrix(1.00, 0.00, -0.00, -1.00, 391.6, 412.0)">p</text><text xml:space="preserve" font-family="Helvetica-Light" font-size="31.0" fill="#FEFFFF" transform="matrix(1.00, 0.00, -0.00, -1.00, 410.5, 412.0)">r</text><text xml:space="preserve" font-family="Helvetica-Light" font-size="31.0" fill="#FEFFFF" transform="matrix(1.00, 0.00, -0.00, -1.00, 420.3, 412.0)">o</text><text xml:space="preserve" font-family="Helvetica-Light" font-size="31.0" fill="#FEFFFF" transform="matrix(1.00, 0.00, -0.00, -1.00, 437.5, 412.0)">v</text><text xml:space="preserve" font-family="Helvetica-Light" font-size="31.0" fill="#FEFFFF" transform="matrix(1.00, 0.00, -0.00, -1.00, 453.0, 412.0)">i</text><text xml:space="preserve" font-family="Helvetica-Light" font-size="31.0" fill="#FEFFFF" transform="matrix(1.00, 0.00, -0.00, -1.00, 459.9, 412.0)">d</text><text xml:space="preserve" font-family="Helvetica-Light" font-size="31.0" fill="#FEFFFF" transform="matrix(1.00, 0.00, -0.00, -1.00, 478.9, 412.0)">e</text><text xml:space="preserve" font-family="Helvetica-Light" font-size="31.0" fill="#FEFFFF" transform="matrix(1.00, 0.00, -0.00, -1.00, 496.1, 412.0)"> </text><text xml:space="preserve" font-family="Helvetica-Light" font-size="31.0" fill="#FEFFFF" transform="matrix(1.00, 0.00, -0.00, -1.00, 504.7, 412.0)">i</text><text xml:space="preserve" font-family="Helvetica-Light" font-size="31.0" fill="#FEFFFF" transform="matrix(1.00, 0.00, -0.00, -1.00, 511.6, 412.0)">n</text><text xml:space="preserve" font-family="Helvetica-Light" font-size="31.0" fill="#FEFFFF" transform="matrix(1.00, 0.00, -0.00, -1.00, 528.8, 412.0)">t</text><text xml:space="preserve" font-family="Helvetica-Light" font-size="31.0" fill="#FEFFFF" transform="matrix(1.00, 0.00, -0.00, -1.00, 537.5, 412.0)">e</text><text xml:space="preserve" font-family="Helvetica-Light" font-size="31.0" fill="#FEFFFF" transform="matrix(1.00, 0.00, -0.00, -1.00, 554.7, 412.0)">r</text><text xml:space="preserve" font-family="Helvetica-Light" font-size="31.0" fill="#FEFFFF" transform="matrix(1.00, 0.00, -0.00, -1.00, 565.0, 412.0)">p</text><text xml:space="preserve" font-family="Helvetica-Light" font-size="31.0" fill="#FEFFFF" transform="matrix(1.00, 0.00, -0.00, -1.00, 584.0, 412.0)">r</text><text xml:space="preserve" font-family="Helvetica-Light" font-size="31.0" fill="#FEFFFF" transform="matrix(1.00, 0.00, -0.00, -1.00, 593.7, 412.0)">e</text><text xml:space="preserve" font-family="Helvetica-Light" font-size="31.0" fill="#FEFFFF" transform="matrix(1.00, 0.00, -0.00, -1.00, 611.0, 412.0)">t</text><text xml:space="preserve" font-family="Helvetica-Light" font-size="31.0" fill="#FEFFFF" transform="matrix(1.00, 0.00, -0.00, -1.00, 619.6, 412.0)">a</text><text xml:space="preserve" font-family="Helvetica-Light" font-size="31.0" fill="#FEFFFF" transform="matrix(1.00, 0.00, -0.00, -1.00, 636.8, 412.0)">b</text><text xml:space="preserve" font-family="Helvetica-Light" font-size="31.0" fill="#FEFFFF" transform="matrix(1.00, 0.00, -0.00, -1.00, 655.7, 412.0)">i</text><text xml:space="preserve" font-family="Helvetica-Light" font-size="31.0" fill="#FEFFFF" transform="matrix(1.00, 0.00, -0.00, -1.00, 662.6, 412.0)">l</text><text xml:space="preserve" font-family="Helvetica-Light" font-size="31.0" fill="#FEFFFF" transform="matrix(1.00, 0.00, -0.00, -1.00, 669.5, 412.0)">i</text><text xml:space="preserve" font-family="Helvetica-Light" font-size="31.0" fill="#FEFFFF" transform="matrix(1.00, 0.00, -0.00, -1.00, 676.4, 412.0)">t</text><text xml:space="preserve" font-family="Helvetica-Light" font-size="31.0" fill="#FEFFFF" transform="matrix(1.00, 0.00, -0.00, -1.00, 685.0, 412.0)">y</text><text xml:space="preserve" font-family="Helvetica-Light" font-size="31.0" fill="#FEFFFF" transform="matrix(1.00, 0.00, -0.00, -1.00, 700.5, 412.0)"> </text><text xml:space="preserve" font-family="Helvetica-Light" font-size="31.0" fill="#FEFFFF" transform="matrix(1.00, 0.00, -0.00, -1.00, 709.1, 412.0)">b</text><text xml:space="preserve" font-family="Helvetica-Light" font-size="31.0" fill="#FEFFFF" transform="matrix(1.00, 0.00, -0.00, -1.00, 728.1, 412.0)">y</text><text xml:space="preserve" font-family="Helvetica-Light" font-size="31.0" fill="#FEFFFF" transform="matrix(1.00, 0.00, -0.00, -1.00, 743.6, 412.0)"> </text><text xml:space="preserve" font-family="Helvetica-Light" font-size="31.0" fill="#FEFFFF" transform="matrix(1.00, 0.00, -0.00, -1.00, 752.2, 412.0)">v</text><text xml:space="preserve" font-family="Helvetica-Light" font-size="31.0" fill="#FEFFFF" transform="matrix(1.00, 0.00, -0.00, -1.00, 767.7, 412.0)">i</text><text xml:space="preserve" font-family="Helvetica-Light" font-size="31.0" fill="#FEFFFF" transform="matrix(1.00, 0.00, -0.00, -1.00, 774.6, 412.0)">s</text><text xml:space="preserve" font-family="Helvetica-Light" font-size="31.0" fill="#FEFFFF" transform="matrix(1.00, 0.00, -0.00, -1.00, 790.1, 412.0)">u</text><text xml:space="preserve" font-family="Helvetica-Light" font-size="31.0" fill="#FEFFFF" transform="matrix(1.00, 0.00, -0.00, -1.00, 807.3, 412.0)">a</text><text xml:space="preserve" font-family="Helvetica-Light" font-size="31.0" fill="#FEFFFF" transform="matrix(1.00, 0.00, -0.00, -1.00, 824.5, 412.0)">l</text><text xml:space="preserve" font-family="Helvetica-Light" font-size="31.0" fill="#FEFFFF" transform="matrix(1.00, 0.00, -0.00, -1.00, 831.4, 412.0)">i</text><text xml:space="preserve" font-family="Helvetica-Light" font-size="31.0" fill="#FEFFFF" transform="matrix(1.00, 0.00, -0.00, -1.00, 838.3, 412.0)">z</text><text xml:space="preserve" font-family="Helvetica-Light" font-size="31.0" fill="#FEFFFF" transform="matrix(1.00, 0.00, -0.00, -1.00, 853.8, 412.0)">i</text><text xml:space="preserve" font-family="Helvetica-Light" font-size="31.0" fill="#FEFFFF" transform="matrix(1.00, 0.00, -0.00, -1.00, 860.7, 412.0)">n</text><text xml:space="preserve" font-family="Helvetica-Light" font-size="31.0" fill="#FEFFFF" transform="matrix(1.00, 0.00, -0.00, -1.00, 877.9, 412.0)">g</text><text xml:space="preserve" font-family="Helvetica-Light" font-size="31.0" fill="#FEFFFF" transform="matrix(1.00, 0.00, -0.00, -1.00, 896.9, 412.0)"> </text><text xml:space="preserve" font-family="Helvetica-Light" font-size="31.0" fill="#FEFFFF" transform="matrix(1.00, 0.00, -0.00, -1.00, 117.0, 375.0)">t</text><text xml:space="preserve" font-family="Helvetica-Light" font-size="31.0" fill="#FEFFFF" transform="matrix(1.00, 0.00, -0.00, -1.00, 125.6, 375.0)">h</text><text xml:space="preserve" font-family="Helvetica-Light" font-size="31.0" fill="#FEFFFF" transform="matrix(1.00, 0.00, -0.00, -1.00, 142.9, 375.0)">e</text><text xml:space="preserve" font-family="Helvetica-Light" font-size="31.0" fill="#FEFFFF" transform="matrix(1.00, 0.00, -0.00, -1.00, 160.1, 375.0)"> </text><text xml:space="preserve" font-family="Helvetica-Light" font-size="31.0" fill="#FEFFFF" transform="matrix(1.00, 0.00, -0.00, -1.00, 168.7, 375.0)">i</text><text xml:space="preserve" font-family="Helvetica-Light" font-size="31.0" fill="#FEFFFF" transform="matrix(1.00, 0.00, -0.00, -1.00, 175.6, 375.0)">n</text><text xml:space="preserve" font-family="Helvetica-Light" font-size="31.0" fill="#FEFFFF" transform="matrix(1.00, 0.00, -0.00, -1.00, 192.8, 375.0)">n</text><text xml:space="preserve" font-family="Helvetica-Light" font-size="31.0" fill="#FEFFFF" transform="matrix(1.00, 0.00, -0.00, -1.00, 210.1, 375.0)">e</text><text xml:space="preserve" font-family="Helvetica-Light" font-size="31.0" fill="#FEFFFF" transform="matrix(1.00, 0.00, -0.00, -1.00, 227.3, 375.0)">r</text><text xml:space="preserve" font-family="Helvetica-Light" font-size="31.0" fill="#FEFFFF" transform="matrix(1.00, 0.00, -0.00, -1.00, 237.6, 375.0)"> </text><text xml:space="preserve" font-family="Helvetica-Light" font-size="31.0" fill="#FEFFFF" transform="matrix(1.00, 0.00, -0.00, -1.00, 246.2, 375.0)">p</text><text xml:space="preserve" font-family="Helvetica-Light" font-size="31.0" fill="#FEFFFF" transform="matrix(1.00, 0.00, -0.00, -1.00, 265.2, 375.0)">r</text><text xml:space="preserve" font-family="Helvetica-Light" font-size="31.0" fill="#FEFFFF" transform="matrix(1.00, 0.00, -0.00, -1.00, 274.9, 375.0)">o</text><text xml:space="preserve" font-family="Helvetica-Light" font-size="31.0" fill="#FEFFFF" transform="matrix(1.00, 0.00, -0.00, -1.00, 292.2, 375.0)">c</text><text xml:space="preserve" font-family="Helvetica-Light" font-size="31.0" fill="#FEFFFF" transform="matrix(1.00, 0.00, -0.00, -1.00, 309.4, 375.0)">e</text><text xml:space="preserve" font-family="Helvetica-Light" font-size="31.0" fill="#FEFFFF" transform="matrix(1.00, 0.00, -0.00, -1.00, 326.7, 375.0)">s</text><text xml:space="preserve" font-family="Helvetica-Light" font-size="31.0" fill="#FEFFFF" transform="matrix(1.00, 0.00, -0.00, -1.00, 342.2, 375.0)">s</text><text xml:space="preserve" font-family="Helvetica-Light" font-size="31.0" fill="#FEFFFF" transform="matrix(1.00, 0.00, -0.00, -1.00, 357.7, 375.0)">e</text><text xml:space="preserve" font-family="Helvetica-Light" font-size="31.0" fill="#FEFFFF" transform="matrix(1.00, 0.00, -0.00, -1.00, 374.9, 375.0)">s</text><text xml:space="preserve" font-family="Helvetica-Light" font-size="31.0" fill="#FEFFFF" transform="matrix(1.00, 0.00, -0.00, -1.00, 390.4, 375.0)"> </text><text xml:space="preserve" font-family="Helvetica-Light" font-size="31.0" fill="#FEFFFF" transform="matrix(1.00, 0.00, -0.00, -1.00, 399.0, 375.0)">o</text><text xml:space="preserve" font-family="Helvetica-Light" font-size="31.0" fill="#FEFFFF" transform="matrix(1.00, 0.00, -0.00, -1.00, 416.2, 375.0)">f</text><text xml:space="preserve" font-family="Helvetica-Light" font-size="31.0" fill="#FEFFFF" transform="matrix(1.00, 0.00, -0.00, -1.00, 424.9, 375.0)"> </text><text xml:space="preserve" font-family="Helvetica-Light" font-size="31.0" fill="#FEFFFF" transform="matrix(1.00, 0.00, -0.00, -1.00, 433.5, 375.0)">C</text><text xml:space="preserve" font-family="Helvetica-Light" font-size="31.0" fill="#FEFFFF" transform="matrix(1.00, 0.00, -0.00, -1.00, 455.9, 375.0)">N</text><text xml:space="preserve" font-family="Helvetica-Light" font-size="31.0" fill="#FEFFFF" transform="matrix(1.00, 0.00, -0.00, -1.00, 478.2, 375.0)">N</text><text xml:space="preserve" font-family="Helvetica-Light" font-size="31.0" fill="#FEFFFF" transform="matrix(1.00, 0.00, -0.00, -1.00, 500.6, 375.0)">.</text><text xml:space="preserve" font-family="Helvetica-Light" font-size="31.0" fill="#FEFFFF" transform="matrix(1.00, 0.00, -0.00, -1.00, 509.2, 375.0)"> </text><text xml:space="preserve" font-family="Helvetica-Light" font-size="31.0" fill="#FEFFFF" transform="matrix(1.00, 0.00, -0.00, -1.00, 517.9, 375.0)"> </text><image xlink:href="../../39451CEE-E280-41CA-872D-216C9FC86FAF/assets/B8AFB5809FB104949F39FEEDA9A0544F.png" width="603.00" height="603.00" transform="matrix(0.42, 0.00, -0.00, -0.42, 360.0, 303.0)"></image></g></svg>