<?xml version="1.0" encoding="UTF-8" standalone="no"?><svg xmlns="http://www.w3.org/2000/svg" xmlns:xlink="http://www.w3.org/1999/xlink" clip-rule="evenodd" stroke-miterlimit="4.00" viewBox="0 0 1024 768"><desc>SVG generated by Keynote</desc><defs></defs><g transform="matrix(1.00, 0.00, -0.00, -1.00, 0.0, 768.0)"><path d="M 0.0 768.0 L 1024.0 768.0 L 1024.0 0.0 L 0.0 0.0 Z M 0.0 768.0 " fill="#000000"></path><text xml:space="preserve" font-family="Helvetica-Light" font-size="49.6" fill="#FEFFFF" transform="matrix(1.00, 0.00, -0.00, -1.00, 80.0, 674.0)">M</text><text xml:space="preserve" font-family="Helvetica-Light" font-size="49.6" fill="#FEFFFF" transform="matrix(1.00, 0.00, -0.00, -1.00, 121.3, 674.0)">o</text><text xml:space="preserve" font-family="Helvetica-Light" font-size="49.6" fill="#FEFFFF" transform="matrix(1.00, 0.00, -0.00, -1.00, 148.9, 674.0)">t</text><text xml:space="preserve" font-family="Helvetica-Light" font-size="49.6" fill="#FEFFFF" transform="matrix(1.00, 0.00, -0.00, -1.00, 162.7, 674.0)">i</text><text xml:space="preserve" font-family="Helvetica-Light" font-size="49.6" fill="#FEFFFF" transform="matrix(1.00, 0.00, -0.00, -1.00, 173.7, 674.0)">v</text><text xml:space="preserve" font-family="Helvetica-Light" font-size="49.6" fill="#FEFFFF" transform="matrix(1.00, 0.00, -0.00, -1.00, 198.5, 674.0)">a</text><text xml:space="preserve" font-family="Helvetica-Light" font-size="49.6" fill="#FEFFFF" transform="matrix(1.00, 0.00, -0.00, -1.00, 226.1, 674.0)">t</text><text xml:space="preserve" font-family="Helvetica-Light" font-size="49.6" fill="#FEFFFF" transform="matrix(1.00, 0.00, -0.00, -1.00, 239.9, 674.0)">i</text><text xml:space="preserve" font-family="Helvetica-Light" font-size="49.6" fill="#FEFFFF" transform="matrix(1.00, 0.00, -0.00, -1.00, 250.9, 674.0)">o</text><text xml:space="preserve" font-family="Helvetica-Light" font-size="49.6" fill="#FEFFFF" transform="matrix(1.00, 0.00, -0.00, -1.00, 278.4, 674.0)">n</text><text xml:space="preserve" font-family="Helvetica-Light" font-size="49.6" fill="#FEFFFF" transform="matrix(1.00, 0.00, -0.00, -1.00, 306.0, 674.0)"> </text><text xml:space="preserve" font-family="Helvetica-Light" font-size="49.6" fill="#FEFFFF" transform="matrix(1.00, 0.00, -0.00, -1.00, 319.8, 674.0)">1</text><text xml:space="preserve" font-family="Helvetica-Light" font-size="49.6" fill="#FEFFFF" transform="matrix(1.00, 0.00, -0.00, -1.00, 347.4, 674.0)">:</text><text xml:space="preserve" font-family="Helvetica-Light" font-size="49.6" fill="#FEFFFF" transform="matrix(1.00, 0.00, -0.00, -1.00, 361.2, 674.0)"> </text><text xml:space="preserve" font-family="Helvetica-Light" font-size="49.6" fill="#FEFFFF" transform="matrix(1.00, 0.00, -0.00, -1.00, 375.0, 674.0)">C</text><text xml:space="preserve" font-family="Helvetica-Light" font-size="49.6" fill="#FEFFFF" transform="matrix(1.00, 0.00, -0.00, -1.00, 410.8, 674.0)">o</text><text xml:space="preserve" font-family="Helvetica-Light" font-size="49.6" fill="#FEFFFF" transform="matrix(1.00, 0.00, -0.00, -1.00, 438.4, 674.0)">n</text><text xml:space="preserve" font-family="Helvetica-Light" font-size="49.6" fill="#FEFFFF" transform="matrix(1.00, 0.00, -0.00, -1.00, 465.9, 674.0)">ﬁ</text><text xml:space="preserve" font-family="Helvetica-Light" font-size="49.6" fill="#FEFFFF" transform="matrix(1.00, 0.00, -0.00, -1.00, 490.7, 674.0)">d</text><text xml:space="preserve" font-family="Helvetica-Light" font-size="49.6" fill="#FEFFFF" transform="matrix(1.00, 0.00, -0.00, -1.00, 521.0, 674.0)">e</text><text xml:space="preserve" font-family="Helvetica-Light" font-size="49.6" fill="#FEFFFF" transform="matrix(1.00, 0.00, -0.00, -1.00, 548.6, 674.0)">n</text><text xml:space="preserve" font-family="Helvetica-Light" font-size="49.6" fill="#FEFFFF" transform="matrix(1.00, 0.00, -0.00, -1.00, 576.2, 674.0)">c</text><text xml:space="preserve" font-family="Helvetica-Light" font-size="49.6" fill="#FEFFFF" transform="matrix(1.00, 0.00, -0.00, -1.00, 603.8, 674.0)">e</text><text xml:space="preserve" font-family="Helvetica-Light" font-size="49.6" fill="#FEFFFF" transform="matrix(1.00, 0.00, -0.00, -1.00, 631.4, 674.0)"> </text><text xml:space="preserve" font-family="Helvetica-Light" font-size="49.6" fill="#FEFFFF" transform="matrix(1.00, 0.00, -0.00, -1.00, 645.1, 674.0)">i</text><text xml:space="preserve" font-family="Helvetica-Light" font-size="49.6" fill="#FEFFFF" transform="matrix(1.00, 0.00, -0.00, -1.00, 656.2, 674.0)">n</text><text xml:space="preserve" font-family="Helvetica-Light" font-size="49.6" fill="#FEFFFF" transform="matrix(1.00, 0.00, -0.00, -1.00, 683.7, 674.0)"> </text><text xml:space="preserve" font-family="Helvetica-Light" font-size="49.6" fill="#FEFFFF" transform="matrix(1.00, 0.00, -0.00, -1.00, 697.5, 674.0)">P</text><text xml:space="preserve" font-family="Helvetica-Light" font-size="49.6" fill="#FEFFFF" transform="matrix(1.00, 0.00, -0.00, -1.00, 727.8, 674.0)">r</text><text xml:space="preserve" font-family="Helvetica-Light" font-size="49.6" fill="#FEFFFF" transform="matrix(1.00, 0.00, -0.00, -1.00, 743.4, 674.0)">e</text><text xml:space="preserve" font-family="Helvetica-Light" font-size="49.6" fill="#FEFFFF" transform="matrix(1.00, 0.00, -0.00, -1.00, 771.0, 674.0)">d</text><text xml:space="preserve" font-family="Helvetica-Light" font-size="49.6" fill="#FEFFFF" transform="matrix(1.00, 0.00, -0.00, -1.00, 801.3, 674.0)">i</text><text xml:space="preserve" font-family="Helvetica-Light" font-size="49.6" fill="#FEFFFF" transform="matrix(1.00, 0.00, -0.00, -1.00, 812.3, 674.0)">c</text><text xml:space="preserve" font-family="Helvetica-Light" font-size="49.6" fill="#FEFFFF" transform="matrix(1.00, 0.00, -0.00, -1.00, 839.9, 674.0)">t</text><text xml:space="preserve" font-family="Helvetica-Light" font-size="49.6" fill="#FEFFFF" transform="matrix(1.00, 0.00, -0.00, -1.00, 853.7, 674.0)">i</text><text xml:space="preserve" font-family="Helvetica-Light" font-size="49.6" fill="#FEFFFF" transform="matrix(1.00, 0.00, -0.00, -1.00, 864.7, 674.0)">o</text><text xml:space="preserve" font-family="Helvetica-Light" font-size="49.6" fill="#FEFFFF" transform="matrix(1.00, 0.00, -0.00, -1.00, 892.3, 674.0)">n</text><text xml:space="preserve" font-family="Helvetica-Light" font-size="49.6" fill="#FEFFFF" transform="matrix(1.00, 0.00, -0.00, -1.00, 919.9, 674.0)">s</text><text xml:space="preserve" font-family="Helvetica-Light" font-size="49.6" fill="#FEFFFF" transform="matrix(1.00, 0.00, -0.00, -1.00, 944.7, 674.0)"> </text><image xlink:href="../../D9190ABE-7764-4403-B386-5BEC002C5D5B/assets/0D35F5649BA9759B04BA08138B24F514.png" width="371.00" height="439.00" transform="matrix(1.11, 0.00, -0.00, -1.11, 275.0, 616.0)"></image><text xml:space="preserve" font-family="Helvetica-Light" font-size="25.5" fill="#FEFFFF" transform="matrix(1.00, 0.00, -0.00, -1.00, 26.9, 76.4)">•</text><text xml:space="preserve" font-family="Helvetica-Light" font-size="34.0" fill="#FEFFFF" transform="matrix(1.00, 0.00, -0.00, -1.00, 60.0, 73.0)">A</text><text xml:space="preserve" font-family="Helvetica-Light" font-size="34.0" fill="#FEFFFF" transform="matrix(1.00, 0.00, -0.00, -1.00, 82.7, 73.0)"> </text><text xml:space="preserve" font-family="Helvetica-Light" font-size="34.0" fill="#FEFFFF" transform="matrix(1.00, 0.00, -0.00, -1.00, 92.1, 73.0)">D</text><text xml:space="preserve" font-family="Helvetica-Light" font-size="34.0" fill="#FEFFFF" transform="matrix(1.00, 0.00, -0.00, -1.00, 116.7, 73.0)">e</text><text xml:space="preserve" font-family="Helvetica-Light" font-size="34.0" fill="#FEFFFF" transform="matrix(1.00, 0.00, -0.00, -1.00, 135.6, 73.0)">e</text><text xml:space="preserve" font-family="Helvetica-Light" font-size="34.0" fill="#FEFFFF" transform="matrix(1.00, 0.00, -0.00, -1.00, 154.5, 73.0)">p</text><text xml:space="preserve" font-family="Helvetica-Light" font-size="34.0" fill="#FEFFFF" transform="matrix(1.00, 0.00, -0.00, -1.00, 175.3, 73.0)"> </text><text xml:space="preserve" font-family="Helvetica-Light" font-size="34.0" fill="#FEFFFF" transform="matrix(1.00, 0.00, -0.00, -1.00, 184.7, 73.0)">N</text><text xml:space="preserve" font-family="Helvetica-Light" font-size="34.0" fill="#FEFFFF" transform="matrix(1.00, 0.00, -0.00, -1.00, 209.3, 73.0)">e</text><text xml:space="preserve" font-family="Helvetica-Light" font-size="34.0" fill="#FEFFFF" transform="matrix(1.00, 0.00, -0.00, -1.00, 228.2, 73.0)">u</text><text xml:space="preserve" font-family="Helvetica-Light" font-size="34.0" fill="#FEFFFF" transform="matrix(1.00, 0.00, -0.00, -1.00, 247.1, 73.0)">r</text><text xml:space="preserve" font-family="Helvetica-Light" font-size="34.0" fill="#FEFFFF" transform="matrix(1.00, 0.00, -0.00, -1.00, 258.4, 73.0)">a</text><text xml:space="preserve" font-family="Helvetica-Light" font-size="34.0" fill="#FEFFFF" transform="matrix(1.00, 0.00, -0.00, -1.00, 277.3, 73.0)">l</text><text xml:space="preserve" font-family="Helvetica-Light" font-size="34.0" fill="#FEFFFF" transform="matrix(1.00, 0.00, -0.00, -1.00, 284.8, 73.0)"> </text><text xml:space="preserve" font-family="Helvetica-Light" font-size="34.0" fill="#FEFFFF" transform="matrix(1.00, 0.00, -0.00, -1.00, 294.3, 73.0)">N</text><text xml:space="preserve" font-family="Helvetica-Light" font-size="34.0" fill="#FEFFFF" transform="matrix(1.00, 0.00, -0.00, -1.00, 318.8, 73.0)">e</text><text xml:space="preserve" font-family="Helvetica-Light" font-size="34.0" fill="#FEFFFF" transform="matrix(1.00, 0.00, -0.00, -1.00, 337.7, 73.0)">t</text><text xml:space="preserve" font-family="Helvetica-Light" font-size="34.0" fill="#FEFFFF" transform="matrix(1.00, 0.00, -0.00, -1.00, 347.2, 73.0)">w</text><text xml:space="preserve" font-family="Helvetica-Light" font-size="34.0" fill="#FEFFFF" transform="matrix(1.00, 0.00, -0.00, -1.00, 371.7, 73.0)">o</text><text xml:space="preserve" font-family="Helvetica-Light" font-size="34.0" fill="#FEFFFF" transform="matrix(1.00, 0.00, -0.00, -1.00, 390.6, 73.0)">r</text><text xml:space="preserve" font-family="Helvetica-Light" font-size="34.0" fill="#FEFFFF" transform="matrix(1.00, 0.00, -0.00, -1.00, 402.0, 73.0)">k</text><text xml:space="preserve" font-family="Helvetica-Light" font-size="34.0" fill="#FEFFFF" transform="matrix(1.00, 0.00, -0.00, -1.00, 419.0, 73.0)"> </text><text xml:space="preserve" font-family="Helvetica-Light" font-size="34.0" fill="#FEFFFF" transform="matrix(1.00, 0.00, -0.00, -1.00, 428.4, 73.0)">i</text><text xml:space="preserve" font-family="Helvetica-Light" font-size="34.0" fill="#FEFFFF" transform="matrix(1.00, 0.00, -0.00, -1.00, 436.0, 73.0)">s</text><text xml:space="preserve" font-family="Helvetica-Light" font-size="34.0" fill="#FEFFFF" transform="matrix(1.00, 0.00, -0.00, -1.00, 453.0, 73.0)"> </text><text xml:space="preserve" font-family="Helvetica-Light" font-size="34.0" fill="#FEFFFF" transform="matrix(1.00, 0.00, -0.00, -1.00, 462.4, 73.0)">o</text><text xml:space="preserve" font-family="Helvetica-Light" font-size="34.0" fill="#FEFFFF" transform="matrix(1.00, 0.00, -0.00, -1.00, 481.3, 73.0)">f</text><text xml:space="preserve" font-family="Helvetica-Light" font-size="34.0" fill="#FEFFFF" transform="matrix(1.00, 0.00, -0.00, -1.00, 490.8, 73.0)">t</text><text xml:space="preserve" font-family="Helvetica-Light" font-size="34.0" fill="#FEFFFF" transform="matrix(1.00, 0.00, -0.00, -1.00, 500.2, 73.0)">e</text><text xml:space="preserve" font-family="Helvetica-Light" font-size="34.0" fill="#FEFFFF" transform="matrix(1.00, 0.00, -0.00, -1.00, 519.1, 73.0)">n</text><text xml:space="preserve" font-family="Helvetica-Light" font-size="34.0" fill="#FEFFFF" transform="matrix(1.00, 0.00, -0.00, -1.00, 538.0, 73.0)"> </text><text xml:space="preserve" font-family="Helvetica-Light" font-size="34.0" fill="#FEFFFF" transform="matrix(1.00, 0.00, -0.00, -1.00, 547.5, 73.0)">c</text><text xml:space="preserve" font-family="Helvetica-Light" font-size="34.0" fill="#FEFFFF" transform="matrix(1.00, 0.00, -0.00, -1.00, 566.4, 73.0)">o</text><text xml:space="preserve" font-family="Helvetica-Light" font-size="34.0" fill="#FEFFFF" transform="matrix(1.00, 0.00, -0.00, -1.00, 585.3, 73.0)">n</text><text xml:space="preserve" font-family="Helvetica-Light" font-size="34.0" fill="#FEFFFF" transform="matrix(1.00, 0.00, -0.00, -1.00, 604.2, 73.0)">s</text><text xml:space="preserve" font-family="Helvetica-Light" font-size="34.0" fill="#FEFFFF" transform="matrix(1.00, 0.00, -0.00, -1.00, 621.2, 73.0)">i</text><text xml:space="preserve" font-family="Helvetica-Light" font-size="34.0" fill="#FEFFFF" transform="matrix(1.00, 0.00, -0.00, -1.00, 628.8, 73.0)">d</text><text xml:space="preserve" font-family="Helvetica-Light" font-size="34.0" fill="#FEFFFF" transform="matrix(1.00, 0.00, -0.00, -1.00, 649.5, 73.0)">e</text><text xml:space="preserve" font-family="Helvetica-Light" font-size="34.0" fill="#FEFFFF" transform="matrix(1.00, 0.00, -0.00, -1.00, 668.4, 73.0)">r</text><text xml:space="preserve" font-family="Helvetica-Light" font-size="34.0" fill="#FEFFFF" transform="matrix(1.00, 0.00, -0.00, -1.00, 679.1, 73.0)">e</text><text xml:space="preserve" font-family="Helvetica-Light" font-size="34.0" fill="#FEFFFF" transform="matrix(1.00, 0.00, -0.00, -1.00, 698.0, 73.0)">d</text><text xml:space="preserve" font-family="Helvetica-Light" font-size="34.0" fill="#FEFFFF" transform="matrix(1.00, 0.00, -0.00, -1.00, 718.8, 73.0)"> </text><text xml:space="preserve" font-family="Helvetica-Light" font-size="34.0" fill="#FEFFFF" transform="matrix(1.00, 0.00, -0.00, -1.00, 728.3, 73.0)">a</text><text xml:space="preserve" font-family="Helvetica-Light" font-size="34.0" fill="#FEFFFF" transform="matrix(1.00, 0.00, -0.00, -1.00, 747.2, 73.0)">s</text><text xml:space="preserve" font-family="Helvetica-Light" font-size="34.0" fill="#FEFFFF" transform="matrix(1.00, 0.00, -0.00, -1.00, 764.2, 73.0)"> </text><text xml:space="preserve" font-family="Helvetica-Light" font-size="34.0" fill="#FEFFFF" transform="matrix(1.00, 0.00, -0.00, -1.00, 773.6, 73.0)">a</text><text xml:space="preserve" font-family="Helvetica-Light" font-size="34.0" fill="#FEFFFF" transform="matrix(1.00, 0.00, -0.00, -1.00, 792.5, 73.0)"> </text><text xml:space="preserve" font-family="Helvetica-Light" font-size="34.0" fill="#FEFFFF" transform="matrix(1.00, 0.00, -0.00, -1.00, 802.0, 73.0)">„</text><text xml:space="preserve" font-family="Helvetica-Light" font-size="34.0" fill="#FEFFFF" transform="matrix(1.00, 0.00, -0.00, -1.00, 815.2, 73.0)">b</text><text xml:space="preserve" font-family="Helvetica-Light" font-size="34.0" fill="#FEFFFF" transform="matrix(1.00, 0.00, -0.00, -1.00, 836.0, 73.0)">l</text><text xml:space="preserve" font-family="Helvetica-Light" font-size="34.0" fill="#FEFFFF" transform="matrix(1.00, 0.00, -0.00, -1.00, 843.5, 73.0)">a</text><text xml:space="preserve" font-family="Helvetica-Light" font-size="34.0" fill="#FEFFFF" transform="matrix(1.00, 0.00, -0.00, -1.00, 862.4, 73.0)">c</text><text xml:space="preserve" font-family="Helvetica-Light" font-size="34.0" fill="#FEFFFF" transform="matrix(1.00, 0.00, -0.00, -1.00, 881.3, 73.0)">k</text><text xml:space="preserve" font-family="Helvetica-Light" font-size="34.0" fill="#FEFFFF" transform="matrix(1.00, 0.00, -0.00, -1.00, 898.3, 73.0)"> </text><text xml:space="preserve" font-family="Helvetica-Light" font-size="34.0" fill="#FEFFFF" transform="matrix(1.00, 0.00, -0.00, -1.00, 907.8, 73.0)">b</text><text xml:space="preserve" font-family="Helvetica-Light" font-size="34.0" fill="#FEFFFF" transform="matrix(1.00, 0.00, -0.00, -1.00, 928.6, 73.0)">o</text><text xml:space="preserve" font-family="Helvetica-Light" font-size="34.0" fill="#FEFFFF" transform="matrix(1.00, 0.00, -0.00, -1.00, 947.5, 73.0)">x</text><text xml:space="preserve" font-family="Helvetica-Light" font-size="34.0" fill="#FEFFFF" transform="matrix(1.00, 0.00, -0.00, -1.00, 964.5, 73.0)">“</text><text xml:space="preserve" font-family="Helvetica-Light" font-size="34.0" fill="#FEFFFF" transform="matrix(1.00, 0.00, -0.00, -1.00, 977.7, 73.0)">.</text><text xml:space="preserve" font-family="Helvetica-Light" font-size="34.0" fill="#FEFFFF" transform="matrix(1.00, 0.00, -0.00, -1.00, 987.1, 73.0)"> </text></g></svg>