<?xml version="1.0" encoding="UTF-8" standalone="no"?><svg xmlns="http://www.w3.org/2000/svg" xmlns:xlink="http://www.w3.org/1999/xlink" clip-rule="evenodd" stroke-miterlimit="4.00" viewBox="0 0 1024 768"><desc>SVG generated by Keynote</desc><defs></defs><g transform="matrix(1.00, 0.00, -0.00, -1.00, 0.0, 768.0)"><path d="M 0.0 768.0 L 1024.0 768.0 L 1024.0 0.0 L 0.0 0.0 Z M 0.0 768.0 " fill="#000000"></path><text xml:space="preserve" font-family="Helvetica-Light" font-size="57.0" fill="#FEFFFF" transform="matrix(1.00, 0.00, -0.00, -1.00, 232.0, 691.0)">M</text><text xml:space="preserve" font-family="Helvetica-Light" font-size="57.0" fill="#FEFFFF" transform="matrix(1.00, 0.00, -0.00, -1.00, 279.5, 691.0)">o</text><text xml:space="preserve" font-family="Helvetica-Light" font-size="57.0" fill="#FEFFFF" transform="matrix(1.00, 0.00, -0.00, -1.00, 311.2, 691.0)">t</text><text xml:space="preserve" font-family="Helvetica-Light" font-size="57.0" fill="#FEFFFF" transform="matrix(1.00, 0.00, -0.00, -1.00, 327.0, 691.0)">i</text><text xml:space="preserve" font-family="Helvetica-Light" font-size="57.0" fill="#FEFFFF" transform="matrix(1.00, 0.00, -0.00, -1.00, 339.7, 691.0)">v</text><text xml:space="preserve" font-family="Helvetica-Light" font-size="57.0" fill="#FEFFFF" transform="matrix(1.00, 0.00, -0.00, -1.00, 368.2, 691.0)">a</text><text xml:space="preserve" font-family="Helvetica-Light" font-size="57.0" fill="#FEFFFF" transform="matrix(1.00, 0.00, -0.00, -1.00, 399.9, 691.0)">t</text><text xml:space="preserve" font-family="Helvetica-Light" font-size="57.0" fill="#FEFFFF" transform="matrix(1.00, 0.00, -0.00, -1.00, 415.7, 691.0)">i</text><text xml:space="preserve" font-family="Helvetica-Light" font-size="57.0" fill="#FEFFFF" transform="matrix(1.00, 0.00, -0.00, -1.00, 428.4, 691.0)">o</text><text xml:space="preserve" font-family="Helvetica-Light" font-size="57.0" fill="#FEFFFF" transform="matrix(1.00, 0.00, -0.00, -1.00, 460.1, 691.0)">n</text><text xml:space="preserve" font-family="Helvetica-Light" font-size="57.0" fill="#FEFFFF" transform="matrix(1.00, 0.00, -0.00, -1.00, 491.7, 691.0)"> </text><text xml:space="preserve" font-family="Helvetica-Light" font-size="57.0" fill="#FEFFFF" transform="matrix(1.00, 0.00, -0.00, -1.00, 507.6, 691.0)">2</text><text xml:space="preserve" font-family="Helvetica-Light" font-size="57.0" fill="#FEFFFF" transform="matrix(1.00, 0.00, -0.00, -1.00, 539.3, 691.0)">:</text><text xml:space="preserve" font-family="Helvetica-Light" font-size="57.0" fill="#FEFFFF" transform="matrix(1.00, 0.00, -0.00, -1.00, 555.1, 691.0)"> </text><text xml:space="preserve" font-family="Helvetica-Light" font-size="57.0" fill="#FEFFFF" transform="matrix(1.00, 0.00, -0.00, -1.00, 571.0, 691.0)">A</text><text xml:space="preserve" font-family="Helvetica-Light" font-size="57.0" fill="#FEFFFF" transform="matrix(1.00, 0.00, -0.00, -1.00, 609.0, 691.0)">I</text><text xml:space="preserve" font-family="Helvetica-Light" font-size="57.0" fill="#FEFFFF" transform="matrix(1.00, 0.00, -0.00, -1.00, 624.8, 691.0)"> </text><text xml:space="preserve" font-family="Helvetica-Light" font-size="57.0" fill="#FEFFFF" transform="matrix(1.00, 0.00, -0.00, -1.00, 640.7, 691.0)">s</text><text xml:space="preserve" font-family="Helvetica-Light" font-size="57.0" fill="#FEFFFF" transform="matrix(1.00, 0.00, -0.00, -1.00, 669.2, 691.0)">a</text><text xml:space="preserve" font-family="Helvetica-Light" font-size="57.0" fill="#FEFFFF" transform="matrix(1.00, 0.00, -0.00, -1.00, 700.9, 691.0)">f</text><text xml:space="preserve" font-family="Helvetica-Light" font-size="57.0" fill="#FEFFFF" transform="matrix(1.00, 0.00, -0.00, -1.00, 716.7, 691.0)">e</text><text xml:space="preserve" font-family="Helvetica-Light" font-size="57.0" fill="#FEFFFF" transform="matrix(1.00, 0.00, -0.00, -1.00, 748.4, 691.0)">t</text><text xml:space="preserve" font-family="Helvetica-Light" font-size="57.0" fill="#FEFFFF" transform="matrix(1.00, 0.00, -0.00, -1.00, 764.3, 691.0)">y</text><text xml:space="preserve" font-family="Helvetica-Light" font-size="57.0" fill="#FEFFFF" transform="matrix(1.00, 0.00, -0.00, -1.00, 792.8, 691.0)"> </text><image xlink:href="150B76441981A695FE1E39DB0114A517.png" width="727.00" height="372.00" transform="matrix(1.00, 0.00, -0.00, -1.00, 149.0, 600.0)"></image><text xml:space="preserve" font-family="Helvetica-Light" font-size="14.0" fill="#FEFFFF" transform="matrix(1.00, 0.00, -0.00, -1.00, 154.0, 206.0)">(</text><text xml:space="preserve" font-family="Helvetica-Light" font-size="14.0" fill="#FEFFFF" transform="matrix(1.00, 0.00, -0.00, -1.00, 158.7, 206.0)">s</text><text xml:space="preserve" font-family="Helvetica-Light" font-size="14.0" fill="#FEFFFF" transform="matrix(1.00, 0.00, -0.00, -1.00, 165.7, 206.0)">o</text><text xml:space="preserve" font-family="Helvetica-Light" font-size="14.0" fill="#FEFFFF" transform="matrix(1.00, 0.00, -0.00, -1.00, 173.4, 206.0)">u</text><text xml:space="preserve" font-family="Helvetica-Light" font-size="14.0" fill="#FEFFFF" transform="matrix(1.00, 0.00, -0.00, -1.00, 181.2, 206.0)">r</text><text xml:space="preserve" font-family="Helvetica-Light" font-size="14.0" fill="#FEFFFF" transform="matrix(1.00, 0.00, -0.00, -1.00, 185.6, 206.0)">c</text><text xml:space="preserve" font-family="Helvetica-Light" font-size="14.0" fill="#FEFFFF" transform="matrix(1.00, 0.00, -0.00, -1.00, 193.4, 206.0)">e</text><text xml:space="preserve" font-family="Helvetica-Light" font-size="14.0" fill="#FEFFFF" transform="matrix(1.00, 0.00, -0.00, -1.00, 201.2, 206.0)">:</text><text xml:space="preserve" font-family="Helvetica-Light" font-size="14.0" fill="#FEFFFF" transform="matrix(1.00, 0.00, -0.00, -1.00, 205.1, 206.0)"> </text><text xml:space="preserve" font-family="Helvetica-Light" font-size="14.0" fill="#FEFFFF" transform="matrix(1.00, 0.00, -0.00, -1.00, 209.0, 206.0)">F</text><text xml:space="preserve" font-family="Helvetica-Light" font-size="14.0" fill="#FEFFFF" transform="matrix(1.00, 0.00, -0.00, -1.00, 216.8, 206.0)">e</text><text xml:space="preserve" font-family="Helvetica-Light" font-size="14.0" fill="#FEFFFF" transform="matrix(1.00, 0.00, -0.00, -1.00, 224.6, 206.0)">i</text><text xml:space="preserve" font-family="Helvetica-Light" font-size="14.0" fill="#FEFFFF" transform="matrix(1.00, 0.00, -0.00, -1.00, 227.7, 206.0)">-</text><text xml:space="preserve" font-family="Helvetica-Light" font-size="14.0" fill="#FEFFFF" transform="matrix(1.00, 0.00, -0.00, -1.00, 232.3, 206.0)">F</text><text xml:space="preserve" font-family="Helvetica-Light" font-size="14.0" fill="#FEFFFF" transform="matrix(1.00, 0.00, -0.00, -1.00, 240.1, 206.0)">e</text><text xml:space="preserve" font-family="Helvetica-Light" font-size="14.0" fill="#FEFFFF" transform="matrix(1.00, 0.00, -0.00, -1.00, 247.9, 206.0)">i</text><text xml:space="preserve" font-family="Helvetica-Light" font-size="14.0" fill="#FEFFFF" transform="matrix(1.00, 0.00, -0.00, -1.00, 251.0, 206.0)"> </text><text xml:space="preserve" font-family="Helvetica-Light" font-size="14.0" fill="#FEFFFF" transform="matrix(1.00, 0.00, -0.00, -1.00, 254.9, 206.0)">L</text><text xml:space="preserve" font-family="Helvetica-Light" font-size="14.0" fill="#FEFFFF" transform="matrix(1.00, 0.00, -0.00, -1.00, 262.7, 206.0)">i</text><text xml:space="preserve" font-family="Helvetica-Light" font-size="14.0" fill="#FEFFFF" transform="matrix(1.00, 0.00, -0.00, -1.00, 265.8, 206.0)"> </text><text xml:space="preserve" font-family="Helvetica-Light" font-size="14.0" fill="#FEFFFF" transform="matrix(1.00, 0.00, -0.00, -1.00, 269.7, 206.0)">&amp;</text><text xml:space="preserve" font-family="Helvetica-Light" font-size="14.0" fill="#FEFFFF" transform="matrix(1.00, 0.00, -0.00, -1.00, 279.0, 206.0)"> </text><text xml:space="preserve" font-family="Helvetica-Light" font-size="14.0" fill="#FEFFFF" transform="matrix(1.00, 0.00, -0.00, -1.00, 282.9, 206.0)">J</text><text xml:space="preserve" font-family="Helvetica-Light" font-size="14.0" fill="#FEFFFF" transform="matrix(1.00, 0.00, -0.00, -1.00, 289.9, 206.0)">u</text><text xml:space="preserve" font-family="Helvetica-Light" font-size="14.0" fill="#FEFFFF" transform="matrix(1.00, 0.00, -0.00, -1.00, 297.7, 206.0)">s</text><text xml:space="preserve" font-family="Helvetica-Light" font-size="14.0" fill="#FEFFFF" transform="matrix(1.00, 0.00, -0.00, -1.00, 304.7, 206.0)">t</text><text xml:space="preserve" font-family="Helvetica-Light" font-size="14.0" fill="#FEFFFF" transform="matrix(1.00, 0.00, -0.00, -1.00, 308.6, 206.0)">i</text><text xml:space="preserve" font-family="Helvetica-Light" font-size="14.0" fill="#FEFFFF" transform="matrix(1.00, 0.00, -0.00, -1.00, 311.7, 206.0)">n</text><text xml:space="preserve" font-family="Helvetica-Light" font-size="14.0" fill="#FEFFFF" transform="matrix(1.00, 0.00, -0.00, -1.00, 319.5, 206.0)"> </text><text xml:space="preserve" font-family="Helvetica-Light" font-size="14.0" fill="#FEFFFF" transform="matrix(1.00, 0.00, -0.00, -1.00, 323.4, 206.0)">J</text><text xml:space="preserve" font-family="Helvetica-Light" font-size="14.0" fill="#FEFFFF" transform="matrix(1.00, 0.00, -0.00, -1.00, 330.4, 206.0)">o</text><text xml:space="preserve" font-family="Helvetica-Light" font-size="14.0" fill="#FEFFFF" transform="matrix(1.00, 0.00, -0.00, -1.00, 338.2, 206.0)">h</text><text xml:space="preserve" font-family="Helvetica-Light" font-size="14.0" fill="#FEFFFF" transform="matrix(1.00, 0.00, -0.00, -1.00, 345.9, 206.0)">n</text><text xml:space="preserve" font-family="Helvetica-Light" font-size="14.0" fill="#FEFFFF" transform="matrix(1.00, 0.00, -0.00, -1.00, 353.7, 206.0)">s</text><text xml:space="preserve" font-family="Helvetica-Light" font-size="14.0" fill="#FEFFFF" transform="matrix(1.00, 0.00, -0.00, -1.00, 360.7, 206.0)">o</text><text xml:space="preserve" font-family="Helvetica-Light" font-size="14.0" fill="#FEFFFF" transform="matrix(1.00, 0.00, -0.00, -1.00, 368.5, 206.0)">n</text><text xml:space="preserve" font-family="Helvetica-Light" font-size="14.0" fill="#FEFFFF" transform="matrix(1.00, 0.00, -0.00, -1.00, 376.3, 206.0)"> </text><text xml:space="preserve" font-family="Helvetica-Light" font-size="14.0" fill="#FEFFFF" transform="matrix(1.00, 0.00, -0.00, -1.00, 380.2, 206.0)">&amp;</text><text xml:space="preserve" font-family="Helvetica-Light" font-size="14.0" fill="#FEFFFF" transform="matrix(1.00, 0.00, -0.00, -1.00, 389.5, 206.0)"> </text><text xml:space="preserve" font-family="Helvetica-Light" font-size="14.0" fill="#FEFFFF" transform="matrix(1.00, 0.00, -0.00, -1.00, 393.4, 206.0)">S</text><text xml:space="preserve" font-family="Helvetica-Light" font-size="14.0" fill="#FEFFFF" transform="matrix(1.00, 0.00, -0.00, -1.00, 402.0, 206.0)">e</text><text xml:space="preserve" font-family="Helvetica-Light" font-size="14.0" fill="#FEFFFF" transform="matrix(1.00, 0.00, -0.00, -1.00, 409.8, 206.0)">r</text><text xml:space="preserve" font-family="Helvetica-Light" font-size="14.0" fill="#FEFFFF" transform="matrix(1.00, 0.00, -0.00, -1.00, 414.2, 206.0)">e</text><text xml:space="preserve" font-family="Helvetica-Light" font-size="14.0" fill="#FEFFFF" transform="matrix(1.00, 0.00, -0.00, -1.00, 421.9, 206.0)">n</text><text xml:space="preserve" font-family="Helvetica-Light" font-size="14.0" fill="#FEFFFF" transform="matrix(1.00, 0.00, -0.00, -1.00, 429.7, 206.0)">a</text><text xml:space="preserve" font-family="Helvetica-Light" font-size="14.0" fill="#FEFFFF" transform="matrix(1.00, 0.00, -0.00, -1.00, 437.5, 206.0)"> </text><text xml:space="preserve" font-family="Helvetica-Light" font-size="14.0" fill="#FEFFFF" transform="matrix(1.00, 0.00, -0.00, -1.00, 441.4, 206.0)">Y</text><text xml:space="preserve" font-family="Helvetica-Light" font-size="14.0" fill="#FEFFFF" transform="matrix(1.00, 0.00, -0.00, -1.00, 448.7, 206.0)">e</text><text xml:space="preserve" font-family="Helvetica-Light" font-size="14.0" fill="#FEFFFF" transform="matrix(1.00, 0.00, -0.00, -1.00, 456.5, 206.0)">u</text><text xml:space="preserve" font-family="Helvetica-Light" font-size="14.0" fill="#FEFFFF" transform="matrix(1.00, 0.00, -0.00, -1.00, 464.2, 206.0)">n</text><text xml:space="preserve" font-family="Helvetica-Light" font-size="14.0" fill="#FEFFFF" transform="matrix(1.00, 0.00, -0.00, -1.00, 472.0, 206.0)">g</text><text xml:space="preserve" font-family="Helvetica-Light" font-size="14.0" fill="#FEFFFF" transform="matrix(1.00, 0.00, -0.00, -1.00, 480.6, 206.0)">,</text><text xml:space="preserve" font-family="Helvetica-Light" font-size="14.0" fill="#FEFFFF" transform="matrix(1.00, 0.00, -0.00, -1.00, 484.5, 206.0)"> </text><text xml:space="preserve" font-family="Helvetica-Light" font-size="14.0" fill="#FEFFFF" transform="matrix(1.00, 0.00, -0.00, -1.00, 488.4, 206.0)">c</text><text xml:space="preserve" font-family="Helvetica-Light" font-size="14.0" fill="#FEFFFF" transform="matrix(1.00, 0.00, -0.00, -1.00, 496.1, 206.0)">s</text><text xml:space="preserve" font-family="Helvetica-Light" font-size="14.0" fill="#FEFFFF" transform="matrix(1.00, 0.00, -0.00, -1.00, 503.1, 206.0)">2</text><text xml:space="preserve" font-family="Helvetica-Light" font-size="14.0" fill="#FEFFFF" transform="matrix(1.00, 0.00, -0.00, -1.00, 510.9, 206.0)">3</text><text xml:space="preserve" font-family="Helvetica-Light" font-size="14.0" fill="#FEFFFF" transform="matrix(1.00, 0.00, -0.00, -1.00, 518.7, 206.0)">1</text><text xml:space="preserve" font-family="Helvetica-Light" font-size="14.0" fill="#FEFFFF" transform="matrix(1.00, 0.00, -0.00, -1.00, 526.5, 206.0)">n</text><text xml:space="preserve" font-family="Helvetica-Light" font-size="14.0" fill="#FEFFFF" transform="matrix(1.00, 0.00, -0.00, -1.00, 534.3, 206.0)"> </text><text xml:space="preserve" font-family="Helvetica-Light" font-size="14.0" fill="#FEFFFF" transform="matrix(1.00, 0.00, -0.00, -1.00, 538.2, 206.0)">2</text><text xml:space="preserve" font-family="Helvetica-Light" font-size="14.0" fill="#FEFFFF" transform="matrix(1.00, 0.00, -0.00, -1.00, 546.0, 206.0)">0</text><text xml:space="preserve" font-family="Helvetica-Light" font-size="14.0" fill="#FEFFFF" transform="matrix(1.00, 0.00, -0.00, -1.00, 553.7, 206.0)">1</text><text xml:space="preserve" font-family="Helvetica-Light" font-size="14.0" fill="#FEFFFF" transform="matrix(1.00, 0.00, -0.00, -1.00, 561.5, 206.0)">7</text><text xml:space="preserve" font-family="Helvetica-Light" font-size="14.0" fill="#FEFFFF" transform="matrix(1.00, 0.00, -0.00, -1.00, 569.3, 206.0)">,</text><text xml:space="preserve" font-family="Helvetica-Light" font-size="14.0" fill="#FEFFFF" transform="matrix(1.00, 0.00, -0.00, -1.00, 573.2, 206.0)"> </text><text xml:space="preserve" font-family="Helvetica-Light" font-size="14.0" fill="#FEFFFF" transform="matrix(1.00, 0.00, -0.00, -1.00, 577.1, 206.0)">L</text><text xml:space="preserve" font-family="Helvetica-Light" font-size="14.0" fill="#FEFFFF" transform="matrix(1.00, 0.00, -0.00, -1.00, 584.9, 206.0)">e</text><text xml:space="preserve" font-family="Helvetica-Light" font-size="14.0" fill="#FEFFFF" transform="matrix(1.00, 0.00, -0.00, -1.00, 592.7, 206.0)">c</text><text xml:space="preserve" font-family="Helvetica-Light" font-size="14.0" fill="#FEFFFF" transform="matrix(1.00, 0.00, -0.00, -1.00, 600.4, 206.0)">t</text><text xml:space="preserve" font-family="Helvetica-Light" font-size="14.0" fill="#FEFFFF" transform="matrix(1.00, 0.00, -0.00, -1.00, 604.3, 206.0)">u</text><text xml:space="preserve" font-family="Helvetica-Light" font-size="14.0" fill="#FEFFFF" transform="matrix(1.00, 0.00, -0.00, -1.00, 612.1, 206.0)">r</text><text xml:space="preserve" font-family="Helvetica-Light" font-size="14.0" fill="#FEFFFF" transform="matrix(1.00, 0.00, -0.00, -1.00, 616.5, 206.0)">e</text><text xml:space="preserve" font-family="Helvetica-Light" font-size="14.0" fill="#FEFFFF" transform="matrix(1.00, 0.00, -0.00, -1.00, 624.3, 206.0)"> </text><text xml:space="preserve" font-family="Helvetica-Light" font-size="14.0" fill="#FEFFFF" transform="matrix(1.00, 0.00, -0.00, -1.00, 628.2, 206.0)">1</text><text xml:space="preserve" font-family="Helvetica-Light" font-size="14.0" fill="#FEFFFF" transform="matrix(1.00, 0.00, -0.00, -1.00, 636.0, 206.0)">2</text><text xml:space="preserve" font-family="Helvetica-Light" font-size="14.0" fill="#FEFFFF" transform="matrix(1.00, 0.00, -0.00, -1.00, 643.8, 206.0)">)</text><text xml:space="preserve" font-family="Helvetica-Light" font-size="24.0" fill="#FEFFFF" transform="matrix(1.00, 0.00, -0.00, -1.00, 76.5, 131.0)">•</text><text xml:space="preserve" font-family="Helvetica-Light" font-size="32.0" fill="#FEFFFF" transform="matrix(1.00, 0.00, -0.00, -1.00, 110.0, 128.0)">C</text><text xml:space="preserve" font-family="Helvetica-Light" font-size="32.0" fill="#FEFFFF" transform="matrix(1.00, 0.00, -0.00, -1.00, 133.1, 128.0)">N</text><text xml:space="preserve" font-family="Helvetica-Light" font-size="32.0" fill="#FEFFFF" transform="matrix(1.00, 0.00, -0.00, -1.00, 156.2, 128.0)">N</text><text xml:space="preserve" font-family="Helvetica-Light" font-size="32.0" fill="#FEFFFF" transform="matrix(1.00, 0.00, -0.00, -1.00, 179.3, 128.0)"> </text><text xml:space="preserve" font-family="Helvetica-Light" font-size="32.0" fill="#FEFFFF" transform="matrix(1.00, 0.00, -0.00, -1.00, 188.2, 128.0)">c</text><text xml:space="preserve" font-family="Helvetica-Light" font-size="32.0" fill="#FEFFFF" transform="matrix(1.00, 0.00, -0.00, -1.00, 206.0, 128.0)">a</text><text xml:space="preserve" font-family="Helvetica-Light" font-size="32.0" fill="#FEFFFF" transform="matrix(1.00, 0.00, -0.00, -1.00, 223.8, 128.0)">n</text><text xml:space="preserve" font-family="Helvetica-Light" font-size="32.0" fill="#FEFFFF" transform="matrix(1.00, 0.00, -0.00, -1.00, 241.6, 128.0)"> </text><text xml:space="preserve" font-family="Helvetica-Light" font-size="32.0" fill="#FEFFFF" transform="matrix(1.00, 0.00, -0.00, -1.00, 250.5, 128.0)">b</text><text xml:space="preserve" font-family="Helvetica-Light" font-size="32.0" fill="#FEFFFF" transform="matrix(1.00, 0.00, -0.00, -1.00, 270.0, 128.0)">e</text><text xml:space="preserve" font-family="Helvetica-Light" font-size="32.0" fill="#FEFFFF" transform="matrix(1.00, 0.00, -0.00, -1.00, 287.8, 128.0)"> </text><text xml:space="preserve" font-family="Helvetica-Light" font-size="32.0" fill="#FEFFFF" transform="matrix(1.00, 0.00, -0.00, -1.00, 296.7, 128.0)">f</text><text xml:space="preserve" font-family="Helvetica-Light" font-size="32.0" fill="#FEFFFF" transform="matrix(1.00, 0.00, -0.00, -1.00, 305.6, 128.0)">o</text><text xml:space="preserve" font-family="Helvetica-Light" font-size="32.0" fill="#FEFFFF" transform="matrix(1.00, 0.00, -0.00, -1.00, 323.4, 128.0)">o</text><text xml:space="preserve" font-family="Helvetica-Light" font-size="32.0" fill="#FEFFFF" transform="matrix(1.00, 0.00, -0.00, -1.00, 341.2, 128.0)">l</text><text xml:space="preserve" font-family="Helvetica-Light" font-size="32.0" fill="#FEFFFF" transform="matrix(1.00, 0.00, -0.00, -1.00, 348.3, 128.0)">e</text><text xml:space="preserve" font-family="Helvetica-Light" font-size="32.0" fill="#FEFFFF" transform="matrix(1.00, 0.00, -0.00, -1.00, 366.1, 128.0)">d</text><text xml:space="preserve" font-family="Helvetica-Light" font-size="32.0" fill="#FEFFFF" transform="matrix(1.00, 0.00, -0.00, -1.00, 385.6, 128.0)"> </text><text xml:space="preserve" font-family="Helvetica-Light" font-size="32.0" fill="#FEFFFF" transform="matrix(1.00, 0.00, -0.00, -1.00, 394.5, 128.0)">b</text><text xml:space="preserve" font-family="Helvetica-Light" font-size="32.0" fill="#FEFFFF" transform="matrix(1.00, 0.00, -0.00, -1.00, 414.1, 128.0)">y</text><text xml:space="preserve" font-family="Helvetica-Light" font-size="32.0" fill="#FEFFFF" transform="matrix(1.00, 0.00, -0.00, -1.00, 430.1, 128.0)"> </text><text xml:space="preserve" font-family="Helvetica-Light" font-size="32.0" fill="#FEFFFF" transform="matrix(1.00, 0.00, -0.00, -1.00, 439.0, 128.0)">a</text><text xml:space="preserve" font-family="Helvetica-Light" font-size="32.0" fill="#FEFFFF" transform="matrix(1.00, 0.00, -0.00, -1.00, 456.8, 128.0)">d</text><text xml:space="preserve" font-family="Helvetica-Light" font-size="32.0" fill="#FEFFFF" transform="matrix(1.00, 0.00, -0.00, -1.00, 476.3, 128.0)">v</text><text xml:space="preserve" font-family="Helvetica-Light" font-size="32.0" fill="#FEFFFF" transform="matrix(1.00, 0.00, -0.00, -1.00, 492.3, 128.0)">e</text><text xml:space="preserve" font-family="Helvetica-Light" font-size="32.0" fill="#FEFFFF" transform="matrix(1.00, 0.00, -0.00, -1.00, 510.1, 128.0)">r</text><text xml:space="preserve" font-family="Helvetica-Light" font-size="32.0" fill="#FEFFFF" transform="matrix(1.00, 0.00, -0.00, -1.00, 520.8, 128.0)">s</text><text xml:space="preserve" font-family="Helvetica-Light" font-size="32.0" fill="#FEFFFF" transform="matrix(1.00, 0.00, -0.00, -1.00, 536.8, 128.0)">a</text><text xml:space="preserve" font-family="Helvetica-Light" font-size="32.0" fill="#FEFFFF" transform="matrix(1.00, 0.00, -0.00, -1.00, 554.6, 128.0)">r</text><text xml:space="preserve" font-family="Helvetica-Light" font-size="32.0" fill="#FEFFFF" transform="matrix(1.00, 0.00, -0.00, -1.00, 565.2, 128.0)">i</text><text xml:space="preserve" font-family="Helvetica-Light" font-size="32.0" fill="#FEFFFF" transform="matrix(1.00, 0.00, -0.00, -1.00, 572.3, 128.0)">a</text><text xml:space="preserve" font-family="Helvetica-Light" font-size="32.0" fill="#FEFFFF" transform="matrix(1.00, 0.00, -0.00, -1.00, 590.1, 128.0)">l</text><text xml:space="preserve" font-family="Helvetica-Light" font-size="32.0" fill="#FEFFFF" transform="matrix(1.00, 0.00, -0.00, -1.00, 597.2, 128.0)"> </text><text xml:space="preserve" font-family="Helvetica-Light" font-size="32.0" fill="#FEFFFF" transform="matrix(1.00, 0.00, -0.00, -1.00, 606.1, 128.0)">e</text><text xml:space="preserve" font-family="Helvetica-Light" font-size="32.0" fill="#FEFFFF" transform="matrix(1.00, 0.00, -0.00, -1.00, 623.9, 128.0)">x</text><text xml:space="preserve" font-family="Helvetica-Light" font-size="32.0" fill="#FEFFFF" transform="matrix(1.00, 0.00, -0.00, -1.00, 639.9, 128.0)">a</text><text xml:space="preserve" font-family="Helvetica-Light" font-size="32.0" fill="#FEFFFF" transform="matrix(1.00, 0.00, -0.00, -1.00, 657.7, 128.0)">m</text><text xml:space="preserve" font-family="Helvetica-Light" font-size="32.0" fill="#FEFFFF" transform="matrix(1.00, 0.00, -0.00, -1.00, 684.4, 128.0)">p</text><text xml:space="preserve" font-family="Helvetica-Light" font-size="32.0" fill="#FEFFFF" transform="matrix(1.00, 0.00, -0.00, -1.00, 703.9, 128.0)">l</text><text xml:space="preserve" font-family="Helvetica-Light" font-size="32.0" fill="#FEFFFF" transform="matrix(1.00, 0.00, -0.00, -1.00, 711.0, 128.0)">e</text><text xml:space="preserve" font-family="Helvetica-Light" font-size="32.0" fill="#FEFFFF" transform="matrix(1.00, 0.00, -0.00, -1.00, 728.8, 128.0)">s</text></g></svg>